<?xml version="1.0" encoding="UTF-8" standalone="no"?>
<svg width="275.872mm" height="50.8mm"
 xmlns="http://www.w3.org/2000/svg" xmlns:xlink="http://www.w3.org/1999/xlink"  version="1.2" baseProfile="tiny">
<title>Qt SVG Document</title>
<desc>Generated with Qt</desc>
<defs>
</defs>
<g fill="none" stroke="black" stroke-width="1" fill-rule="evenodd" stroke-linecap="square" stroke-linejoin="bevel" >

<g fill="none" stroke="#000000" stroke-opacity="1" stroke-width="1" stroke-linecap="square" stroke-linejoin="bevel" transform="matrix(1,0,0,1,0,0)"
font-family="Ubuntu" font-size="13" font-weight="400" font-style="normal" 
>
</g>

<g fill="none" stroke="#000000" stroke-opacity="1" stroke-width="1" stroke-linecap="square" stroke-linejoin="bevel" transform="matrix(1,0,0,1,0,0)"
font-family="Ubuntu" font-size="13" font-weight="400" font-style="normal" 
>
</g>

<g fill="none" stroke="#000000" stroke-opacity="1" stroke-width="1" stroke-linecap="square" stroke-linejoin="bevel" transform="matrix(1.99911,0,0,1.99911,14.3936,71.968)"
font-family="Ubuntu" font-size="13" font-weight="400" font-style="normal" 
>
</g>

<g fill="#ffffff" fill-opacity="1" stroke="none" transform="matrix(1.99911,0,0,1.99911,14.3936,71.968)"
font-family="Ubuntu" font-size="13" font-weight="400" font-style="normal" 
>
<rect x="-7.2" y="-36" width="391.174" height="72"/>
</g>

<g fill="none" stroke="#000000" stroke-opacity="1" stroke-width="1" stroke-linecap="square" stroke-linejoin="bevel" transform="matrix(1.99911,0,0,1.99911,14.3936,71.968)"
font-family="Ubuntu" font-size="13" font-weight="400" font-style="normal" 
>
</g>

<g fill="none" stroke="#000000" stroke-opacity="1" stroke-width="1" stroke-linecap="square" stroke-linejoin="bevel" transform="matrix(1.99911,0,0,1.99911,14.3936,71.968)"
font-family="Ubuntu" font-size="13" font-weight="400" font-style="normal" 
>
</g>

<g fill="none" stroke="#000000" stroke-opacity="1" stroke-width="1" stroke-linecap="square" stroke-linejoin="bevel" transform="matrix(1.99911,0,0,1.99911,14.3936,71.968)"
font-family="Ubuntu" font-size="13" font-weight="400" font-style="normal" 
>
</g>

<g fill="none" stroke="#000000" stroke-opacity="1" stroke-width="1" stroke-linecap="square" stroke-linejoin="bevel" transform="matrix(1.99911,0,0,1.99911,14.3936,71.968)"
font-family="Ubuntu" font-size="13" font-weight="400" font-style="normal" 
>
</g>

<g fill="none" stroke="#000000" stroke-opacity="1" stroke-width="1" stroke-linecap="square" stroke-linejoin="round" transform="matrix(1.99911,0,0,1.99911,14.3936,71.968)"
font-family="Ubuntu" font-size="13" font-weight="400" font-style="normal" 
>
<rect x="178.289" y="-35.5" width="82.0016" height="35"/>
</g>

<g fill="none" stroke="#000000" stroke-opacity="1" stroke-width="1" stroke-linecap="square" stroke-linejoin="bevel" transform="matrix(1.99911,0,0,1.99911,14.3936,71.968)"
font-family="Ubuntu" font-size="13" font-weight="400" font-style="normal" 
>
</g>

<g fill="none" stroke="#000000" stroke-opacity="1" stroke-width="1" stroke-linecap="square" stroke-linejoin="bevel" transform="matrix(1.99911,0,0,1.99911,394.82,19.9911)"
font-family="Ubuntu" font-size="13" font-weight="400" font-style="normal" 
>
</g>

<g fill="none" stroke="#000000" stroke-opacity="1" stroke-width="1" stroke-linecap="square" stroke-linejoin="bevel" transform="matrix(1.99911,0,0,1.99911,394.82,19.9911)"
font-family="sans" font-size="11" font-weight="100" font-style="normal" 
>
</g>

<g fill="#000000" fill-opacity="1" stroke="#000000" stroke-opacity="1" stroke-width="1" stroke-linecap="square" stroke-linejoin="round" transform="matrix(1.99911,0,0,1.99911,394.82,19.9911)"
font-family="sans" font-size="11" font-weight="100" font-style="normal" 
>
<path vector-effect="none" fill-rule="nonzero" d="M3.5,4.14063 L0.734375,12 L0.125,12 L2.875,4.14063 L3.5,4.14063 M6.8125,6.04688 C7.08333,6.04688 7.32813,6.07813 7.54688,6.14063 L7.45313,6.71875 C7.23438,6.65625 7.01042,6.625 6.78125,6.625 C6.28125,6.625 5.88281,6.82292 5.58594,7.21875 C5.28906,7.61458 5.14063,8.13542 5.14063,8.78125 L5.14063,12 L4.51563,12 L4.51563,6.14063 L5.04688,6.14063 L5.10938,7.23438 L5.14063,7.23438 C5.27604,6.90104 5.48438,6.61979 5.76563,6.39063 C6.04688,6.16146 6.39583,6.04688 6.8125,6.04688 M13.0313,9.0625 C13.0313,9.67708 12.9349,10.2109 12.7422,10.6641 C12.5495,11.1172 12.2682,11.4714 11.8984,11.7266 C11.5286,11.9818 11.0729,12.1094 10.5313,12.1094 C10.0313,12.1094 9.59635,11.9844 9.22656,11.7344 C8.85677,11.4844 8.57292,11.1302 8.375,10.6719 C8.17708,10.2135 8.07813,9.67708 8.07813,9.0625 C8.07813,8.11458 8.30208,7.3724 8.75,6.83594 C9.19792,6.29948 9.8125,6.03125 10.5938,6.03125 C11.1146,6.03125 11.5573,6.15885 11.9219,6.41406 C12.2865,6.66927 12.5625,7.02344 12.75,7.47656 C12.9375,7.92969 13.0313,8.45833 13.0313,9.0625 M8.73438,9.0625 C8.73438,9.82292 8.88281,10.4323 9.17969,10.8906 C9.47656,11.349 9.93229,11.5781 10.5469,11.5781 C11.1823,11.5781 11.6484,11.3464 11.9453,10.8828 C12.2422,10.4193 12.3906,9.8125 12.3906,9.0625 C12.3906,8.58333 12.3281,8.15625 12.2031,7.78125 C12.0781,7.40625 11.8828,7.11198 11.6172,6.89844 C11.3516,6.6849 11.0052,6.57813 10.5781,6.57813 C9.96354,6.57813 9.5026,6.79688 9.19531,7.23438 C8.88802,7.67188 8.73438,8.28125 8.73438,9.0625 M15.125,5.95313 C15.125,6.16146 15.1224,6.38542 15.1172,6.625 C15.112,6.86458 15.1042,7.05729 15.0938,7.20313 L15.125,7.20313 C15.2604,6.86979 15.487,6.59115 15.8047,6.36719 C16.1224,6.14323 16.5156,6.03125 16.9844,6.03125 C17.6927,6.03125 18.2448,6.28646 18.6406,6.79688 C19.0365,7.30729 19.2344,8.0625 19.2344,9.0625 C19.2344,9.98958 19.0365,10.7292 18.6406,11.2813 C18.2448,11.8333 17.6667,12.1094 16.9063,12.1094 C16.4479,12.1094 16.0729,12.0078 15.7813,11.8047 C15.4896,11.6016 15.276,11.349 15.1406,11.0469 L15.0938,11.0469 L14.9688,12 L14.5,12 L14.5,3.64063 L15.125,3.64063 L15.125,5.95313 M16.9063,6.57813 C16.2708,6.57813 15.8151,6.79167 15.5391,7.21875 C15.263,7.64583 15.125,8.26042 15.125,9.0625 L15.125,9.14063 C15.125,9.93229 15.2552,10.5365 15.5156,10.9531 C15.776,11.3698 16.2135,11.5781 16.8281,11.5781 C17.401,11.5781 17.8359,11.3594 18.1328,10.9219 C18.4297,10.4844 18.5781,9.85938 18.5781,9.04688 C18.5781,7.40104 18.0208,6.57813 16.9063,6.57813 M25.3438,9.0625 C25.3438,9.67708 25.2474,10.2109 25.0547,10.6641 C24.862,11.1172 24.5807,11.4714 24.2109,11.7266 C23.8411,11.9818 23.3854,12.1094 22.8438,12.1094 C22.3438,12.1094 21.9089,11.9844 21.5391,11.7344 C21.1693,11.4844 20.8854,11.1302 20.6875,10.6719 C20.4896,10.2135 20.3906,9.67708 20.3906,9.0625 C20.3906,8.11458 20.6146,7.3724 21.0625,6.83594 C21.5104,6.29948 22.125,6.03125 22.9063,6.03125 C23.4271,6.03125 23.8698,6.15885 24.2344,6.41406 C24.599,6.66927 24.875,7.02344 25.0625,7.47656 C25.25,7.92969 25.3438,8.45833 25.3438,9.0625 M21.0469,9.0625 C21.0469,9.82292 21.1953,10.4323 21.4922,10.8906 C21.7891,11.349 22.2448,11.5781 22.8594,11.5781 C23.4948,11.5781 23.9609,11.3464 24.2578,10.8828 C24.5547,10.4193 24.7031,9.8125 24.7031,9.0625 C24.7031,8.58333 24.6406,8.15625 24.5156,7.78125 C24.3906,7.40625 24.1953,7.11198 23.9297,6.89844 C23.6641,6.6849 23.3177,6.57813 22.8906,6.57813 C22.276,6.57813 21.8151,6.79688 21.5078,7.23438 C21.2005,7.67188 21.0469,8.28125 21.0469,9.0625 M28.4219,11.5781 C28.5781,11.5781 28.724,11.5651 28.8594,11.5391 C28.9948,11.513 29.1146,11.4792 29.2188,11.4375 L29.2188,11.9375 C29.1146,11.9896 28.9844,12.0313 28.8281,12.0625 C28.6719,12.0938 28.5052,12.1094 28.3281,12.1094 C27.8698,12.1094 27.513,11.974 27.2578,11.7031 C27.0026,11.4323 26.875,10.9896 26.875,10.375 L26.875,6.65625 L26.0625,6.65625 L26.0625,6.29688 L26.875,6.09375 L27.0938,4.75 L27.5,4.75 L27.5,6.14063 L29.1875,6.14063 L29.1875,6.65625 L27.5,6.65625 L27.5,10.3438 C27.5,11.1667 27.8073,11.5781 28.4219,11.5781 M33.8281,13.4844 L29.4688,13.4844 L29.4688,12.9844 L33.8281,12.9844 L33.8281,13.4844 M37.2031,6.03125 C37.8177,6.03125 38.2917,6.20573 38.625,6.55469 C38.9583,6.90365 39.125,7.44271 39.125,8.17188 L39.125,12 L38.5,12 L38.5,8.21875 C38.5,7.65625 38.3828,7.24219 38.1484,6.97656 C37.9141,6.71094 37.5677,6.57813 37.1094,6.57813 C35.9219,6.57813 35.3281,7.32292 35.3281,8.8125 L35.3281,12 L34.7031,12 L34.7031,6.14063 L35.2031,6.14063 L35.2969,7.15625 L35.3438,7.15625 C35.4896,6.83333 35.7188,6.5651 36.0313,6.35156 C36.3438,6.13802 36.7344,6.03125 37.2031,6.03125 M42.9688,6.03125 C43.4375,6.03125 43.8333,6.14844 44.1563,6.38281 C44.4792,6.61719 44.7214,6.9349 44.8828,7.33594 C45.0443,7.73698 45.125,8.19792 45.125,8.71875 L45.125,9.15625 L41.2031,9.15625 C41.2135,9.92708 41.3854,10.5208 41.7188,10.9375 C42.0521,11.3542 42.526,11.5625 43.1406,11.5625 C43.4948,11.5625 43.7969,11.5313 44.0469,11.4688 C44.2969,11.4063 44.5781,11.3021 44.8906,11.1563 L44.8906,11.7344 C44.6198,11.8698 44.349,11.9661 44.0781,12.0234 C43.8073,12.0807 43.4896,12.1094 43.125,12.1094 C42.3021,12.1094 41.6667,11.8411 41.2188,11.3047 C40.7708,10.7682 40.5469,10.0417 40.5469,9.125 C40.5469,8.52083 40.6432,7.98958 40.8359,7.53125 C41.0286,7.07292 41.3047,6.70833 41.6641,6.4375 C42.0234,6.16667 42.4583,6.03125 42.9688,6.03125 M42.9688,6.5625 C42.4688,6.5625 42.0651,6.74219 41.7578,7.10156 C41.4505,7.46094 41.2708,7.97396 41.2188,8.64063 L44.4688,8.64063 C44.4688,8.01563 44.3464,7.51302 44.1016,7.13281 C43.8568,6.7526 43.4792,6.5625 42.9688,6.5625 M49.7031,8.1875 C49.6406,7.94792 49.5781,7.71875 49.5156,7.5 C49.4531,7.28125 49.4063,7.07813 49.375,6.89063 L49.3281,6.89063 C49.2865,7.07813 49.237,7.28385 49.1797,7.50781 C49.1224,7.73177 49.0625,7.96354 49,8.20313 L47.8438,12 L47.1719,12 L45.625,6.14063 L46.2813,6.14063 L47.2031,9.75 C47.2865,10.0833 47.3542,10.3724 47.4063,10.6172 C47.4583,10.862 47.5,11.0833 47.5313,11.2813 L47.5625,11.2813 C47.6042,11.1042 47.6536,10.8932 47.7109,10.6484 C47.7682,10.4036 47.8385,10.1354 47.9219,9.84375 L49.0313,6.14063 L49.7031,6.14063 L50.7656,9.84375 C50.8385,10.1042 50.9089,10.3594 50.9766,10.6094 C51.0443,10.8594 51.0938,11.0781 51.125,11.2656 L51.1563,11.2656 C51.1771,11.0885 51.2161,10.875 51.2734,10.625 C51.3307,10.375 51.401,10.0833 51.4844,9.75 L52.375,6.14063 L53.0156,6.14063 L51.5,12 L50.8125,12 L49.7031,8.1875 M57.5156,10.4531 C57.5156,10.974 57.3281,11.3802 56.9531,11.6719 C56.5781,11.9635 56.0521,12.1094 55.375,12.1094 C54.9896,12.1094 54.6484,12.0755 54.3516,12.0078 C54.0547,11.9401 53.8021,11.849 53.5938,11.7344 L53.5938,11.125 C53.8438,11.2604 54.1224,11.3698 54.4297,11.4531 C54.737,11.5365 55.0521,11.5781 55.375,11.5781 C55.9167,11.5781 56.3073,11.4818 56.5469,11.2891 C56.7865,11.0964 56.9063,10.8333 56.9063,10.5 C56.9063,10.1771 56.7786,9.92708 56.5234,9.75 C56.2682,9.57292 55.8906,9.39583 55.3906,9.21875 C55.0573,9.09375 54.7604,8.96615 54.5,8.83594 C54.2396,8.70573 54.0365,8.54167 53.8906,8.34375 C53.7448,8.14583 53.6719,7.875 53.6719,7.53125 C53.6719,7.0625 53.8542,6.69531 54.2188,6.42969 C54.5833,6.16406 55.0677,6.03125 55.6719,6.03125 C55.9948,6.03125 56.3021,6.0651 56.5938,6.13281 C56.8854,6.20052 57.151,6.29167 57.3906,6.40625 L57.1719,6.92188 C56.9531,6.82813 56.7109,6.74479 56.4453,6.67188 C56.1797,6.59896 55.9115,6.5625 55.6406,6.5625 C55.2135,6.5625 54.8828,6.64323 54.6484,6.80469 C54.4141,6.96615 54.2969,7.20313 54.2969,7.51563 C54.2969,7.74479 54.3516,7.92708 54.4609,8.0625 C54.5703,8.19792 54.737,8.3151 54.9609,8.41406 C55.1849,8.51302 55.4531,8.61979 55.7656,8.73438 C56.099,8.85938 56.3958,8.98698 56.6563,9.11719 C56.9167,9.2474 57.125,9.41667 57.2813,9.625 C57.4375,9.83333 57.5156,10.1094 57.5156,10.4531 "/>
</g>

<g fill="none" stroke="#000000" stroke-opacity="1" stroke-width="1" stroke-linecap="square" stroke-linejoin="bevel" transform="matrix(1.99911,0,0,1.99911,394.82,19.9911)"
font-family="sans" font-size="11" font-weight="100" font-style="normal" 
>
</g>

<g fill="none" stroke="#000000" stroke-opacity="1" stroke-width="1" stroke-linecap="square" stroke-linejoin="bevel" transform="matrix(1.99911,0,0,1.99911,394.82,19.9911)"
font-family="Ubuntu" font-size="13" font-weight="400" font-style="normal" 
>
</g>

<g fill="none" stroke="#000000" stroke-opacity="1" stroke-width="1" stroke-linecap="square" stroke-linejoin="bevel" transform="matrix(1.99911,0,0,1.99911,14.3936,71.968)"
font-family="Ubuntu" font-size="13" font-weight="400" font-style="normal" 
>
</g>

<g fill="none" stroke="#000000" stroke-opacity="1" stroke-width="1" stroke-linecap="square" stroke-linejoin="bevel" transform="matrix(1.99911,0,0,1.99911,14.3936,71.968)"
font-family="Ubuntu" font-size="13" font-weight="400" font-style="normal" 
>
</g>

<g fill="none" stroke="#000000" stroke-opacity="1" stroke-width="1" stroke-linecap="square" stroke-linejoin="bevel" transform="matrix(1.99911,0,0,1.99911,14.3936,71.968)"
font-family="Ubuntu" font-size="13" font-weight="400" font-style="normal" 
>
</g>

<g fill="none" stroke="#000000" stroke-opacity="1" stroke-width="1" stroke-linecap="square" stroke-linejoin="round" transform="matrix(1.99911,0,0,1.99911,14.3936,71.968)"
font-family="Ubuntu" font-size="13" font-weight="400" font-style="normal" 
>
<ellipse cx="329.38" cy="-18" rx="54.094" ry="17.5"/>
</g>

<g fill="none" stroke="#000000" stroke-opacity="1" stroke-width="1" stroke-linecap="square" stroke-linejoin="bevel" transform="matrix(1.99911,0,0,1.99911,14.3936,71.968)"
font-family="Ubuntu" font-size="13" font-weight="400" font-style="normal" 
>
</g>

<g fill="none" stroke="#000000" stroke-opacity="1" stroke-width="1" stroke-linecap="square" stroke-linejoin="bevel" transform="matrix(1.99911,0,0,1.99911,611.56,19.9911)"
font-family="Ubuntu" font-size="13" font-weight="400" font-style="normal" 
>
</g>

<g fill="none" stroke="#000000" stroke-opacity="1" stroke-width="1" stroke-linecap="square" stroke-linejoin="bevel" transform="matrix(1.99911,0,0,1.99911,611.56,19.9911)"
font-family="sans" font-size="11" font-weight="100" font-style="normal" 
>
</g>

<g fill="#000000" fill-opacity="1" stroke="#000000" stroke-opacity="1" stroke-width="1" stroke-linecap="square" stroke-linejoin="round" transform="matrix(1.99911,0,0,1.99911,611.56,19.9911)"
font-family="sans" font-size="11" font-weight="100" font-style="normal" 
>
<path vector-effect="none" fill-rule="nonzero" d="M3.5,4.14063 L0.734375,12 L0.125,12 L2.875,4.14063 L3.5,4.14063 M8,10.4531 C8,10.974 7.8125,11.3802 7.4375,11.6719 C7.0625,11.9635 6.53646,12.1094 5.85938,12.1094 C5.47396,12.1094 5.13281,12.0755 4.83594,12.0078 C4.53906,11.9401 4.28646,11.849 4.07813,11.7344 L4.07813,11.125 C4.32813,11.2604 4.60677,11.3698 4.91406,11.4531 C5.22135,11.5365 5.53646,11.5781 5.85938,11.5781 C6.40104,11.5781 6.79167,11.4818 7.03125,11.2891 C7.27083,11.0964 7.39063,10.8333 7.39063,10.5 C7.39063,10.1771 7.26302,9.92708 7.00781,9.75 C6.7526,9.57292 6.375,9.39583 5.875,9.21875 C5.54167,9.09375 5.24479,8.96615 4.98438,8.83594 C4.72396,8.70573 4.52083,8.54167 4.375,8.34375 C4.22917,8.14583 4.15625,7.875 4.15625,7.53125 C4.15625,7.0625 4.33854,6.69531 4.70313,6.42969 C5.06771,6.16406 5.55208,6.03125 6.15625,6.03125 C6.47917,6.03125 6.78646,6.0651 7.07813,6.13281 C7.36979,6.20052 7.63542,6.29167 7.875,6.40625 L7.65625,6.92188 C7.4375,6.82813 7.19531,6.74479 6.92969,6.67188 C6.66406,6.59896 6.39583,6.5625 6.125,6.5625 C5.69792,6.5625 5.36719,6.64323 5.13281,6.80469 C4.89844,6.96615 4.78125,7.20313 4.78125,7.51563 C4.78125,7.74479 4.83594,7.92708 4.94531,8.0625 C5.05469,8.19792 5.22135,8.3151 5.44531,8.41406 C5.66927,8.51302 5.9375,8.61979 6.25,8.73438 C6.58333,8.85938 6.88021,8.98698 7.14063,9.11719 C7.40104,9.2474 7.60938,9.41667 7.76563,9.625 C7.92188,9.83333 8,10.1094 8,10.4531 M15.1563,6.03125 C15.7083,6.03125 16.138,6.19792 16.4453,6.53125 C16.7526,6.86458 16.9063,7.38542 16.9063,8.09375 L16.9063,12 L16.2813,12 L16.2813,8.10938 C16.2813,7.58854 16.1719,7.20313 15.9531,6.95313 C15.7344,6.70313 15.4375,6.57813 15.0625,6.57813 C14.5417,6.57813 14.1432,6.74219 13.8672,7.07031 C13.5911,7.39844 13.4531,7.90104 13.4531,8.57813 L13.4531,12 L12.8281,12 L12.8281,8.10938 C12.8281,7.58854 12.7188,7.20313 12.5,6.95313 C12.2813,6.70313 11.9844,6.57813 11.6094,6.57813 C11.0885,6.57813 10.6901,6.75 10.4141,7.09375 C10.138,7.4375 10,7.96354 10,8.67188 L10,12 L9.375,12 L9.375,6.14063 L9.875,6.14063 L9.96875,7.07813 L10.0156,7.07813 C10.151,6.78646 10.3568,6.53906 10.6328,6.33594 C10.9089,6.13281 11.2604,6.03125 11.6875,6.03125 C12.0938,6.03125 12.4375,6.125 12.7188,6.3125 C13,6.5 13.1927,6.77083 13.2969,7.125 L13.3438,7.125 C13.5,6.78125 13.7344,6.51302 14.0469,6.32031 C14.3594,6.1276 14.7292,6.03125 15.1563,6.03125 M20.6094,6.04688 C21.2344,6.04688 21.7005,6.20833 22.0078,6.53125 C22.3151,6.85417 22.4688,7.36458 22.4688,8.0625 L22.4688,12 L21.9844,12 L21.875,11.0156 L21.8438,11.0156 C21.6458,11.3385 21.4036,11.6016 21.1172,11.8047 C20.8307,12.0078 20.4323,12.1094 19.9219,12.1094 C19.401,12.1094 18.987,11.9688 18.6797,11.6875 C18.3724,11.4063 18.2188,11 18.2188,10.4688 C18.2188,9.88542 18.4427,9.44271 18.8906,9.14063 C19.3385,8.83854 19.9896,8.66667 20.8438,8.625 L21.8438,8.5625 L21.8438,8.15625 C21.8438,7.58333 21.737,7.17708 21.5234,6.9375 C21.3099,6.69792 20.9948,6.57813 20.5781,6.57813 C20.2969,6.57813 20.026,6.61719 19.7656,6.69531 C19.5052,6.77344 19.2448,6.88021 18.9844,7.01563 L18.7813,6.51563 C19.0417,6.38021 19.3255,6.26823 19.6328,6.17969 C19.9401,6.09115 20.2656,6.04688 20.6094,6.04688 M20.9219,9.07813 C20.2344,9.11979 19.7214,9.2526 19.3828,9.47656 C19.0443,9.70052 18.875,10.0313 18.875,10.4688 C18.875,10.8333 18.9792,11.1094 19.1875,11.2969 C19.3958,11.4844 19.6823,11.5781 20.0469,11.5781 C20.6094,11.5781 21.0495,11.4036 21.3672,11.0547 C21.6849,10.7057 21.8438,10.224 21.8438,9.60938 L21.8438,9.04688 L20.9219,9.07813 M26.5,6.04688 C26.7708,6.04688 27.0156,6.07813 27.2344,6.14063 L27.1406,6.71875 C26.9219,6.65625 26.6979,6.625 26.4688,6.625 C25.9688,6.625 25.5703,6.82292 25.2734,7.21875 C24.9766,7.61458 24.8281,8.13542 24.8281,8.78125 L24.8281,12 L24.2031,12 L24.2031,6.14063 L24.7344,6.14063 L24.7969,7.23438 L24.8281,7.23438 C24.9635,6.90104 25.1719,6.61979 25.4531,6.39063 C25.7344,6.16146 26.0833,6.04688 26.5,6.04688 M29.8906,11.5781 C30.0469,11.5781 30.1927,11.5651 30.3281,11.5391 C30.4635,11.513 30.5833,11.4792 30.6875,11.4375 L30.6875,11.9375 C30.5833,11.9896 30.4531,12.0313 30.2969,12.0625 C30.1406,12.0938 29.974,12.1094 29.7969,12.1094 C29.3385,12.1094 28.9818,11.974 28.7266,11.7031 C28.4714,11.4323 28.3438,10.9896 28.3438,10.375 L28.3438,6.65625 L27.5313,6.65625 L27.5313,6.29688 L28.3438,6.09375 L28.5625,4.75 L28.9688,4.75 L28.9688,6.14063 L30.6563,6.14063 L30.6563,6.65625 L28.9688,6.65625 L28.9688,10.3438 C28.9688,11.1667 29.276,11.5781 29.8906,11.5781 M34.3594,6.03125 C35.0469,6.03125 35.5911,6.28646 35.9922,6.79688 C36.3932,7.30729 36.5938,8.05729 36.5938,9.04688 C36.5938,10.0365 36.388,10.7943 35.9766,11.3203 C35.5651,11.8464 35.0052,12.1094 34.2969,12.1094 C33.8177,12.1094 33.4297,12 33.1328,11.7813 C32.8359,11.5625 32.6198,11.2969 32.4844,10.9844 L32.4375,10.9844 C32.4479,11.1719 32.4583,11.3724 32.4688,11.5859 C32.4792,11.7995 32.4844,12 32.4844,12.1875 L32.4844,14.5938 L31.8594,14.5938 L31.8594,6.14063 L32.3594,6.14063 L32.4531,7.23438 L32.4844,7.23438 C32.6198,6.92188 32.8385,6.64323 33.1406,6.39844 C33.4427,6.15365 33.849,6.03125 34.3594,6.03125 M34.25,6.57813 C33.6458,6.57813 33.2005,6.78385 32.9141,7.19531 C32.6276,7.60677 32.4844,8.19792 32.4844,8.96875 L32.4844,9.07813 C32.4844,9.91146 32.625,10.5365 32.9063,10.9531 C33.1875,11.3698 33.625,11.5781 34.2188,11.5781 C34.7813,11.5781 35.2083,11.3516 35.5,10.8984 C35.7917,10.4453 35.9375,9.82292 35.9375,9.03125 C35.9375,8.25 35.7969,7.64583 35.5156,7.21875 C35.2344,6.79167 34.8125,6.57813 34.25,6.57813 M38.6875,6.3125 C38.6875,6.46875 38.6823,6.61719 38.6719,6.75781 C38.6615,6.89844 38.651,7.03125 38.6406,7.15625 L38.6875,7.15625 C38.8333,6.83333 39.0625,6.5651 39.375,6.35156 C39.6875,6.13802 40.0729,6.03125 40.5313,6.03125 C41.1667,6.03125 41.651,6.20573 41.9844,6.55469 C42.3177,6.90365 42.4844,7.44271 42.4844,8.17188 L42.4844,12 L41.8594,12 L41.8594,8.21875 C41.8594,7.65625 41.7422,7.24219 41.5078,6.97656 C41.2734,6.71094 40.9271,6.57813 40.4688,6.57813 C39.2813,6.57813 38.6875,7.32292 38.6875,8.8125 L38.6875,12 L38.0625,12 L38.0625,3.64063 L38.6875,3.64063 L38.6875,6.3125 M48.8594,9.0625 C48.8594,9.67708 48.763,10.2109 48.5703,10.6641 C48.3776,11.1172 48.0964,11.4714 47.7266,11.7266 C47.3568,11.9818 46.901,12.1094 46.3594,12.1094 C45.8594,12.1094 45.4245,11.9844 45.0547,11.7344 C44.6849,11.4844 44.401,11.1302 44.2031,10.6719 C44.0052,10.2135 43.9063,9.67708 43.9063,9.0625 C43.9063,8.11458 44.1302,7.3724 44.5781,6.83594 C45.026,6.29948 45.6406,6.03125 46.4219,6.03125 C46.9427,6.03125 47.3854,6.15885 47.75,6.41406 C48.1146,6.66927 48.3906,7.02344 48.5781,7.47656 C48.7656,7.92969 48.8594,8.45833 48.8594,9.0625 M44.5625,9.0625 C44.5625,9.82292 44.7109,10.4323 45.0078,10.8906 C45.3047,11.349 45.7604,11.5781 46.375,11.5781 C47.0104,11.5781 47.4766,11.3464 47.7734,10.8828 C48.0703,10.4193 48.2188,9.8125 48.2188,9.0625 C48.2188,8.58333 48.1563,8.15625 48.0313,7.78125 C47.9063,7.40625 47.7109,7.11198 47.4453,6.89844 C47.1797,6.6849 46.8333,6.57813 46.4063,6.57813 C45.7917,6.57813 45.3307,6.79688 45.0234,7.23438 C44.7161,7.67188 44.5625,8.28125 44.5625,9.0625 M52.8438,6.03125 C53.4583,6.03125 53.9323,6.20573 54.2656,6.55469 C54.599,6.90365 54.7656,7.44271 54.7656,8.17188 L54.7656,12 L54.1406,12 L54.1406,8.21875 C54.1406,7.65625 54.0234,7.24219 53.7891,6.97656 C53.5547,6.71094 53.2083,6.57813 52.75,6.57813 C51.5625,6.57813 50.9688,7.32292 50.9688,8.8125 L50.9688,12 L50.3438,12 L50.3438,6.14063 L50.8438,6.14063 L50.9375,7.15625 L50.9844,7.15625 C51.1302,6.83333 51.3594,6.5651 51.6719,6.35156 C51.9844,6.13802 52.375,6.03125 52.8438,6.03125 M58.6094,6.03125 C59.0781,6.03125 59.474,6.14844 59.7969,6.38281 C60.1198,6.61719 60.362,6.9349 60.5234,7.33594 C60.6849,7.73698 60.7656,8.19792 60.7656,8.71875 L60.7656,9.15625 L56.8438,9.15625 C56.8542,9.92708 57.026,10.5208 57.3594,10.9375 C57.6927,11.3542 58.1667,11.5625 58.7813,11.5625 C59.1354,11.5625 59.4375,11.5313 59.6875,11.4688 C59.9375,11.4063 60.2188,11.3021 60.5313,11.1563 L60.5313,11.7344 C60.2604,11.8698 59.9896,11.9661 59.7188,12.0234 C59.4479,12.0807 59.1302,12.1094 58.7656,12.1094 C57.9427,12.1094 57.3073,11.8411 56.8594,11.3047 C56.4115,10.7682 56.1875,10.0417 56.1875,9.125 C56.1875,8.52083 56.2839,7.98958 56.4766,7.53125 C56.6693,7.07292 56.9453,6.70833 57.3047,6.4375 C57.6641,6.16667 58.099,6.03125 58.6094,6.03125 M58.6094,6.5625 C58.1094,6.5625 57.7057,6.74219 57.3984,7.10156 C57.0911,7.46094 56.9115,7.97396 56.8594,8.64063 L60.1094,8.64063 C60.1094,8.01563 59.987,7.51302 59.7422,7.13281 C59.4974,6.7526 59.1198,6.5625 58.6094,6.5625 "/>
</g>

<g fill="none" stroke="#000000" stroke-opacity="1" stroke-width="1" stroke-linecap="square" stroke-linejoin="bevel" transform="matrix(1.99911,0,0,1.99911,611.56,19.9911)"
font-family="sans" font-size="11" font-weight="100" font-style="normal" 
>
</g>

<g fill="none" stroke="#000000" stroke-opacity="1" stroke-width="1" stroke-linecap="square" stroke-linejoin="bevel" transform="matrix(1.99911,0,0,1.99911,611.56,19.9911)"
font-family="Ubuntu" font-size="13" font-weight="400" font-style="normal" 
>
</g>

<g fill="none" stroke="#000000" stroke-opacity="1" stroke-width="1" stroke-linecap="square" stroke-linejoin="bevel" transform="matrix(1.99911,0,0,1.99911,14.3936,71.968)"
font-family="Ubuntu" font-size="13" font-weight="400" font-style="normal" 
>
</g>

<g fill="none" stroke="#000000" stroke-opacity="1" stroke-width="1" stroke-linecap="square" stroke-linejoin="bevel" transform="matrix(1.99911,0,0,1.99911,14.3936,71.968)"
font-family="Ubuntu" font-size="13" font-weight="400" font-style="normal" 
>
</g>

<g fill="none" stroke="#000000" stroke-opacity="1" stroke-width="1" stroke-linecap="square" stroke-linejoin="bevel" transform="matrix(1.99911,0,0,1.99911,14.3936,71.968)"
font-family="Ubuntu" font-size="13" font-weight="400" font-style="normal" 
>
</g>

<g fill="none" stroke="#000000" stroke-opacity="1" stroke-width="1" stroke-linecap="square" stroke-linejoin="round" transform="matrix(1.99911,0,0,1.99911,14.3936,71.968)"
font-family="Ubuntu" font-size="13" font-weight="400" font-style="normal" 
>
<ellipse cx="81.893" cy="-18" rx="81.3928" ry="17.5"/>
</g>

<g fill="none" stroke="#000000" stroke-opacity="1" stroke-width="1" stroke-linecap="square" stroke-linejoin="bevel" transform="matrix(1.99911,0,0,1.99911,14.3936,71.968)"
font-family="Ubuntu" font-size="13" font-weight="400" font-style="normal" 
>
</g>

<g fill="none" stroke="#000000" stroke-opacity="1" stroke-width="1" stroke-linecap="square" stroke-linejoin="bevel" transform="matrix(1.99911,0,0,1.99911,83.6019,19.9911)"
font-family="Ubuntu" font-size="13" font-weight="400" font-style="normal" 
>
</g>

<g fill="none" stroke="#000000" stroke-opacity="1" stroke-width="1" stroke-linecap="square" stroke-linejoin="bevel" transform="matrix(1.99911,0,0,1.99911,83.6019,19.9911)"
font-family="sans" font-size="11" font-weight="100" font-style="normal" 
>
</g>

<g fill="#000000" fill-opacity="1" stroke="#000000" stroke-opacity="1" stroke-width="1" stroke-linecap="square" stroke-linejoin="round" transform="matrix(1.99911,0,0,1.99911,83.6019,19.9911)"
font-family="sans" font-size="11" font-weight="100" font-style="normal" 
>
<path vector-effect="none" fill-rule="nonzero" d="M3.5,4.14063 L0.734375,12 L0.125,12 L2.875,4.14063 L3.5,4.14063 M6.8125,6.04688 C7.08333,6.04688 7.32813,6.07813 7.54688,6.14063 L7.45313,6.71875 C7.23438,6.65625 7.01042,6.625 6.78125,6.625 C6.28125,6.625 5.88281,6.82292 5.58594,7.21875 C5.28906,7.61458 5.14063,8.13542 5.14063,8.78125 L5.14063,12 L4.51563,12 L4.51563,6.14063 L5.04688,6.14063 L5.10938,7.23438 L5.14063,7.23438 C5.27604,6.90104 5.48438,6.61979 5.76563,6.39063 C6.04688,6.16146 6.39583,6.04688 6.8125,6.04688 M13.0313,9.0625 C13.0313,9.67708 12.9349,10.2109 12.7422,10.6641 C12.5495,11.1172 12.2682,11.4714 11.8984,11.7266 C11.5286,11.9818 11.0729,12.1094 10.5313,12.1094 C10.0313,12.1094 9.59635,11.9844 9.22656,11.7344 C8.85677,11.4844 8.57292,11.1302 8.375,10.6719 C8.17708,10.2135 8.07813,9.67708 8.07813,9.0625 C8.07813,8.11458 8.30208,7.3724 8.75,6.83594 C9.19792,6.29948 9.8125,6.03125 10.5938,6.03125 C11.1146,6.03125 11.5573,6.15885 11.9219,6.41406 C12.2865,6.66927 12.5625,7.02344 12.75,7.47656 C12.9375,7.92969 13.0313,8.45833 13.0313,9.0625 M8.73438,9.0625 C8.73438,9.82292 8.88281,10.4323 9.17969,10.8906 C9.47656,11.349 9.93229,11.5781 10.5469,11.5781 C11.1823,11.5781 11.6484,11.3464 11.9453,10.8828 C12.2422,10.4193 12.3906,9.8125 12.3906,9.0625 C12.3906,8.58333 12.3281,8.15625 12.2031,7.78125 C12.0781,7.40625 11.8828,7.11198 11.6172,6.89844 C11.3516,6.6849 11.0052,6.57813 10.5781,6.57813 C9.96354,6.57813 9.5026,6.79688 9.19531,7.23438 C8.88802,7.67188 8.73438,8.28125 8.73438,9.0625 M15.125,5.95313 C15.125,6.16146 15.1224,6.38542 15.1172,6.625 C15.112,6.86458 15.1042,7.05729 15.0938,7.20313 L15.125,7.20313 C15.2604,6.86979 15.487,6.59115 15.8047,6.36719 C16.1224,6.14323 16.5156,6.03125 16.9844,6.03125 C17.6927,6.03125 18.2448,6.28646 18.6406,6.79688 C19.0365,7.30729 19.2344,8.0625 19.2344,9.0625 C19.2344,9.98958 19.0365,10.7292 18.6406,11.2813 C18.2448,11.8333 17.6667,12.1094 16.9063,12.1094 C16.4479,12.1094 16.0729,12.0078 15.7813,11.8047 C15.4896,11.6016 15.276,11.349 15.1406,11.0469 L15.0938,11.0469 L14.9688,12 L14.5,12 L14.5,3.64063 L15.125,3.64063 L15.125,5.95313 M16.9063,6.57813 C16.2708,6.57813 15.8151,6.79167 15.5391,7.21875 C15.263,7.64583 15.125,8.26042 15.125,9.0625 L15.125,9.14063 C15.125,9.93229 15.2552,10.5365 15.5156,10.9531 C15.776,11.3698 16.2135,11.5781 16.8281,11.5781 C17.401,11.5781 17.8359,11.3594 18.1328,10.9219 C18.4297,10.4844 18.5781,9.85938 18.5781,9.04688 C18.5781,7.40104 18.0208,6.57813 16.9063,6.57813 M25.3438,9.0625 C25.3438,9.67708 25.2474,10.2109 25.0547,10.6641 C24.862,11.1172 24.5807,11.4714 24.2109,11.7266 C23.8411,11.9818 23.3854,12.1094 22.8438,12.1094 C22.3438,12.1094 21.9089,11.9844 21.5391,11.7344 C21.1693,11.4844 20.8854,11.1302 20.6875,10.6719 C20.4896,10.2135 20.3906,9.67708 20.3906,9.0625 C20.3906,8.11458 20.6146,7.3724 21.0625,6.83594 C21.5104,6.29948 22.125,6.03125 22.9063,6.03125 C23.4271,6.03125 23.8698,6.15885 24.2344,6.41406 C24.599,6.66927 24.875,7.02344 25.0625,7.47656 C25.25,7.92969 25.3438,8.45833 25.3438,9.0625 M21.0469,9.0625 C21.0469,9.82292 21.1953,10.4323 21.4922,10.8906 C21.7891,11.349 22.2448,11.5781 22.8594,11.5781 C23.4948,11.5781 23.9609,11.3464 24.2578,10.8828 C24.5547,10.4193 24.7031,9.8125 24.7031,9.0625 C24.7031,8.58333 24.6406,8.15625 24.5156,7.78125 C24.3906,7.40625 24.1953,7.11198 23.9297,6.89844 C23.6641,6.6849 23.3177,6.57813 22.8906,6.57813 C22.276,6.57813 21.8151,6.79688 21.5078,7.23438 C21.2005,7.67188 21.0469,8.28125 21.0469,9.0625 M28.4219,11.5781 C28.5781,11.5781 28.724,11.5651 28.8594,11.5391 C28.9948,11.513 29.1146,11.4792 29.2188,11.4375 L29.2188,11.9375 C29.1146,11.9896 28.9844,12.0313 28.8281,12.0625 C28.6719,12.0938 28.5052,12.1094 28.3281,12.1094 C27.8698,12.1094 27.513,11.974 27.2578,11.7031 C27.0026,11.4323 26.875,10.9896 26.875,10.375 L26.875,6.65625 L26.0625,6.65625 L26.0625,6.29688 L26.875,6.09375 L27.0938,4.75 L27.5,4.75 L27.5,6.14063 L29.1875,6.14063 L29.1875,6.65625 L27.5,6.65625 L27.5,10.3438 C27.5,11.1667 27.8073,11.5781 28.4219,11.5781 M33.8281,13.4844 L29.4688,13.4844 L29.4688,12.9844 L33.8281,12.9844 L33.8281,13.4844 M37.2031,6.03125 C37.8177,6.03125 38.2917,6.20573 38.625,6.55469 C38.9583,6.90365 39.125,7.44271 39.125,8.17188 L39.125,12 L38.5,12 L38.5,8.21875 C38.5,7.65625 38.3828,7.24219 38.1484,6.97656 C37.9141,6.71094 37.5677,6.57813 37.1094,6.57813 C35.9219,6.57813 35.3281,7.32292 35.3281,8.8125 L35.3281,12 L34.7031,12 L34.7031,6.14063 L35.2031,6.14063 L35.2969,7.15625 L35.3438,7.15625 C35.4896,6.83333 35.7188,6.5651 36.0313,6.35156 C36.3438,6.13802 36.7344,6.03125 37.2031,6.03125 M42.9688,6.03125 C43.4375,6.03125 43.8333,6.14844 44.1563,6.38281 C44.4792,6.61719 44.7214,6.9349 44.8828,7.33594 C45.0443,7.73698 45.125,8.19792 45.125,8.71875 L45.125,9.15625 L41.2031,9.15625 C41.2135,9.92708 41.3854,10.5208 41.7188,10.9375 C42.0521,11.3542 42.526,11.5625 43.1406,11.5625 C43.4948,11.5625 43.7969,11.5313 44.0469,11.4688 C44.2969,11.4063 44.5781,11.3021 44.8906,11.1563 L44.8906,11.7344 C44.6198,11.8698 44.349,11.9661 44.0781,12.0234 C43.8073,12.0807 43.4896,12.1094 43.125,12.1094 C42.3021,12.1094 41.6667,11.8411 41.2188,11.3047 C40.7708,10.7682 40.5469,10.0417 40.5469,9.125 C40.5469,8.52083 40.6432,7.98958 40.8359,7.53125 C41.0286,7.07292 41.3047,6.70833 41.6641,6.4375 C42.0234,6.16667 42.4583,6.03125 42.9688,6.03125 M42.9688,6.5625 C42.4688,6.5625 42.0651,6.74219 41.7578,7.10156 C41.4505,7.46094 41.2708,7.97396 41.2188,8.64063 L44.4688,8.64063 C44.4688,8.01563 44.3464,7.51302 44.1016,7.13281 C43.8568,6.7526 43.4792,6.5625 42.9688,6.5625 M49.7031,8.1875 C49.6406,7.94792 49.5781,7.71875 49.5156,7.5 C49.4531,7.28125 49.4063,7.07813 49.375,6.89063 L49.3281,6.89063 C49.2865,7.07813 49.237,7.28385 49.1797,7.50781 C49.1224,7.73177 49.0625,7.96354 49,8.20313 L47.8438,12 L47.1719,12 L45.625,6.14063 L46.2813,6.14063 L47.2031,9.75 C47.2865,10.0833 47.3542,10.3724 47.4063,10.6172 C47.4583,10.862 47.5,11.0833 47.5313,11.2813 L47.5625,11.2813 C47.6042,11.1042 47.6536,10.8932 47.7109,10.6484 C47.7682,10.4036 47.8385,10.1354 47.9219,9.84375 L49.0313,6.14063 L49.7031,6.14063 L50.7656,9.84375 C50.8385,10.1042 50.9089,10.3594 50.9766,10.6094 C51.0443,10.8594 51.0938,11.0781 51.125,11.2656 L51.1563,11.2656 C51.1771,11.0885 51.2161,10.875 51.2734,10.625 C51.3307,10.375 51.401,10.0833 51.4844,9.75 L52.375,6.14063 L53.0156,6.14063 L51.5,12 L50.8125,12 L49.7031,8.1875 M57.5156,10.4531 C57.5156,10.974 57.3281,11.3802 56.9531,11.6719 C56.5781,11.9635 56.0521,12.1094 55.375,12.1094 C54.9896,12.1094 54.6484,12.0755 54.3516,12.0078 C54.0547,11.9401 53.8021,11.849 53.5938,11.7344 L53.5938,11.125 C53.8438,11.2604 54.1224,11.3698 54.4297,11.4531 C54.737,11.5365 55.0521,11.5781 55.375,11.5781 C55.9167,11.5781 56.3073,11.4818 56.5469,11.2891 C56.7865,11.0964 56.9063,10.8333 56.9063,10.5 C56.9063,10.1771 56.7786,9.92708 56.5234,9.75 C56.2682,9.57292 55.8906,9.39583 55.3906,9.21875 C55.0573,9.09375 54.7604,8.96615 54.5,8.83594 C54.2396,8.70573 54.0365,8.54167 53.8906,8.34375 C53.7448,8.14583 53.6719,7.875 53.6719,7.53125 C53.6719,7.0625 53.8542,6.69531 54.2188,6.42969 C54.5833,6.16406 55.0677,6.03125 55.6719,6.03125 C55.9948,6.03125 56.3021,6.0651 56.5938,6.13281 C56.8854,6.20052 57.151,6.29167 57.3906,6.40625 L57.1719,6.92188 C56.9531,6.82813 56.7109,6.74479 56.4453,6.67188 C56.1797,6.59896 55.9115,6.5625 55.6406,6.5625 C55.2135,6.5625 54.8828,6.64323 54.6484,6.80469 C54.4141,6.96615 54.2969,7.20313 54.2969,7.51563 C54.2969,7.74479 54.3516,7.92708 54.4609,8.0625 C54.5703,8.19792 54.737,8.3151 54.9609,8.41406 C55.1849,8.51302 55.4531,8.61979 55.7656,8.73438 C56.099,8.85938 56.3958,8.98698 56.6563,9.11719 C56.9167,9.2474 57.125,9.41667 57.2813,9.625 C57.4375,9.83333 57.5156,10.1094 57.5156,10.4531 M62.3281,13.4844 L57.9688,13.4844 L57.9688,12.9844 L62.3281,12.9844 L62.3281,13.4844 M66.6875,10.4531 C66.6875,10.974 66.5,11.3802 66.125,11.6719 C65.75,11.9635 65.224,12.1094 64.5469,12.1094 C64.1615,12.1094 63.8203,12.0755 63.5234,12.0078 C63.2266,11.9401 62.974,11.849 62.7656,11.7344 L62.7656,11.125 C63.0156,11.2604 63.2943,11.3698 63.6016,11.4531 C63.9089,11.5365 64.224,11.5781 64.5469,11.5781 C65.0885,11.5781 65.4792,11.4818 65.7188,11.2891 C65.9583,11.0964 66.0781,10.8333 66.0781,10.5 C66.0781,10.1771 65.9505,9.92708 65.6953,9.75 C65.4401,9.57292 65.0625,9.39583 64.5625,9.21875 C64.2292,9.09375 63.9323,8.96615 63.6719,8.83594 C63.4115,8.70573 63.2083,8.54167 63.0625,8.34375 C62.9167,8.14583 62.8438,7.875 62.8438,7.53125 C62.8438,7.0625 63.026,6.69531 63.3906,6.42969 C63.7552,6.16406 64.2396,6.03125 64.8438,6.03125 C65.1667,6.03125 65.474,6.0651 65.7656,6.13281 C66.0573,6.20052 66.3229,6.29167 66.5625,6.40625 L66.3438,6.92188 C66.125,6.82813 65.8828,6.74479 65.6172,6.67188 C65.3516,6.59896 65.0833,6.5625 64.8125,6.5625 C64.3854,6.5625 64.0547,6.64323 63.8203,6.80469 C63.5859,6.96615 63.4688,7.20313 63.4688,7.51563 C63.4688,7.74479 63.5234,7.92708 63.6328,8.0625 C63.7422,8.19792 63.9089,8.3151 64.1328,8.41406 C64.3568,8.51302 64.625,8.61979 64.9375,8.73438 C65.2708,8.85938 65.5677,8.98698 65.8281,9.11719 C66.0885,9.2474 66.2969,9.41667 66.4531,9.625 C66.6094,9.83333 66.6875,10.1094 66.6875,10.4531 M69.6563,11.5781 C69.8125,11.5781 69.9583,11.5651 70.0938,11.5391 C70.2292,11.513 70.349,11.4792 70.4531,11.4375 L70.4531,11.9375 C70.349,11.9896 70.2188,12.0313 70.0625,12.0625 C69.9063,12.0938 69.7396,12.1094 69.5625,12.1094 C69.1042,12.1094 68.7474,11.974 68.4922,11.7031 C68.237,11.4323 68.1094,10.9896 68.1094,10.375 L68.1094,6.65625 L67.2969,6.65625 L67.2969,6.29688 L68.1094,6.09375 L68.3281,4.75 L68.7344,4.75 L68.7344,6.14063 L70.4219,6.14063 L70.4219,6.65625 L68.7344,6.65625 L68.7344,10.3438 C68.7344,11.1667 69.0417,11.5781 69.6563,11.5781 M73.5938,6.04688 C74.2188,6.04688 74.6849,6.20833 74.9922,6.53125 C75.2995,6.85417 75.4531,7.36458 75.4531,8.0625 L75.4531,12 L74.9688,12 L74.8594,11.0156 L74.8281,11.0156 C74.6302,11.3385 74.388,11.6016 74.1016,11.8047 C73.8151,12.0078 73.4167,12.1094 72.9063,12.1094 C72.3854,12.1094 71.9714,11.9688 71.6641,11.6875 C71.3568,11.4063 71.2031,11 71.2031,10.4688 C71.2031,9.88542 71.4271,9.44271 71.875,9.14063 C72.3229,8.83854 72.974,8.66667 73.8281,8.625 L74.8281,8.5625 L74.8281,8.15625 C74.8281,7.58333 74.7214,7.17708 74.5078,6.9375 C74.2943,6.69792 73.9792,6.57813 73.5625,6.57813 C73.2813,6.57813 73.0104,6.61719 72.75,6.69531 C72.4896,6.77344 72.2292,6.88021 71.9688,7.01563 L71.7656,6.51563 C72.026,6.38021 72.3099,6.26823 72.6172,6.17969 C72.9245,6.09115 73.25,6.04688 73.5938,6.04688 M73.9063,9.07813 C73.2188,9.11979 72.7057,9.2526 72.3672,9.47656 C72.0286,9.70052 71.8594,10.0313 71.8594,10.4688 C71.8594,10.8333 71.9635,11.1094 72.1719,11.2969 C72.3802,11.4844 72.6667,11.5781 73.0313,11.5781 C73.5938,11.5781 74.0339,11.4036 74.3516,11.0547 C74.6693,10.7057 74.8281,10.224 74.8281,9.60938 L74.8281,9.04688 L73.9063,9.07813 M78.7813,11.5781 C78.9375,11.5781 79.0833,11.5651 79.2188,11.5391 C79.3542,11.513 79.474,11.4792 79.5781,11.4375 L79.5781,11.9375 C79.474,11.9896 79.3438,12.0313 79.1875,12.0625 C79.0313,12.0938 78.8646,12.1094 78.6875,12.1094 C78.2292,12.1094 77.8724,11.974 77.6172,11.7031 C77.362,11.4323 77.2344,10.9896 77.2344,10.375 L77.2344,6.65625 L76.4219,6.65625 L76.4219,6.29688 L77.2344,6.09375 L77.4531,4.75 L77.8594,4.75 L77.8594,6.14063 L79.5469,6.14063 L79.5469,6.65625 L77.8594,6.65625 L77.8594,10.3438 C77.8594,11.1667 78.1667,11.5781 78.7813,11.5781 M81.0625,3.98438 C81.3438,3.98438 81.4844,4.14063 81.4844,4.45313 C81.4844,4.77604 81.3438,4.9375 81.0625,4.9375 C80.7813,4.9375 80.6406,4.77604 80.6406,4.45313 C80.6406,4.14063 80.7813,3.98438 81.0625,3.98438 M81.375,6.14063 L81.375,12 L80.75,12 L80.75,6.14063 L81.375,6.14063 M87.7969,9.0625 C87.7969,9.67708 87.7005,10.2109 87.5078,10.6641 C87.3151,11.1172 87.0339,11.4714 86.6641,11.7266 C86.2943,11.9818 85.8385,12.1094 85.2969,12.1094 C84.7969,12.1094 84.362,11.9844 83.9922,11.7344 C83.6224,11.4844 83.3385,11.1302 83.1406,10.6719 C82.9427,10.2135 82.8438,9.67708 82.8438,9.0625 C82.8438,8.11458 83.0677,7.3724 83.5156,6.83594 C83.9635,6.29948 84.5781,6.03125 85.3594,6.03125 C85.8802,6.03125 86.3229,6.15885 86.6875,6.41406 C87.0521,6.66927 87.3281,7.02344 87.5156,7.47656 C87.7031,7.92969 87.7969,8.45833 87.7969,9.0625 M83.5,9.0625 C83.5,9.82292 83.6484,10.4323 83.9453,10.8906 C84.2422,11.349 84.6979,11.5781 85.3125,11.5781 C85.9479,11.5781 86.4141,11.3464 86.7109,10.8828 C87.0078,10.4193 87.1563,9.8125 87.1563,9.0625 C87.1563,8.58333 87.0938,8.15625 86.9688,7.78125 C86.8438,7.40625 86.6484,7.11198 86.3828,6.89844 C86.1172,6.6849 85.7708,6.57813 85.3438,6.57813 C84.7292,6.57813 84.2682,6.79688 83.9609,7.23438 C83.6536,7.67188 83.5,8.28125 83.5,9.0625 M91.7813,6.03125 C92.3958,6.03125 92.8698,6.20573 93.2031,6.55469 C93.5365,6.90365 93.7031,7.44271 93.7031,8.17188 L93.7031,12 L93.0781,12 L93.0781,8.21875 C93.0781,7.65625 92.9609,7.24219 92.7266,6.97656 C92.4922,6.71094 92.1458,6.57813 91.6875,6.57813 C90.5,6.57813 89.9063,7.32292 89.9063,8.8125 L89.9063,12 L89.2813,12 L89.2813,6.14063 L89.7813,6.14063 L89.875,7.15625 L89.9219,7.15625 C90.0677,6.83333 90.2969,6.5651 90.6094,6.35156 C90.9219,6.13802 91.3125,6.03125 91.7813,6.03125 "/>
</g>

<g fill="none" stroke="#000000" stroke-opacity="1" stroke-width="1" stroke-linecap="square" stroke-linejoin="bevel" transform="matrix(1.99911,0,0,1.99911,83.6019,19.9911)"
font-family="sans" font-size="11" font-weight="100" font-style="normal" 
>
</g>

<g fill="none" stroke="#000000" stroke-opacity="1" stroke-width="1" stroke-linecap="square" stroke-linejoin="bevel" transform="matrix(1.99911,0,0,1.99911,83.6019,19.9911)"
font-family="Ubuntu" font-size="13" font-weight="400" font-style="normal" 
>
</g>

<g fill="none" stroke="#000000" stroke-opacity="1" stroke-width="1" stroke-linecap="square" stroke-linejoin="bevel" transform="matrix(1.99911,0,0,1.99911,14.3936,71.968)"
font-family="Ubuntu" font-size="13" font-weight="400" font-style="normal" 
>
</g>

<g fill="none" stroke="#000000" stroke-opacity="1" stroke-width="1" stroke-linecap="square" stroke-linejoin="bevel" transform="matrix(1.99911,0,0,1.99911,14.3936,71.968)"
font-family="Ubuntu" font-size="13" font-weight="400" font-style="normal" 
>
</g>

<g fill="none" stroke="#000000" stroke-opacity="1" stroke-width="1" stroke-linecap="square" stroke-linejoin="bevel" transform="matrix(1.99911,0,0,1.99911,14.3936,71.968)"
font-family="Ubuntu" font-size="13" font-weight="400" font-style="normal" 
>
</g>

<g fill="none" stroke="#000000" stroke-opacity="1" stroke-width="1" stroke-linecap="square" stroke-linejoin="round" transform="matrix(1.99911,0,0,1.99911,14.3936,71.968)"
font-family="Ubuntu" font-size="13" font-weight="400" font-style="normal" 
>
<ellipse cx="0" cy="0" rx="6.7" ry="35.5"/>
</g>

<g fill="none" stroke="#000000" stroke-opacity="1" stroke-width="1" stroke-linecap="square" stroke-linejoin="bevel" transform="matrix(1.99911,0,0,1.99911,14.3936,71.968)"
font-family="Ubuntu" font-size="13" font-weight="400" font-style="normal" 
>
</g>

<g fill="none" stroke="#000000" stroke-opacity="1" stroke-width="1" stroke-linecap="square" stroke-linejoin="bevel" transform="matrix(1.99911,0,0,1.99911,14.3936,39.9822)"
font-family="Ubuntu" font-size="13" font-weight="400" font-style="normal" 
>
</g>

<g fill="none" stroke="#000000" stroke-opacity="1" stroke-width="1" stroke-linecap="square" stroke-linejoin="bevel" transform="matrix(1.99911,0,0,1.99911,14.3936,39.9822)"
font-family="Ubuntu" font-size="13" font-weight="400" font-style="normal" 
>
</g>

<g fill="none" stroke="#000000" stroke-opacity="1" stroke-width="1" stroke-linecap="square" stroke-linejoin="bevel" transform="matrix(1.99911,0,0,1.99911,14.3936,71.968)"
font-family="Ubuntu" font-size="13" font-weight="400" font-style="normal" 
>
</g>

<g fill="none" stroke="#000000" stroke-opacity="1" stroke-width="1" stroke-linecap="square" stroke-linejoin="bevel" transform="matrix(1.99911,0,0,1.99911,14.3936,71.968)"
font-family="Ubuntu" font-size="13" font-weight="400" font-style="normal" 
>
</g>

<g fill="none" stroke="#000000" stroke-opacity="1" stroke-width="1" stroke-linecap="square" stroke-linejoin="bevel" transform="matrix(1.99911,0,0,1.99911,14.3936,71.968)"
font-family="Ubuntu" font-size="13" font-weight="400" font-style="normal" 
>
</g>

<g fill="none" stroke="#000000" stroke-opacity="1" stroke-width="1" stroke-linecap="square" stroke-linejoin="round" transform="matrix(1.99911,0,0,1.99911,14.3936,71.968)"
font-family="Ubuntu" font-size="13" font-weight="400" font-style="normal" 
>
<path vector-effect="none" fill-rule="evenodd" d="M261.15,-18 C261.82,-18 262.5,-18 263.18,-18 "/>
</g>

<g fill="none" stroke="#000000" stroke-opacity="1" stroke-width="1" stroke-linecap="square" stroke-linejoin="bevel" transform="matrix(1.99911,0,0,1.99911,14.3936,71.968)"
font-family="Ubuntu" font-size="13" font-weight="400" font-style="normal" 
>
</g>

<g fill="none" stroke="#000000" stroke-opacity="1" stroke-width="1" stroke-linecap="square" stroke-linejoin="bevel" transform="matrix(1.99911,0,0,1.99911,14.3936,71.968)"
font-family="Ubuntu" font-size="13" font-weight="400" font-style="normal" 
>
</g>

<g fill="#000000" fill-opacity="1" stroke="#000000" stroke-opacity="1" stroke-width="1" stroke-linecap="square" stroke-linejoin="round" transform="matrix(1.99911,0,0,1.99911,14.3936,71.968)"
font-family="Ubuntu" font-size="13" font-weight="400" font-style="normal" 
>
<path vector-effect="none" fill-rule="evenodd" d="M263.18,-18 L263.18,-14.108 L274.3,-18 L263.18,-21.892 L263.18,-18"/>
</g>

<g fill="none" stroke="#000000" stroke-opacity="1" stroke-width="1" stroke-linecap="square" stroke-linejoin="bevel" transform="matrix(1.99911,0,0,1.99911,14.3936,71.968)"
font-family="Ubuntu" font-size="13" font-weight="400" font-style="normal" 
>
</g>

<g fill="none" stroke="#000000" stroke-opacity="1" stroke-width="1" stroke-linecap="square" stroke-linejoin="bevel" transform="matrix(1.99911,0,0,1.99911,14.3936,71.968)"
font-family="Ubuntu" font-size="13" font-weight="400" font-style="normal" 
>
</g>

<g fill="none" stroke="#000000" stroke-opacity="1" stroke-width="1" stroke-linecap="square" stroke-linejoin="bevel" transform="matrix(1.99911,0,0,1.99911,14.3936,71.968)"
font-family="Ubuntu" font-size="13" font-weight="400" font-style="normal" 
>
</g>

<g fill="none" stroke="#000000" stroke-opacity="1" stroke-width="1" stroke-linecap="square" stroke-linejoin="bevel" transform="matrix(1.99911,0,0,1.99911,14.3936,71.968)"
font-family="Ubuntu" font-size="13" font-weight="400" font-style="normal" 
>
</g>

<g fill="none" stroke="#000000" stroke-opacity="1" stroke-width="1" stroke-linecap="square" stroke-linejoin="round" transform="matrix(1.99911,0,0,1.99911,14.3936,71.968)"
font-family="Ubuntu" font-size="13" font-weight="400" font-style="normal" 
>
<path vector-effect="none" fill-rule="evenodd" d="M164,-18 C164.72,-18 165.44,-18 166.15,-18 "/>
</g>

<g fill="none" stroke="#000000" stroke-opacity="1" stroke-width="1" stroke-linecap="square" stroke-linejoin="bevel" transform="matrix(1.99911,0,0,1.99911,14.3936,71.968)"
font-family="Ubuntu" font-size="13" font-weight="400" font-style="normal" 
>
</g>

<g fill="none" stroke="#000000" stroke-opacity="1" stroke-width="1" stroke-linecap="square" stroke-linejoin="bevel" transform="matrix(1.99911,0,0,1.99911,14.3936,71.968)"
font-family="Ubuntu" font-size="13" font-weight="400" font-style="normal" 
>
</g>

<g fill="#000000" fill-opacity="1" stroke="#000000" stroke-opacity="1" stroke-width="1" stroke-linecap="square" stroke-linejoin="round" transform="matrix(1.99911,0,0,1.99911,14.3936,71.968)"
font-family="Ubuntu" font-size="13" font-weight="400" font-style="normal" 
>
<path vector-effect="none" fill-rule="evenodd" d="M166.15,-18 L166.15,-14.0275 L177.5,-18 L166.15,-21.9725 L166.15,-18"/>
</g>

<g fill="none" stroke="#000000" stroke-opacity="1" stroke-width="1" stroke-linecap="square" stroke-linejoin="bevel" transform="matrix(1.99911,0,0,1.99911,14.3936,71.968)"
font-family="Ubuntu" font-size="13" font-weight="400" font-style="normal" 
>
</g>

<g fill="none" stroke="#000000" stroke-opacity="1" stroke-width="1" stroke-linecap="square" stroke-linejoin="bevel" transform="matrix(1,0,0,1,0,0)"
font-family="Ubuntu" font-size="13" font-weight="400" font-style="normal" 
>
</g>
</g>
</svg>
