<?xml version="1.0" encoding="UTF-8" standalone="no"?>
<svg width="53.975mm" height="25.4mm"
 xmlns="http://www.w3.org/2000/svg" xmlns:xlink="http://www.w3.org/1999/xlink"  version="1.2" baseProfile="tiny">
<title>Qt SVG Document</title>
<desc>Generated with Qt</desc>
<defs>
</defs>
<g fill="none" stroke="black" stroke-width="1" fill-rule="evenodd" stroke-linecap="square" stroke-linejoin="bevel" >

<g fill="none" stroke="#000000" stroke-opacity="1" stroke-width="1" stroke-linecap="square" stroke-linejoin="bevel" transform="matrix(1,0,0,1,0,0)"
font-family="Ubuntu" font-size="13" font-weight="400" font-style="normal" 
>
</g>

<g fill="none" stroke="#000000" stroke-opacity="1" stroke-width="1" stroke-linecap="square" stroke-linejoin="bevel" transform="matrix(1,0,0,1,0,0)"
font-family="Ubuntu" font-size="13" font-weight="400" font-style="normal" 
>
</g>

<g fill="none" stroke="#000000" stroke-opacity="1" stroke-width="1" stroke-linecap="square" stroke-linejoin="bevel" transform="matrix(1.99493,0,0,1.99493,0.000398986,71.8175)"
font-family="Ubuntu" font-size="13" font-weight="400" font-style="normal" 
>
</g>

<g fill="#ffffff" fill-opacity="1" stroke="none" transform="matrix(1.99493,0,0,1.99493,0.000398986,71.8175)"
font-family="Ubuntu" font-size="13" font-weight="400" font-style="normal" 
>
<rect x="-0.0002" y="-36" width="76.6944" height="36"/>
</g>

<g fill="none" stroke="#000000" stroke-opacity="1" stroke-width="1" stroke-linecap="square" stroke-linejoin="bevel" transform="matrix(1.99493,0,0,1.99493,0.000398986,71.8175)"
font-family="Ubuntu" font-size="13" font-weight="400" font-style="normal" 
>
</g>

<g fill="none" stroke="#000000" stroke-opacity="1" stroke-width="1" stroke-linecap="square" stroke-linejoin="bevel" transform="matrix(1.99493,0,0,1.99493,0.000398986,71.8175)"
font-family="Ubuntu" font-size="13" font-weight="400" font-style="normal" 
>
</g>

<g fill="none" stroke="#000000" stroke-opacity="1" stroke-width="1" stroke-linecap="square" stroke-linejoin="bevel" transform="matrix(1.99493,0,0,1.99493,0.000398986,71.8175)"
font-family="Ubuntu" font-size="13" font-weight="400" font-style="normal" 
>
</g>

<g fill="none" stroke="#000000" stroke-opacity="1" stroke-width="1" stroke-linecap="square" stroke-linejoin="bevel" transform="matrix(1.99493,0,0,1.99493,0.000398986,71.8175)"
font-family="Ubuntu" font-size="13" font-weight="400" font-style="normal" 
>
</g>

<g fill="none" stroke="#000000" stroke-opacity="1" stroke-width="1" stroke-linecap="square" stroke-linejoin="round" transform="matrix(1.99493,0,0,1.99493,0.000398986,71.8175)"
font-family="Ubuntu" font-size="13" font-weight="400" font-style="normal" 
>
<ellipse cx="38.347" cy="-18" rx="37.8472" ry="17.5"/>
</g>

<g fill="none" stroke="#000000" stroke-opacity="1" stroke-width="1" stroke-linecap="square" stroke-linejoin="bevel" transform="matrix(1.99493,0,0,1.99493,0.000398986,71.8175)"
font-family="Ubuntu" font-size="13" font-weight="400" font-style="normal" 
>
</g>

<g fill="none" stroke="#000000" stroke-opacity="1" stroke-width="1" stroke-linecap="square" stroke-linejoin="bevel" transform="matrix(1.99493,0,0,1.99493,40.0769,19.9493)"
font-family="Ubuntu" font-size="13" font-weight="400" font-style="normal" 
>
</g>

<g fill="none" stroke="#000000" stroke-opacity="1" stroke-width="1" stroke-linecap="square" stroke-linejoin="bevel" transform="matrix(1.99493,0,0,1.99493,40.0769,19.9493)"
font-family="sans" font-size="11" font-weight="100" font-style="normal" 
>
</g>

<g fill="#000000" fill-opacity="1" stroke="#000000" stroke-opacity="1" stroke-width="1" stroke-linecap="square" stroke-linejoin="round" transform="matrix(1.99493,0,0,1.99493,40.0769,19.9493)"
font-family="sans" font-size="11" font-weight="100" font-style="normal" 
>
<path vector-effect="none" fill-rule="nonzero" d="M3.5,4.14063 L0.734375,12 L0.125,12 L2.875,4.14063 L3.5,4.14063 M7.01563,6.03125 C7.70313,6.03125 8.2474,6.28646 8.64844,6.79688 C9.04948,7.30729 9.25,8.05729 9.25,9.04688 C9.25,10.0365 9.04427,10.7943 8.63281,11.3203 C8.22135,11.8464 7.66146,12.1094 6.95313,12.1094 C6.47396,12.1094 6.08594,12 5.78906,11.7813 C5.49219,11.5625 5.27604,11.2969 5.14063,10.9844 L5.09375,10.9844 C5.10417,11.1719 5.11458,11.3724 5.125,11.5859 C5.13542,11.7995 5.14063,12 5.14063,12.1875 L5.14063,14.5938 L4.51563,14.5938 L4.51563,6.14063 L5.01563,6.14063 L5.10938,7.23438 L5.14063,7.23438 C5.27604,6.92188 5.49479,6.64323 5.79688,6.39844 C6.09896,6.15365 6.50521,6.03125 7.01563,6.03125 M6.90625,6.57813 C6.30208,6.57813 5.85677,6.78385 5.57031,7.19531 C5.28385,7.60677 5.14063,8.19792 5.14063,8.96875 L5.14063,9.07813 C5.14063,9.91146 5.28125,10.5365 5.5625,10.9531 C5.84375,11.3698 6.28125,11.5781 6.875,11.5781 C7.4375,11.5781 7.86458,11.3516 8.15625,10.8984 C8.44792,10.4453 8.59375,9.82292 8.59375,9.03125 C8.59375,8.25 8.45313,7.64583 8.17188,7.21875 C7.89063,6.79167 7.46875,6.57813 6.90625,6.57813 M9.625,6.14063 L10.2969,6.14063 L11.5781,9.78125 C11.6927,10.1042 11.7917,10.3932 11.875,10.6484 C11.9583,10.9036 12.0208,11.1302 12.0625,11.3281 L12.0938,11.3281 C12.1354,11.1615 12.1979,10.9427 12.2813,10.6719 C12.3646,10.401 12.4583,10.1094 12.5625,9.79688 L13.8281,6.14063 L14.5156,6.14063 L12.0469,13.0313 C11.8594,13.5521 11.6328,13.9531 11.3672,14.2344 C11.1016,14.5156 10.75,14.6563 10.3125,14.6563 C10.1771,14.6563 10.0547,14.6484 9.94531,14.6328 C9.83594,14.6172 9.73958,14.5885 9.65625,14.5469 L9.65625,14.0313 C9.73958,14.0521 9.82813,14.0729 9.92188,14.0938 C10.0156,14.1146 10.1198,14.125 10.2344,14.125 C10.526,14.125 10.7656,14.0286 10.9531,13.8359 C11.1406,13.6432 11.3021,13.349 11.4375,12.9531 L11.7813,11.9844 L9.625,6.14063 M18.8438,13.4844 L14.4844,13.4844 L14.4844,12.9844 L18.8438,12.9844 L18.8438,13.4844 M21.3125,11.5781 C21.4688,11.5781 21.6146,11.5651 21.75,11.5391 C21.8854,11.513 22.0052,11.4792 22.1094,11.4375 L22.1094,11.9375 C22.0052,11.9896 21.875,12.0313 21.7188,12.0625 C21.5625,12.0938 21.3958,12.1094 21.2188,12.1094 C20.7604,12.1094 20.4036,11.974 20.1484,11.7031 C19.8932,11.4323 19.7656,10.9896 19.7656,10.375 L19.7656,6.65625 L18.9531,6.65625 L18.9531,6.29688 L19.7656,6.09375 L19.9844,4.75 L20.3906,4.75 L20.3906,6.14063 L22.0781,6.14063 L22.0781,6.65625 L20.3906,6.65625 L20.3906,10.3438 C20.3906,11.1667 20.6979,11.5781 21.3125,11.5781 M25.375,6.03125 C25.8438,6.03125 26.2396,6.14844 26.5625,6.38281 C26.8854,6.61719 27.1276,6.9349 27.2891,7.33594 C27.4505,7.73698 27.5313,8.19792 27.5313,8.71875 L27.5313,9.15625 L23.6094,9.15625 C23.6198,9.92708 23.7917,10.5208 24.125,10.9375 C24.4583,11.3542 24.9323,11.5625 25.5469,11.5625 C25.901,11.5625 26.2031,11.5313 26.4531,11.4688 C26.7031,11.4063 26.9844,11.3021 27.2969,11.1563 L27.2969,11.7344 C27.026,11.8698 26.7552,11.9661 26.4844,12.0234 C26.2135,12.0807 25.8958,12.1094 25.5313,12.1094 C24.7083,12.1094 24.0729,11.8411 23.625,11.3047 C23.1771,10.7682 22.9531,10.0417 22.9531,9.125 C22.9531,8.52083 23.0495,7.98958 23.2422,7.53125 C23.4349,7.07292 23.7109,6.70833 24.0703,6.4375 C24.4297,6.16667 24.8646,6.03125 25.375,6.03125 M25.375,6.5625 C24.875,6.5625 24.4714,6.74219 24.1641,7.10156 C23.8568,7.46094 23.6771,7.97396 23.625,8.64063 L26.875,8.64063 C26.875,8.01563 26.7526,7.51302 26.5078,7.13281 C26.263,6.7526 25.8854,6.5625 25.375,6.5625 M32.4844,10.4531 C32.4844,10.974 32.2969,11.3802 31.9219,11.6719 C31.5469,11.9635 31.0208,12.1094 30.3438,12.1094 C29.9583,12.1094 29.6172,12.0755 29.3203,12.0078 C29.0234,11.9401 28.7708,11.849 28.5625,11.7344 L28.5625,11.125 C28.8125,11.2604 29.0911,11.3698 29.3984,11.4531 C29.7057,11.5365 30.0208,11.5781 30.3438,11.5781 C30.8854,11.5781 31.276,11.4818 31.5156,11.2891 C31.7552,11.0964 31.875,10.8333 31.875,10.5 C31.875,10.1771 31.7474,9.92708 31.4922,9.75 C31.237,9.57292 30.8594,9.39583 30.3594,9.21875 C30.026,9.09375 29.7292,8.96615 29.4688,8.83594 C29.2083,8.70573 29.0052,8.54167 28.8594,8.34375 C28.7135,8.14583 28.6406,7.875 28.6406,7.53125 C28.6406,7.0625 28.8229,6.69531 29.1875,6.42969 C29.5521,6.16406 30.0365,6.03125 30.6406,6.03125 C30.9635,6.03125 31.2708,6.0651 31.5625,6.13281 C31.8542,6.20052 32.1198,6.29167 32.3594,6.40625 L32.1406,6.92188 C31.9219,6.82813 31.6797,6.74479 31.4141,6.67188 C31.1484,6.59896 30.8802,6.5625 30.6094,6.5625 C30.1823,6.5625 29.8516,6.64323 29.6172,6.80469 C29.3828,6.96615 29.2656,7.20313 29.2656,7.51563 C29.2656,7.74479 29.3203,7.92708 29.4297,8.0625 C29.5391,8.19792 29.7057,8.3151 29.9297,8.41406 C30.1536,8.51302 30.4219,8.61979 30.7344,8.73438 C31.0677,8.85938 31.3646,8.98698 31.625,9.11719 C31.8854,9.2474 32.0938,9.41667 32.25,9.625 C32.4063,9.83333 32.4844,10.1094 32.4844,10.4531 M35.4531,11.5781 C35.6094,11.5781 35.7552,11.5651 35.8906,11.5391 C36.026,11.513 36.1458,11.4792 36.25,11.4375 L36.25,11.9375 C36.1458,11.9896 36.0156,12.0313 35.8594,12.0625 C35.7031,12.0938 35.5365,12.1094 35.3594,12.1094 C34.901,12.1094 34.5443,11.974 34.2891,11.7031 C34.0339,11.4323 33.9063,10.9896 33.9063,10.375 L33.9063,6.65625 L33.0938,6.65625 L33.0938,6.29688 L33.9063,6.09375 L34.125,4.75 L34.5313,4.75 L34.5313,6.14063 L36.2188,6.14063 L36.2188,6.65625 L34.5313,6.65625 L34.5313,10.3438 C34.5313,11.1667 34.8385,11.5781 35.4531,11.5781 "/>
</g>

<g fill="none" stroke="#000000" stroke-opacity="1" stroke-width="1" stroke-linecap="square" stroke-linejoin="bevel" transform="matrix(1.99493,0,0,1.99493,40.0769,19.9493)"
font-family="sans" font-size="11" font-weight="100" font-style="normal" 
>
</g>

<g fill="none" stroke="#000000" stroke-opacity="1" stroke-width="1" stroke-linecap="square" stroke-linejoin="bevel" transform="matrix(1.99493,0,0,1.99493,40.0769,19.9493)"
font-family="Ubuntu" font-size="13" font-weight="400" font-style="normal" 
>
</g>

<g fill="none" stroke="#000000" stroke-opacity="1" stroke-width="1" stroke-linecap="square" stroke-linejoin="bevel" transform="matrix(1,0,0,1,0,0)"
font-family="Ubuntu" font-size="13" font-weight="400" font-style="normal" 
>
</g>
</g>
</svg>
