<?xml version="1.0" encoding="UTF-8" standalone="no"?>
<svg width="68.7917mm" height="25.4mm"
 xmlns="http://www.w3.org/2000/svg" xmlns:xlink="http://www.w3.org/1999/xlink"  version="1.2" baseProfile="tiny">
<title>Qt SVG Document</title>
<desc>Generated with Qt</desc>
<defs>
</defs>
<g fill="none" stroke="black" stroke-width="1" fill-rule="evenodd" stroke-linecap="square" stroke-linejoin="bevel" >

<g fill="none" stroke="#000000" stroke-opacity="1" stroke-width="1" stroke-linecap="square" stroke-linejoin="bevel" transform="matrix(1,0,0,1,0,0)"
font-family="Ubuntu" font-size="13" font-weight="400" font-style="normal" 
>
</g>

<g fill="none" stroke="#000000" stroke-opacity="1" stroke-width="1" stroke-linecap="square" stroke-linejoin="bevel" transform="matrix(1,0,0,1,0,0)"
font-family="Ubuntu" font-size="13" font-weight="400" font-style="normal" 
>
</g>

<g fill="none" stroke="#000000" stroke-opacity="1" stroke-width="1" stroke-linecap="square" stroke-linejoin="bevel" transform="matrix(2,0,0,2,-0.004,72)"
font-family="Ubuntu" font-size="13" font-weight="400" font-style="normal" 
>
</g>

<g fill="#ffffff" fill-opacity="1" stroke="none" transform="matrix(2,0,0,2,-0.004,72)"
font-family="Ubuntu" font-size="13" font-weight="400" font-style="normal" 
>
<rect x="0.002" y="-36" width="97.488" height="36"/>
</g>

<g fill="none" stroke="#000000" stroke-opacity="1" stroke-width="1" stroke-linecap="square" stroke-linejoin="bevel" transform="matrix(2,0,0,2,-0.004,72)"
font-family="Ubuntu" font-size="13" font-weight="400" font-style="normal" 
>
</g>

<g fill="none" stroke="#000000" stroke-opacity="1" stroke-width="1" stroke-linecap="square" stroke-linejoin="bevel" transform="matrix(2,0,0,2,-0.004,72)"
font-family="Ubuntu" font-size="13" font-weight="400" font-style="normal" 
>
</g>

<g fill="none" stroke="#000000" stroke-opacity="1" stroke-width="1" stroke-linecap="square" stroke-linejoin="bevel" transform="matrix(2,0,0,2,-0.004,72)"
font-family="Ubuntu" font-size="13" font-weight="400" font-style="normal" 
>
</g>

<g fill="none" stroke="#000000" stroke-opacity="1" stroke-width="1" stroke-linecap="square" stroke-linejoin="bevel" transform="matrix(2,0,0,2,-0.004,72)"
font-family="Ubuntu" font-size="13" font-weight="400" font-style="normal" 
>
</g>

<g fill="none" stroke="#000000" stroke-opacity="1" stroke-width="1" stroke-linecap="square" stroke-linejoin="round" transform="matrix(2,0,0,2,-0.004,72)"
font-family="Ubuntu" font-size="13" font-weight="400" font-style="normal" 
>
<ellipse cx="48.746" cy="-18" rx="48.244" ry="17.5"/>
</g>

<g fill="none" stroke="#000000" stroke-opacity="1" stroke-width="1" stroke-linecap="square" stroke-linejoin="bevel" transform="matrix(2,0,0,2,-0.004,72)"
font-family="Ubuntu" font-size="13" font-weight="400" font-style="normal" 
>
</g>

<g fill="none" stroke="#000000" stroke-opacity="1" stroke-width="1" stroke-linecap="square" stroke-linejoin="bevel" transform="matrix(2,0,0,2,47.1911,20)"
font-family="Ubuntu" font-size="13" font-weight="400" font-style="normal" 
>
</g>

<g fill="none" stroke="#000000" stroke-opacity="1" stroke-width="1" stroke-linecap="square" stroke-linejoin="bevel" transform="matrix(2,0,0,2,47.1911,20)"
font-family="sans" font-size="11" font-weight="100" font-style="normal" 
>
</g>

<g fill="#000000" fill-opacity="1" stroke="#000000" stroke-opacity="1" stroke-width="1" stroke-linecap="square" stroke-linejoin="round" transform="matrix(2,0,0,2,47.1911,20)"
font-family="sans" font-size="11" font-weight="100" font-style="normal" 
>
<path vector-effect="none" fill-rule="nonzero" d="M3.5,4.14063 L0.734375,12 L0.125,12 L2.875,4.14063 L3.5,4.14063 M6.70313,6.65625 L5.39063,6.65625 L5.39063,12 L4.75,12 L4.75,6.65625 L3.75,6.65625 L3.75,6.3125 L4.75,6.125 L4.75,5.54688 C4.75,4.23438 5.30729,3.57813 6.42188,3.57813 C6.61979,3.57813 6.79948,3.59635 6.96094,3.63281 C7.1224,3.66927 7.26563,3.70833 7.39063,3.75 L7.25,4.26563 C7.125,4.22396 6.99219,4.1875 6.85156,4.15625 C6.71094,4.125 6.56771,4.10938 6.42188,4.10938 C6.05729,4.10938 5.79427,4.22396 5.63281,4.45313 C5.47135,4.68229 5.39063,5.04688 5.39063,5.54688 L5.39063,6.14063 L6.70313,6.14063 L6.70313,6.65625 M8.0625,3.98438 C8.34375,3.98438 8.48438,4.14063 8.48438,4.45313 C8.48438,4.77604 8.34375,4.9375 8.0625,4.9375 C7.78125,4.9375 7.64063,4.77604 7.64063,4.45313 C7.64063,4.14063 7.78125,3.98438 8.0625,3.98438 M8.375,6.14063 L8.375,12 L7.75,12 L7.75,6.14063 L8.375,6.14063 M12.4688,6.04688 C12.7396,6.04688 12.9844,6.07813 13.2031,6.14063 L13.1094,6.71875 C12.8906,6.65625 12.6667,6.625 12.4375,6.625 C11.9375,6.625 11.5391,6.82292 11.2422,7.21875 C10.9453,7.61458 10.7969,8.13542 10.7969,8.78125 L10.7969,12 L10.1719,12 L10.1719,6.14063 L10.7031,6.14063 L10.7656,7.23438 L10.7969,7.23438 C10.9323,6.90104 11.1406,6.61979 11.4219,6.39063 C11.7031,6.16146 12.0521,6.04688 12.4688,6.04688 M17.75,10.4531 C17.75,10.974 17.5625,11.3802 17.1875,11.6719 C16.8125,11.9635 16.2865,12.1094 15.6094,12.1094 C15.224,12.1094 14.8828,12.0755 14.5859,12.0078 C14.2891,11.9401 14.0365,11.849 13.8281,11.7344 L13.8281,11.125 C14.0781,11.2604 14.3568,11.3698 14.6641,11.4531 C14.9714,11.5365 15.2865,11.5781 15.6094,11.5781 C16.151,11.5781 16.5417,11.4818 16.7813,11.2891 C17.0208,11.0964 17.1406,10.8333 17.1406,10.5 C17.1406,10.1771 17.013,9.92708 16.7578,9.75 C16.5026,9.57292 16.125,9.39583 15.625,9.21875 C15.2917,9.09375 14.9948,8.96615 14.7344,8.83594 C14.474,8.70573 14.2708,8.54167 14.125,8.34375 C13.9792,8.14583 13.9063,7.875 13.9063,7.53125 C13.9063,7.0625 14.0885,6.69531 14.4531,6.42969 C14.8177,6.16406 15.3021,6.03125 15.9063,6.03125 C16.2292,6.03125 16.5365,6.0651 16.8281,6.13281 C17.1198,6.20052 17.3854,6.29167 17.625,6.40625 L17.4063,6.92188 C17.1875,6.82813 16.9453,6.74479 16.6797,6.67188 C16.4141,6.59896 16.1458,6.5625 15.875,6.5625 C15.4479,6.5625 15.1172,6.64323 14.8828,6.80469 C14.6484,6.96615 14.5313,7.20313 14.5313,7.51563 C14.5313,7.74479 14.5859,7.92708 14.6953,8.0625 C14.8047,8.19792 14.9714,8.3151 15.1953,8.41406 C15.4193,8.51302 15.6875,8.61979 16,8.73438 C16.3333,8.85938 16.6302,8.98698 16.8906,9.11719 C17.151,9.2474 17.3594,9.41667 17.5156,9.625 C17.6719,9.83333 17.75,10.1094 17.75,10.4531 M20.7188,11.5781 C20.875,11.5781 21.0208,11.5651 21.1563,11.5391 C21.2917,11.513 21.4115,11.4792 21.5156,11.4375 L21.5156,11.9375 C21.4115,11.9896 21.2813,12.0313 21.125,12.0625 C20.9688,12.0938 20.8021,12.1094 20.625,12.1094 C20.1667,12.1094 19.8099,11.974 19.5547,11.7031 C19.2995,11.4323 19.1719,10.9896 19.1719,10.375 L19.1719,6.65625 L18.3594,6.65625 L18.3594,6.29688 L19.1719,6.09375 L19.3906,4.75 L19.7969,4.75 L19.7969,6.14063 L21.4844,6.14063 L21.4844,6.65625 L19.7969,6.65625 L19.7969,10.3438 C19.7969,11.1667 20.1042,11.5781 20.7188,11.5781 M26.125,13.4844 L21.7656,13.4844 L21.7656,12.9844 L26.125,12.9844 L26.125,13.4844 M29.5,6.03125 C30.1146,6.03125 30.5885,6.20573 30.9219,6.55469 C31.2552,6.90365 31.4219,7.44271 31.4219,8.17188 L31.4219,12 L30.7969,12 L30.7969,8.21875 C30.7969,7.65625 30.6797,7.24219 30.4453,6.97656 C30.2109,6.71094 29.8646,6.57813 29.4063,6.57813 C28.2188,6.57813 27.625,7.32292 27.625,8.8125 L27.625,12 L27,12 L27,6.14063 L27.5,6.14063 L27.5938,7.15625 L27.6406,7.15625 C27.7865,6.83333 28.0156,6.5651 28.3281,6.35156 C28.6406,6.13802 29.0313,6.03125 29.5,6.03125 M37.7969,9.0625 C37.7969,9.67708 37.7005,10.2109 37.5078,10.6641 C37.3151,11.1172 37.0339,11.4714 36.6641,11.7266 C36.2943,11.9818 35.8385,12.1094 35.2969,12.1094 C34.7969,12.1094 34.362,11.9844 33.9922,11.7344 C33.6224,11.4844 33.3385,11.1302 33.1406,10.6719 C32.9427,10.2135 32.8438,9.67708 32.8438,9.0625 C32.8438,8.11458 33.0677,7.3724 33.5156,6.83594 C33.9635,6.29948 34.5781,6.03125 35.3594,6.03125 C35.8802,6.03125 36.3229,6.15885 36.6875,6.41406 C37.0521,6.66927 37.3281,7.02344 37.5156,7.47656 C37.7031,7.92969 37.7969,8.45833 37.7969,9.0625 M33.5,9.0625 C33.5,9.82292 33.6484,10.4323 33.9453,10.8906 C34.2422,11.349 34.6979,11.5781 35.3125,11.5781 C35.9479,11.5781 36.4141,11.3464 36.7109,10.8828 C37.0078,10.4193 37.1563,9.8125 37.1563,9.0625 C37.1563,8.58333 37.0938,8.15625 36.9688,7.78125 C36.8438,7.40625 36.6484,7.11198 36.3828,6.89844 C36.1172,6.6849 35.7708,6.57813 35.3438,6.57813 C34.7292,6.57813 34.2682,6.79688 33.9609,7.23438 C33.6536,7.67188 33.5,8.28125 33.5,9.0625 M41.25,12.1094 C40.5104,12.1094 39.9427,11.8594 39.5469,11.3594 C39.151,10.8594 38.9531,10.1146 38.9531,9.125 C38.9531,8.125 39.1615,7.35938 39.5781,6.82813 C39.9948,6.29688 40.5677,6.03125 41.2969,6.03125 C41.7552,6.03125 42.1276,6.14063 42.4141,6.35938 C42.7005,6.57813 42.9167,6.83854 43.0625,7.14063 L43.1094,7.14063 C43.099,6.97396 43.0885,6.78646 43.0781,6.57813 C43.0677,6.36979 43.0625,6.17708 43.0625,6 L43.0625,3.64063 L43.6875,3.64063 L43.6875,12 L43.1875,12 L43.0938,10.9844 L43.0625,10.9844 C42.9167,11.2969 42.6979,11.5625 42.4063,11.7813 C42.1146,12 41.7292,12.1094 41.25,12.1094 M41.3438,11.5781 C41.9688,11.5781 42.4141,11.3724 42.6797,10.9609 C42.9453,10.5495 43.0781,9.95313 43.0781,9.17188 L43.0781,9.07813 C43.0781,8.26563 42.9453,7.64583 42.6797,7.21875 C42.4141,6.79167 41.9792,6.57813 41.375,6.57813 C40.8021,6.57813 40.3646,6.79948 40.0625,7.24219 C39.7604,7.6849 39.6094,8.31771 39.6094,9.14063 C39.6094,9.93229 39.7526,10.5365 40.0391,10.9531 C40.3255,11.3698 40.7604,11.5781 41.3438,11.5781 M47.5781,6.03125 C48.0469,6.03125 48.4427,6.14844 48.7656,6.38281 C49.0885,6.61719 49.3307,6.9349 49.4922,7.33594 C49.6536,7.73698 49.7344,8.19792 49.7344,8.71875 L49.7344,9.15625 L45.8125,9.15625 C45.8229,9.92708 45.9948,10.5208 46.3281,10.9375 C46.6615,11.3542 47.1354,11.5625 47.75,11.5625 C48.1042,11.5625 48.4063,11.5313 48.6563,11.4688 C48.9063,11.4063 49.1875,11.3021 49.5,11.1563 L49.5,11.7344 C49.2292,11.8698 48.9583,11.9661 48.6875,12.0234 C48.4167,12.0807 48.099,12.1094 47.7344,12.1094 C46.9115,12.1094 46.276,11.8411 45.8281,11.3047 C45.3802,10.7682 45.1563,10.0417 45.1563,9.125 C45.1563,8.52083 45.2526,7.98958 45.4453,7.53125 C45.638,7.07292 45.9141,6.70833 46.2734,6.4375 C46.6328,6.16667 47.0677,6.03125 47.5781,6.03125 M47.5781,6.5625 C47.0781,6.5625 46.6745,6.74219 46.3672,7.10156 C46.0599,7.46094 45.8802,7.97396 45.8281,8.64063 L49.0781,8.64063 C49.0781,8.01563 48.9557,7.51302 48.7109,7.13281 C48.4661,6.7526 48.0885,6.5625 47.5781,6.5625 "/>
</g>

<g fill="none" stroke="#000000" stroke-opacity="1" stroke-width="1" stroke-linecap="square" stroke-linejoin="bevel" transform="matrix(2,0,0,2,47.1911,20)"
font-family="sans" font-size="11" font-weight="100" font-style="normal" 
>
</g>

<g fill="none" stroke="#000000" stroke-opacity="1" stroke-width="1" stroke-linecap="square" stroke-linejoin="bevel" transform="matrix(2,0,0,2,47.1911,20)"
font-family="Ubuntu" font-size="13" font-weight="400" font-style="normal" 
>
</g>

<g fill="none" stroke="#000000" stroke-opacity="1" stroke-width="1" stroke-linecap="square" stroke-linejoin="bevel" transform="matrix(1,0,0,1,0,0)"
font-family="Ubuntu" font-size="13" font-weight="400" font-style="normal" 
>
</g>
</g>
</svg>
