<?xml version="1.0" encoding="UTF-8" standalone="no"?>
<svg width="417.689mm" height="50.8mm"
 xmlns="http://www.w3.org/2000/svg" xmlns:xlink="http://www.w3.org/1999/xlink"  version="1.2" baseProfile="tiny">
<title>Qt SVG Document</title>
<desc>Generated with Qt</desc>
<defs>
</defs>
<g fill="none" stroke="black" stroke-width="1" fill-rule="evenodd" stroke-linecap="square" stroke-linejoin="bevel" >

<g fill="none" stroke="#000000" stroke-opacity="1" stroke-width="1" stroke-linecap="square" stroke-linejoin="bevel" transform="matrix(1,0,0,1,0,0)"
font-family="Ubuntu" font-size="13" font-weight="400" font-style="normal" 
>
</g>

<g fill="none" stroke="#000000" stroke-opacity="1" stroke-width="1" stroke-linecap="square" stroke-linejoin="bevel" transform="matrix(1,0,0,1,0,0)"
font-family="Ubuntu" font-size="13" font-weight="400" font-style="normal" 
>
</g>

<g fill="none" stroke="#000000" stroke-opacity="1" stroke-width="1" stroke-linecap="square" stroke-linejoin="bevel" transform="matrix(1.99941,0,0,1.99941,14.3957,71.9787)"
font-family="Ubuntu" font-size="13" font-weight="400" font-style="normal" 
>
</g>

<g fill="#ffffff" fill-opacity="1" stroke="none" transform="matrix(1.99941,0,0,1.99941,14.3957,71.9787)"
font-family="Ubuntu" font-size="13" font-weight="400" font-style="normal" 
>
<rect x="-7.2" y="-36" width="592.175" height="72"/>
</g>

<g fill="none" stroke="#000000" stroke-opacity="1" stroke-width="1" stroke-linecap="square" stroke-linejoin="bevel" transform="matrix(1.99941,0,0,1.99941,14.3957,71.9787)"
font-family="Ubuntu" font-size="13" font-weight="400" font-style="normal" 
>
</g>

<g fill="none" stroke="#000000" stroke-opacity="1" stroke-width="1" stroke-linecap="square" stroke-linejoin="bevel" transform="matrix(1.99941,0,0,1.99941,14.3957,71.9787)"
font-family="Ubuntu" font-size="13" font-weight="400" font-style="normal" 
>
</g>

<g fill="none" stroke="#000000" stroke-opacity="1" stroke-width="1" stroke-linecap="square" stroke-linejoin="bevel" transform="matrix(1.99941,0,0,1.99941,14.3957,71.9787)"
font-family="Ubuntu" font-size="13" font-weight="400" font-style="normal" 
>
</g>

<g fill="none" stroke="#000000" stroke-opacity="1" stroke-width="1" stroke-linecap="square" stroke-linejoin="bevel" transform="matrix(1.99941,0,0,1.99941,14.3957,71.9787)"
font-family="Ubuntu" font-size="13" font-weight="400" font-style="normal" 
>
</g>

<g fill="none" stroke="#000000" stroke-opacity="1" stroke-width="1" stroke-linecap="square" stroke-linejoin="round" transform="matrix(1.99941,0,0,1.99941,14.3957,71.9787)"
font-family="Ubuntu" font-size="13" font-weight="400" font-style="normal" 
>
<rect x="348.379" y="-35.5" width="83.0024" height="35"/>
</g>

<g fill="none" stroke="#000000" stroke-opacity="1" stroke-width="1" stroke-linecap="square" stroke-linejoin="bevel" transform="matrix(1.99941,0,0,1.99941,14.3957,71.9787)"
font-family="Ubuntu" font-size="13" font-weight="400" font-style="normal" 
>
</g>

<g fill="none" stroke="#000000" stroke-opacity="1" stroke-width="1" stroke-linecap="square" stroke-linejoin="bevel" transform="matrix(1.99941,0,0,1.99941,732.397,19.9941)"
font-family="Ubuntu" font-size="13" font-weight="400" font-style="normal" 
>
</g>

<g fill="none" stroke="#000000" stroke-opacity="1" stroke-width="1" stroke-linecap="square" stroke-linejoin="bevel" transform="matrix(1.99941,0,0,1.99941,732.397,19.9941)"
font-family="sans" font-size="11" font-weight="100" font-style="normal" 
>
</g>

<g fill="#000000" fill-opacity="1" stroke="#000000" stroke-opacity="1" stroke-width="1" stroke-linecap="square" stroke-linejoin="round" transform="matrix(1.99941,0,0,1.99941,732.397,19.9941)"
font-family="sans" font-size="11" font-weight="100" font-style="normal" 
>
<path vector-effect="none" fill-rule="nonzero" d="M3.5,4.14063 L0.734375,12 L0.125,12 L2.875,4.14063 L3.5,4.14063 M6.10938,11.5781 C6.26563,11.5781 6.41146,11.5651 6.54688,11.5391 C6.68229,11.513 6.80208,11.4792 6.90625,11.4375 L6.90625,11.9375 C6.80208,11.9896 6.67188,12.0313 6.51563,12.0625 C6.35938,12.0938 6.19271,12.1094 6.01563,12.1094 C5.55729,12.1094 5.20052,11.974 4.94531,11.7031 C4.6901,11.4323 4.5625,10.9896 4.5625,10.375 L4.5625,6.65625 L3.75,6.65625 L3.75,6.29688 L4.5625,6.09375 L4.78125,4.75 L5.1875,4.75 L5.1875,6.14063 L6.875,6.14063 L6.875,6.65625 L5.1875,6.65625 L5.1875,10.3438 C5.1875,11.1667 5.49479,11.5781 6.10938,11.5781 M12.4375,6.14063 L12.4375,12 L11.9375,12 L11.8438,11 L11.8125,11 C11.6563,11.3229 11.4219,11.5885 11.1094,11.7969 C10.7969,12.0052 10.4063,12.1094 9.9375,12.1094 C8.65625,12.1094 8.01563,11.3958 8.01563,9.96875 L8.01563,6.14063 L8.64063,6.14063 L8.64063,9.92188 C8.64063,10.4844 8.75781,10.901 8.99219,11.1719 C9.22656,11.4427 9.57292,11.5781 10.0313,11.5781 C11.2188,11.5781 11.8125,10.8333 11.8125,9.34375 L11.8125,6.14063 L12.4375,6.14063 M16.5469,6.04688 C16.8177,6.04688 17.0625,6.07813 17.2813,6.14063 L17.1875,6.71875 C16.9688,6.65625 16.7448,6.625 16.5156,6.625 C16.0156,6.625 15.6172,6.82292 15.3203,7.21875 C15.0234,7.61458 14.875,8.13542 14.875,8.78125 L14.875,12 L14.25,12 L14.25,6.14063 L14.7813,6.14063 L14.8438,7.23438 L14.875,7.23438 C15.0104,6.90104 15.2188,6.61979 15.5,6.39063 C15.7813,6.16146 16.1302,6.04688 16.5469,6.04688 M19.9375,11.5781 C20.0938,11.5781 20.2396,11.5651 20.375,11.5391 C20.5104,11.513 20.6302,11.4792 20.7344,11.4375 L20.7344,11.9375 C20.6302,11.9896 20.5,12.0313 20.3438,12.0625 C20.1875,12.0938 20.0208,12.1094 19.8438,12.1094 C19.3854,12.1094 19.0286,11.974 18.7734,11.7031 C18.5182,11.4323 18.3906,10.9896 18.3906,10.375 L18.3906,6.65625 L17.5781,6.65625 L17.5781,6.29688 L18.3906,6.09375 L18.6094,4.75 L19.0156,4.75 L19.0156,6.14063 L20.7031,6.14063 L20.7031,6.65625 L19.0156,6.65625 L19.0156,10.3438 C19.0156,11.1667 19.3229,11.5781 19.9375,11.5781 M22.5313,12 L21.9063,12 L21.9063,3.64063 L22.5313,3.64063 L22.5313,12 M26.4219,6.03125 C26.8906,6.03125 27.2865,6.14844 27.6094,6.38281 C27.9323,6.61719 28.1745,6.9349 28.3359,7.33594 C28.4974,7.73698 28.5781,8.19792 28.5781,8.71875 L28.5781,9.15625 L24.6563,9.15625 C24.6667,9.92708 24.8385,10.5208 25.1719,10.9375 C25.5052,11.3542 25.9792,11.5625 26.5938,11.5625 C26.9479,11.5625 27.25,11.5313 27.5,11.4688 C27.75,11.4063 28.0313,11.3021 28.3438,11.1563 L28.3438,11.7344 C28.0729,11.8698 27.8021,11.9661 27.5313,12.0234 C27.2604,12.0807 26.9427,12.1094 26.5781,12.1094 C25.7552,12.1094 25.1198,11.8411 24.6719,11.3047 C24.224,10.7682 24,10.0417 24,9.125 C24,8.52083 24.0964,7.98958 24.2891,7.53125 C24.4818,7.07292 24.7578,6.70833 25.1172,6.4375 C25.4766,6.16667 25.9115,6.03125 26.4219,6.03125 M26.4219,6.5625 C25.9219,6.5625 25.5182,6.74219 25.2109,7.10156 C24.9036,7.46094 24.724,7.97396 24.6719,8.64063 L27.9219,8.64063 C27.9219,8.01563 27.7995,7.51302 27.5547,7.13281 C27.3099,6.7526 26.9323,6.5625 26.4219,6.5625 M32.6563,12 L32.0469,12 L32.0469,6.15625 C32.0469,5.84375 32.0495,5.58594 32.0547,5.38281 C32.0599,5.17969 32.0625,4.98958 32.0625,4.8125 C31.9688,4.90625 31.8776,4.98958 31.7891,5.0625 C31.7005,5.13542 31.5938,5.22917 31.4688,5.34375 L30.4531,6.1875 L30.1094,5.75 L32.1406,4.14063 L32.6563,4.14063 L32.6563,12 M38.5469,4.14063 L35.7813,12 L35.1719,12 L37.9219,4.14063 L38.5469,4.14063 M42.0625,6.03125 C42.75,6.03125 43.2943,6.28646 43.6953,6.79688 C44.0964,7.30729 44.2969,8.05729 44.2969,9.04688 C44.2969,10.0365 44.0911,10.7943 43.6797,11.3203 C43.2682,11.8464 42.7083,12.1094 42,12.1094 C41.5208,12.1094 41.1328,12 40.8359,11.7813 C40.5391,11.5625 40.3229,11.2969 40.1875,10.9844 L40.1406,10.9844 C40.151,11.1719 40.1615,11.3724 40.1719,11.5859 C40.1823,11.7995 40.1875,12 40.1875,12.1875 L40.1875,14.5938 L39.5625,14.5938 L39.5625,6.14063 L40.0625,6.14063 L40.1563,7.23438 L40.1875,7.23438 C40.3229,6.92188 40.5417,6.64323 40.8438,6.39844 C41.1458,6.15365 41.5521,6.03125 42.0625,6.03125 M41.9531,6.57813 C41.349,6.57813 40.9036,6.78385 40.6172,7.19531 C40.3307,7.60677 40.1875,8.19792 40.1875,8.96875 L40.1875,9.07813 C40.1875,9.91146 40.3281,10.5365 40.6094,10.9531 C40.8906,11.3698 41.3281,11.5781 41.9219,11.5781 C42.4844,11.5781 42.9115,11.3516 43.2031,10.8984 C43.4948,10.4453 43.6406,9.82292 43.6406,9.03125 C43.6406,8.25 43.5,7.64583 43.2188,7.21875 C42.9375,6.79167 42.5156,6.57813 41.9531,6.57813 M50.3906,9.0625 C50.3906,9.67708 50.2943,10.2109 50.1016,10.6641 C49.9089,11.1172 49.6276,11.4714 49.2578,11.7266 C48.888,11.9818 48.4323,12.1094 47.8906,12.1094 C47.3906,12.1094 46.9557,11.9844 46.5859,11.7344 C46.2161,11.4844 45.9323,11.1302 45.7344,10.6719 C45.5365,10.2135 45.4375,9.67708 45.4375,9.0625 C45.4375,8.11458 45.6615,7.3724 46.1094,6.83594 C46.5573,6.29948 47.1719,6.03125 47.9531,6.03125 C48.474,6.03125 48.9167,6.15885 49.2813,6.41406 C49.6458,6.66927 49.9219,7.02344 50.1094,7.47656 C50.2969,7.92969 50.3906,8.45833 50.3906,9.0625 M46.0938,9.0625 C46.0938,9.82292 46.2422,10.4323 46.5391,10.8906 C46.8359,11.349 47.2917,11.5781 47.9063,11.5781 C48.5417,11.5781 49.0078,11.3464 49.3047,10.8828 C49.6016,10.4193 49.75,9.8125 49.75,9.0625 C49.75,8.58333 49.6875,8.15625 49.5625,7.78125 C49.4375,7.40625 49.2422,7.11198 48.9766,6.89844 C48.7109,6.6849 48.3646,6.57813 47.9375,6.57813 C47.3229,6.57813 46.862,6.79688 46.5547,7.23438 C46.2474,7.67188 46.0938,8.28125 46.0938,9.0625 M55.3594,10.4531 C55.3594,10.974 55.1719,11.3802 54.7969,11.6719 C54.4219,11.9635 53.8958,12.1094 53.2188,12.1094 C52.8333,12.1094 52.4922,12.0755 52.1953,12.0078 C51.8984,11.9401 51.6458,11.849 51.4375,11.7344 L51.4375,11.125 C51.6875,11.2604 51.9661,11.3698 52.2734,11.4531 C52.5807,11.5365 52.8958,11.5781 53.2188,11.5781 C53.7604,11.5781 54.151,11.4818 54.3906,11.2891 C54.6302,11.0964 54.75,10.8333 54.75,10.5 C54.75,10.1771 54.6224,9.92708 54.3672,9.75 C54.112,9.57292 53.7344,9.39583 53.2344,9.21875 C52.901,9.09375 52.6042,8.96615 52.3438,8.83594 C52.0833,8.70573 51.8802,8.54167 51.7344,8.34375 C51.5885,8.14583 51.5156,7.875 51.5156,7.53125 C51.5156,7.0625 51.6979,6.69531 52.0625,6.42969 C52.4271,6.16406 52.9115,6.03125 53.5156,6.03125 C53.8385,6.03125 54.1458,6.0651 54.4375,6.13281 C54.7292,6.20052 54.9948,6.29167 55.2344,6.40625 L55.0156,6.92188 C54.7969,6.82813 54.5547,6.74479 54.2891,6.67188 C54.0234,6.59896 53.7552,6.5625 53.4844,6.5625 C53.0573,6.5625 52.7266,6.64323 52.4922,6.80469 C52.2578,6.96615 52.1406,7.20313 52.1406,7.51563 C52.1406,7.74479 52.1953,7.92708 52.3047,8.0625 C52.4141,8.19792 52.5807,8.3151 52.8047,8.41406 C53.0286,8.51302 53.2969,8.61979 53.6094,8.73438 C53.9427,8.85938 54.2396,8.98698 54.5,9.11719 C54.7604,9.2474 54.9688,9.41667 55.125,9.625 C55.2813,9.83333 55.3594,10.1094 55.3594,10.4531 M58.8281,6.03125 C59.2969,6.03125 59.6927,6.14844 60.0156,6.38281 C60.3385,6.61719 60.5807,6.9349 60.7422,7.33594 C60.9036,7.73698 60.9844,8.19792 60.9844,8.71875 L60.9844,9.15625 L57.0625,9.15625 C57.0729,9.92708 57.2448,10.5208 57.5781,10.9375 C57.9115,11.3542 58.3854,11.5625 59,11.5625 C59.3542,11.5625 59.6563,11.5313 59.9063,11.4688 C60.1563,11.4063 60.4375,11.3021 60.75,11.1563 L60.75,11.7344 C60.4792,11.8698 60.2083,11.9661 59.9375,12.0234 C59.6667,12.0807 59.349,12.1094 58.9844,12.1094 C58.1615,12.1094 57.526,11.8411 57.0781,11.3047 C56.6302,10.7682 56.4063,10.0417 56.4063,9.125 C56.4063,8.52083 56.5026,7.98958 56.6953,7.53125 C56.888,7.07292 57.1641,6.70833 57.5234,6.4375 C57.8828,6.16667 58.3177,6.03125 58.8281,6.03125 M58.8281,6.5625 C58.3281,6.5625 57.9245,6.74219 57.6172,7.10156 C57.3099,7.46094 57.1302,7.97396 57.0781,8.64063 L60.3281,8.64063 C60.3281,8.01563 60.2057,7.51302 59.9609,7.13281 C59.7161,6.7526 59.3385,6.5625 58.8281,6.5625 "/>
</g>

<g fill="none" stroke="#000000" stroke-opacity="1" stroke-width="1" stroke-linecap="square" stroke-linejoin="bevel" transform="matrix(1.99941,0,0,1.99941,732.397,19.9941)"
font-family="sans" font-size="11" font-weight="100" font-style="normal" 
>
</g>

<g fill="none" stroke="#000000" stroke-opacity="1" stroke-width="1" stroke-linecap="square" stroke-linejoin="bevel" transform="matrix(1.99941,0,0,1.99941,732.397,19.9941)"
font-family="Ubuntu" font-size="13" font-weight="400" font-style="normal" 
>
</g>

<g fill="none" stroke="#000000" stroke-opacity="1" stroke-width="1" stroke-linecap="square" stroke-linejoin="bevel" transform="matrix(1.99941,0,0,1.99941,14.3957,71.9787)"
font-family="Ubuntu" font-size="13" font-weight="400" font-style="normal" 
>
</g>

<g fill="none" stroke="#000000" stroke-opacity="1" stroke-width="1" stroke-linecap="square" stroke-linejoin="bevel" transform="matrix(1.99941,0,0,1.99941,14.3957,71.9787)"
font-family="Ubuntu" font-size="13" font-weight="400" font-style="normal" 
>
</g>

<g fill="none" stroke="#000000" stroke-opacity="1" stroke-width="1" stroke-linecap="square" stroke-linejoin="bevel" transform="matrix(1.99941,0,0,1.99941,14.3957,71.9787)"
font-family="Ubuntu" font-size="13" font-weight="400" font-style="normal" 
>
</g>

<g fill="none" stroke="#000000" stroke-opacity="1" stroke-width="1" stroke-linecap="square" stroke-linejoin="round" transform="matrix(1.99941,0,0,1.99941,14.3957,71.9787)"
font-family="Ubuntu" font-size="13" font-weight="400" font-style="normal" 
>
<ellipse cx="515.43" cy="-18" rx="69.0448" ry="17.5"/>
</g>

<g fill="none" stroke="#000000" stroke-opacity="1" stroke-width="1" stroke-linecap="square" stroke-linejoin="bevel" transform="matrix(1.99941,0,0,1.99941,14.3957,71.9787)"
font-family="Ubuntu" font-size="13" font-weight="400" font-style="normal" 
>
</g>

<g fill="none" stroke="#000000" stroke-opacity="1" stroke-width="1" stroke-linecap="square" stroke-linejoin="bevel" transform="matrix(1.99941,0,0,1.99941,964.6,19.9941)"
font-family="Ubuntu" font-size="13" font-weight="400" font-style="normal" 
>
</g>

<g fill="none" stroke="#000000" stroke-opacity="1" stroke-width="1" stroke-linecap="square" stroke-linejoin="bevel" transform="matrix(1.99941,0,0,1.99941,964.6,19.9941)"
font-family="sans" font-size="11" font-weight="100" font-style="normal" 
>
</g>

<g fill="#000000" fill-opacity="1" stroke="#000000" stroke-opacity="1" stroke-width="1" stroke-linecap="square" stroke-linejoin="round" transform="matrix(1.99941,0,0,1.99941,964.6,19.9941)"
font-family="sans" font-size="11" font-weight="100" font-style="normal" 
>
<path vector-effect="none" fill-rule="nonzero" d="M3.5,4.14063 L0.734375,12 L0.125,12 L2.875,4.14063 L3.5,4.14063 M7.01563,6.03125 C7.70313,6.03125 8.2474,6.28646 8.64844,6.79688 C9.04948,7.30729 9.25,8.05729 9.25,9.04688 C9.25,10.0365 9.04427,10.7943 8.63281,11.3203 C8.22135,11.8464 7.66146,12.1094 6.95313,12.1094 C6.47396,12.1094 6.08594,12 5.78906,11.7813 C5.49219,11.5625 5.27604,11.2969 5.14063,10.9844 L5.09375,10.9844 C5.10417,11.1719 5.11458,11.3724 5.125,11.5859 C5.13542,11.7995 5.14063,12 5.14063,12.1875 L5.14063,14.5938 L4.51563,14.5938 L4.51563,6.14063 L5.01563,6.14063 L5.10938,7.23438 L5.14063,7.23438 C5.27604,6.92188 5.49479,6.64323 5.79688,6.39844 C6.09896,6.15365 6.50521,6.03125 7.01563,6.03125 M6.90625,6.57813 C6.30208,6.57813 5.85677,6.78385 5.57031,7.19531 C5.28385,7.60677 5.14063,8.19792 5.14063,8.96875 L5.14063,9.07813 C5.14063,9.91146 5.28125,10.5365 5.5625,10.9531 C5.84375,11.3698 6.28125,11.5781 6.875,11.5781 C7.4375,11.5781 7.86458,11.3516 8.15625,10.8984 C8.44792,10.4453 8.59375,9.82292 8.59375,9.03125 C8.59375,8.25 8.45313,7.64583 8.17188,7.21875 C7.89063,6.79167 7.46875,6.57813 6.90625,6.57813 M15.3438,9.0625 C15.3438,9.67708 15.2474,10.2109 15.0547,10.6641 C14.862,11.1172 14.5807,11.4714 14.2109,11.7266 C13.8411,11.9818 13.3854,12.1094 12.8438,12.1094 C12.3438,12.1094 11.9089,11.9844 11.5391,11.7344 C11.1693,11.4844 10.8854,11.1302 10.6875,10.6719 C10.4896,10.2135 10.3906,9.67708 10.3906,9.0625 C10.3906,8.11458 10.6146,7.3724 11.0625,6.83594 C11.5104,6.29948 12.125,6.03125 12.9063,6.03125 C13.4271,6.03125 13.8698,6.15885 14.2344,6.41406 C14.599,6.66927 14.875,7.02344 15.0625,7.47656 C15.25,7.92969 15.3438,8.45833 15.3438,9.0625 M11.0469,9.0625 C11.0469,9.82292 11.1953,10.4323 11.4922,10.8906 C11.7891,11.349 12.2448,11.5781 12.8594,11.5781 C13.4948,11.5781 13.9609,11.3464 14.2578,10.8828 C14.5547,10.4193 14.7031,9.8125 14.7031,9.0625 C14.7031,8.58333 14.6406,8.15625 14.5156,7.78125 C14.3906,7.40625 14.1953,7.11198 13.9297,6.89844 C13.6641,6.6849 13.3177,6.57813 12.8906,6.57813 C12.276,6.57813 11.8151,6.79688 11.5078,7.23438 C11.2005,7.67188 11.0469,8.28125 11.0469,9.0625 M20.3125,10.4531 C20.3125,10.974 20.125,11.3802 19.75,11.6719 C19.375,11.9635 18.849,12.1094 18.1719,12.1094 C17.7865,12.1094 17.4453,12.0755 17.1484,12.0078 C16.8516,11.9401 16.599,11.849 16.3906,11.7344 L16.3906,11.125 C16.6406,11.2604 16.9193,11.3698 17.2266,11.4531 C17.5339,11.5365 17.849,11.5781 18.1719,11.5781 C18.7135,11.5781 19.1042,11.4818 19.3438,11.2891 C19.5833,11.0964 19.7031,10.8333 19.7031,10.5 C19.7031,10.1771 19.5755,9.92708 19.3203,9.75 C19.0651,9.57292 18.6875,9.39583 18.1875,9.21875 C17.8542,9.09375 17.5573,8.96615 17.2969,8.83594 C17.0365,8.70573 16.8333,8.54167 16.6875,8.34375 C16.5417,8.14583 16.4688,7.875 16.4688,7.53125 C16.4688,7.0625 16.651,6.69531 17.0156,6.42969 C17.3802,6.16406 17.8646,6.03125 18.4688,6.03125 C18.7917,6.03125 19.099,6.0651 19.3906,6.13281 C19.6823,6.20052 19.9479,6.29167 20.1875,6.40625 L19.9688,6.92188 C19.75,6.82813 19.5078,6.74479 19.2422,6.67188 C18.9766,6.59896 18.7083,6.5625 18.4375,6.5625 C18.0104,6.5625 17.6797,6.64323 17.4453,6.80469 C17.2109,6.96615 17.0938,7.20313 17.0938,7.51563 C17.0938,7.74479 17.1484,7.92708 17.2578,8.0625 C17.3672,8.19792 17.5339,8.3151 17.7578,8.41406 C17.9818,8.51302 18.25,8.61979 18.5625,8.73438 C18.8958,8.85938 19.1927,8.98698 19.4531,9.11719 C19.7135,9.2474 19.9219,9.41667 20.0781,9.625 C20.2344,9.83333 20.3125,10.1094 20.3125,10.4531 M23.7813,6.03125 C24.25,6.03125 24.6458,6.14844 24.9688,6.38281 C25.2917,6.61719 25.5339,6.9349 25.6953,7.33594 C25.8568,7.73698 25.9375,8.19792 25.9375,8.71875 L25.9375,9.15625 L22.0156,9.15625 C22.026,9.92708 22.1979,10.5208 22.5313,10.9375 C22.8646,11.3542 23.3385,11.5625 23.9531,11.5625 C24.3073,11.5625 24.6094,11.5313 24.8594,11.4688 C25.1094,11.4063 25.3906,11.3021 25.7031,11.1563 L25.7031,11.7344 C25.4323,11.8698 25.1615,11.9661 24.8906,12.0234 C24.6198,12.0807 24.3021,12.1094 23.9375,12.1094 C23.1146,12.1094 22.4792,11.8411 22.0313,11.3047 C21.5833,10.7682 21.3594,10.0417 21.3594,9.125 C21.3594,8.52083 21.4557,7.98958 21.6484,7.53125 C21.8411,7.07292 22.1172,6.70833 22.4766,6.4375 C22.8359,6.16667 23.2708,6.03125 23.7813,6.03125 M23.7813,6.5625 C23.2813,6.5625 22.8776,6.74219 22.5703,7.10156 C22.263,7.46094 22.0833,7.97396 22.0313,8.64063 L25.2813,8.64063 C25.2813,8.01563 25.1589,7.51302 24.9141,7.13281 C24.6693,6.7526 24.2917,6.5625 23.7813,6.5625 M30.8438,13.4844 L26.4844,13.4844 L26.4844,12.9844 L30.8438,12.9844 L30.8438,13.4844 M35.2031,10.4531 C35.2031,10.974 35.0156,11.3802 34.6406,11.6719 C34.2656,11.9635 33.7396,12.1094 33.0625,12.1094 C32.6771,12.1094 32.3359,12.0755 32.0391,12.0078 C31.7422,11.9401 31.4896,11.849 31.2813,11.7344 L31.2813,11.125 C31.5313,11.2604 31.8099,11.3698 32.1172,11.4531 C32.4245,11.5365 32.7396,11.5781 33.0625,11.5781 C33.6042,11.5781 33.9948,11.4818 34.2344,11.2891 C34.474,11.0964 34.5938,10.8333 34.5938,10.5 C34.5938,10.1771 34.4661,9.92708 34.2109,9.75 C33.9557,9.57292 33.5781,9.39583 33.0781,9.21875 C32.7448,9.09375 32.4479,8.96615 32.1875,8.83594 C31.9271,8.70573 31.724,8.54167 31.5781,8.34375 C31.4323,8.14583 31.3594,7.875 31.3594,7.53125 C31.3594,7.0625 31.5417,6.69531 31.9063,6.42969 C32.2708,6.16406 32.7552,6.03125 33.3594,6.03125 C33.6823,6.03125 33.9896,6.0651 34.2813,6.13281 C34.5729,6.20052 34.8385,6.29167 35.0781,6.40625 L34.8594,6.92188 C34.6406,6.82813 34.3984,6.74479 34.1328,6.67188 C33.8672,6.59896 33.599,6.5625 33.3281,6.5625 C32.901,6.5625 32.5703,6.64323 32.3359,6.80469 C32.1016,6.96615 31.9844,7.20313 31.9844,7.51563 C31.9844,7.74479 32.0391,7.92708 32.1484,8.0625 C32.2578,8.19792 32.4245,8.3151 32.6484,8.41406 C32.8724,8.51302 33.1406,8.61979 33.4531,8.73438 C33.7865,8.85938 34.0833,8.98698 34.3438,9.11719 C34.6042,9.2474 34.8125,9.41667 34.9688,9.625 C35.125,9.83333 35.2031,10.1094 35.2031,10.4531 M40.9375,6.14063 L40.9375,12 L40.4375,12 L40.3438,11 L40.3125,11 C40.1563,11.3229 39.9219,11.5885 39.6094,11.7969 C39.2969,12.0052 38.9063,12.1094 38.4375,12.1094 C37.1563,12.1094 36.5156,11.3958 36.5156,9.96875 L36.5156,6.14063 L37.1406,6.14063 L37.1406,9.92188 C37.1406,10.4844 37.2578,10.901 37.4922,11.1719 C37.7266,11.4427 38.0729,11.5781 38.5313,11.5781 C39.7188,11.5781 40.3125,10.8333 40.3125,9.34375 L40.3125,6.14063 L40.9375,6.14063 M43.3594,5.95313 C43.3594,6.16146 43.3568,6.38542 43.3516,6.625 C43.3464,6.86458 43.3385,7.05729 43.3281,7.20313 L43.3594,7.20313 C43.4948,6.86979 43.7214,6.59115 44.0391,6.36719 C44.3568,6.14323 44.75,6.03125 45.2188,6.03125 C45.9271,6.03125 46.4792,6.28646 46.875,6.79688 C47.2708,7.30729 47.4688,8.0625 47.4688,9.0625 C47.4688,9.98958 47.2708,10.7292 46.875,11.2813 C46.4792,11.8333 45.901,12.1094 45.1406,12.1094 C44.6823,12.1094 44.3073,12.0078 44.0156,11.8047 C43.724,11.6016 43.5104,11.349 43.375,11.0469 L43.3281,11.0469 L43.2031,12 L42.7344,12 L42.7344,3.64063 L43.3594,3.64063 L43.3594,5.95313 M45.1406,6.57813 C44.5052,6.57813 44.0495,6.79167 43.7734,7.21875 C43.4974,7.64583 43.3594,8.26042 43.3594,9.0625 L43.3594,9.14063 C43.3594,9.93229 43.4896,10.5365 43.75,10.9531 C44.0104,11.3698 44.4479,11.5781 45.0625,11.5781 C45.6354,11.5781 46.0703,11.3594 46.3672,10.9219 C46.6641,10.4844 46.8125,9.85938 46.8125,9.04688 C46.8125,7.40104 46.2552,6.57813 45.1406,6.57813 M52.4375,10.4531 C52.4375,10.974 52.25,11.3802 51.875,11.6719 C51.5,11.9635 50.974,12.1094 50.2969,12.1094 C49.9115,12.1094 49.5703,12.0755 49.2734,12.0078 C48.9766,11.9401 48.724,11.849 48.5156,11.7344 L48.5156,11.125 C48.7656,11.2604 49.0443,11.3698 49.3516,11.4531 C49.6589,11.5365 49.974,11.5781 50.2969,11.5781 C50.8385,11.5781 51.2292,11.4818 51.4688,11.2891 C51.7083,11.0964 51.8281,10.8333 51.8281,10.5 C51.8281,10.1771 51.7005,9.92708 51.4453,9.75 C51.1901,9.57292 50.8125,9.39583 50.3125,9.21875 C49.9792,9.09375 49.6823,8.96615 49.4219,8.83594 C49.1615,8.70573 48.9583,8.54167 48.8125,8.34375 C48.6667,8.14583 48.5938,7.875 48.5938,7.53125 C48.5938,7.0625 48.776,6.69531 49.1406,6.42969 C49.5052,6.16406 49.9896,6.03125 50.5938,6.03125 C50.9167,6.03125 51.224,6.0651 51.5156,6.13281 C51.8073,6.20052 52.0729,6.29167 52.3125,6.40625 L52.0938,6.92188 C51.875,6.82813 51.6328,6.74479 51.3672,6.67188 C51.1016,6.59896 50.8333,6.5625 50.5625,6.5625 C50.1354,6.5625 49.8047,6.64323 49.5703,6.80469 C49.3359,6.96615 49.2188,7.20313 49.2188,7.51563 C49.2188,7.74479 49.2734,7.92708 49.3828,8.0625 C49.4922,8.19792 49.6589,8.3151 49.8828,8.41406 C50.1068,8.51302 50.375,8.61979 50.6875,8.73438 C51.0208,8.85938 51.3177,8.98698 51.5781,9.11719 C51.8385,9.2474 52.0469,9.41667 52.2031,9.625 C52.3594,9.83333 52.4375,10.1094 52.4375,10.4531 M56.0156,12.1094 C55.2135,12.1094 54.5911,11.8464 54.1484,11.3203 C53.7057,10.7943 53.4844,10.0573 53.4844,9.10938 C53.4844,8.44271 53.5964,7.88281 53.8203,7.42969 C54.0443,6.97656 54.3542,6.63021 54.75,6.39063 C55.1458,6.15104 55.6094,6.03125 56.1406,6.03125 C56.401,6.03125 56.651,6.05729 56.8906,6.10938 C57.1302,6.16146 57.3385,6.23438 57.5156,6.32813 L57.3438,6.85938 C57.1563,6.77604 56.9557,6.71094 56.7422,6.66406 C56.5286,6.61719 56.3229,6.59375 56.125,6.59375 C55.4896,6.59375 55,6.81771 54.6563,7.26563 C54.3125,7.71354 54.1406,8.32292 54.1406,9.09375 C54.1406,9.83333 54.2917,10.4271 54.5938,10.875 C54.8958,11.3229 55.3698,11.5469 56.0156,11.5469 C56.2865,11.5469 56.5443,11.5182 56.7891,11.4609 C57.0339,11.4036 57.2552,11.3281 57.4531,11.2344 L57.4531,11.7969 C57.2656,11.8906 57.0547,11.9661 56.8203,12.0234 C56.5859,12.0807 56.3177,12.1094 56.0156,12.1094 M61.0469,6.04688 C61.3177,6.04688 61.5625,6.07813 61.7813,6.14063 L61.6875,6.71875 C61.4688,6.65625 61.2448,6.625 61.0156,6.625 C60.5156,6.625 60.1172,6.82292 59.8203,7.21875 C59.5234,7.61458 59.375,8.13542 59.375,8.78125 L59.375,12 L58.75,12 L58.75,6.14063 L59.2813,6.14063 L59.3438,7.23438 L59.375,7.23438 C59.5104,6.90104 59.7188,6.61979 60,6.39063 C60.2813,6.16146 60.6302,6.04688 61.0469,6.04688 M63.1563,3.98438 C63.4375,3.98438 63.5781,4.14063 63.5781,4.45313 C63.5781,4.77604 63.4375,4.9375 63.1563,4.9375 C62.875,4.9375 62.7344,4.77604 62.7344,4.45313 C62.7344,4.14063 62.875,3.98438 63.1563,3.98438 M63.4688,6.14063 L63.4688,12 L62.8438,12 L62.8438,6.14063 L63.4688,6.14063 M65.875,5.95313 C65.875,6.16146 65.8724,6.38542 65.8672,6.625 C65.862,6.86458 65.8542,7.05729 65.8438,7.20313 L65.875,7.20313 C66.0104,6.86979 66.237,6.59115 66.5547,6.36719 C66.8724,6.14323 67.2656,6.03125 67.7344,6.03125 C68.4427,6.03125 68.9948,6.28646 69.3906,6.79688 C69.7865,7.30729 69.9844,8.0625 69.9844,9.0625 C69.9844,9.98958 69.7865,10.7292 69.3906,11.2813 C68.9948,11.8333 68.4167,12.1094 67.6563,12.1094 C67.1979,12.1094 66.8229,12.0078 66.5313,11.8047 C66.2396,11.6016 66.026,11.349 65.8906,11.0469 L65.8438,11.0469 L65.7188,12 L65.25,12 L65.25,3.64063 L65.875,3.64063 L65.875,5.95313 M67.6563,6.57813 C67.0208,6.57813 66.5651,6.79167 66.2891,7.21875 C66.013,7.64583 65.875,8.26042 65.875,9.0625 L65.875,9.14063 C65.875,9.93229 66.0052,10.5365 66.2656,10.9531 C66.526,11.3698 66.9635,11.5781 67.5781,11.5781 C68.151,11.5781 68.5859,11.3594 68.8828,10.9219 C69.1797,10.4844 69.3281,9.85938 69.3281,9.04688 C69.3281,7.40104 68.7708,6.57813 67.6563,6.57813 M73.5625,6.03125 C74.0313,6.03125 74.4271,6.14844 74.75,6.38281 C75.0729,6.61719 75.3151,6.9349 75.4766,7.33594 C75.638,7.73698 75.7188,8.19792 75.7188,8.71875 L75.7188,9.15625 L71.7969,9.15625 C71.8073,9.92708 71.9792,10.5208 72.3125,10.9375 C72.6458,11.3542 73.1198,11.5625 73.7344,11.5625 C74.0885,11.5625 74.3906,11.5313 74.6406,11.4688 C74.8906,11.4063 75.1719,11.3021 75.4844,11.1563 L75.4844,11.7344 C75.2135,11.8698 74.9427,11.9661 74.6719,12.0234 C74.401,12.0807 74.0833,12.1094 73.7188,12.1094 C72.8958,12.1094 72.2604,11.8411 71.8125,11.3047 C71.3646,10.7682 71.1406,10.0417 71.1406,9.125 C71.1406,8.52083 71.237,7.98958 71.4297,7.53125 C71.6224,7.07292 71.8984,6.70833 72.2578,6.4375 C72.6172,6.16667 73.0521,6.03125 73.5625,6.03125 M73.5625,6.5625 C73.0625,6.5625 72.6589,6.74219 72.3516,7.10156 C72.0443,7.46094 71.8646,7.97396 71.8125,8.64063 L75.0625,8.64063 C75.0625,8.01563 74.9401,7.51302 74.6953,7.13281 C74.4505,6.7526 74.0729,6.5625 73.5625,6.5625 M79.4844,6.04688 C79.7552,6.04688 80,6.07813 80.2188,6.14063 L80.125,6.71875 C79.9063,6.65625 79.6823,6.625 79.4531,6.625 C78.9531,6.625 78.5547,6.82292 78.2578,7.21875 C77.9609,7.61458 77.8125,8.13542 77.8125,8.78125 L77.8125,12 L77.1875,12 L77.1875,6.14063 L77.7188,6.14063 L77.7813,7.23438 L77.8125,7.23438 C77.9479,6.90104 78.1563,6.61979 78.4375,6.39063 C78.7188,6.16146 79.0677,6.04688 79.4844,6.04688 "/>
</g>

<g fill="none" stroke="#000000" stroke-opacity="1" stroke-width="1" stroke-linecap="square" stroke-linejoin="bevel" transform="matrix(1.99941,0,0,1.99941,964.6,19.9941)"
font-family="sans" font-size="11" font-weight="100" font-style="normal" 
>
</g>

<g fill="none" stroke="#000000" stroke-opacity="1" stroke-width="1" stroke-linecap="square" stroke-linejoin="bevel" transform="matrix(1.99941,0,0,1.99941,964.6,19.9941)"
font-family="Ubuntu" font-size="13" font-weight="400" font-style="normal" 
>
</g>

<g fill="none" stroke="#000000" stroke-opacity="1" stroke-width="1" stroke-linecap="square" stroke-linejoin="bevel" transform="matrix(1.99941,0,0,1.99941,14.3957,71.9787)"
font-family="Ubuntu" font-size="13" font-weight="400" font-style="normal" 
>
</g>

<g fill="none" stroke="#000000" stroke-opacity="1" stroke-width="1" stroke-linecap="square" stroke-linejoin="bevel" transform="matrix(1.99941,0,0,1.99941,14.3957,71.9787)"
font-family="Ubuntu" font-size="13" font-weight="400" font-style="normal" 
>
</g>

<g fill="none" stroke="#000000" stroke-opacity="1" stroke-width="1" stroke-linecap="square" stroke-linejoin="bevel" transform="matrix(1.99941,0,0,1.99941,14.3957,71.9787)"
font-family="Ubuntu" font-size="13" font-weight="400" font-style="normal" 
>
</g>

<g fill="none" stroke="#000000" stroke-opacity="1" stroke-width="1" stroke-linecap="square" stroke-linejoin="round" transform="matrix(1.99941,0,0,1.99941,14.3957,71.9787)"
font-family="Ubuntu" font-size="13" font-weight="400" font-style="normal" 
>
<rect x="123.69" y="-35.5" width="105.999" height="35"/>
</g>

<g fill="none" stroke="#000000" stroke-opacity="1" stroke-width="1" stroke-linecap="square" stroke-linejoin="bevel" transform="matrix(1.99941,0,0,1.99941,14.3957,71.9787)"
font-family="Ubuntu" font-size="13" font-weight="400" font-style="normal" 
>
</g>

<g fill="none" stroke="#000000" stroke-opacity="1" stroke-width="1" stroke-linecap="square" stroke-linejoin="bevel" transform="matrix(1.99941,0,0,1.99941,291.288,19.9941)"
font-family="Ubuntu" font-size="13" font-weight="400" font-style="normal" 
>
</g>

<g fill="none" stroke="#000000" stroke-opacity="1" stroke-width="1" stroke-linecap="square" stroke-linejoin="bevel" transform="matrix(1.99941,0,0,1.99941,291.288,19.9941)"
font-family="sans" font-size="11" font-weight="100" font-style="normal" 
>
</g>

<g fill="#000000" fill-opacity="1" stroke="#000000" stroke-opacity="1" stroke-width="1" stroke-linecap="square" stroke-linejoin="round" transform="matrix(1.99941,0,0,1.99941,291.288,19.9941)"
font-family="sans" font-size="11" font-weight="100" font-style="normal" 
>
<path vector-effect="none" fill-rule="nonzero" d="M3.5,4.14063 L0.734375,12 L0.125,12 L2.875,4.14063 L3.5,4.14063 M6.10938,11.5781 C6.26563,11.5781 6.41146,11.5651 6.54688,11.5391 C6.68229,11.513 6.80208,11.4792 6.90625,11.4375 L6.90625,11.9375 C6.80208,11.9896 6.67188,12.0313 6.51563,12.0625 C6.35938,12.0938 6.19271,12.1094 6.01563,12.1094 C5.55729,12.1094 5.20052,11.974 4.94531,11.7031 C4.6901,11.4323 4.5625,10.9896 4.5625,10.375 L4.5625,6.65625 L3.75,6.65625 L3.75,6.29688 L4.5625,6.09375 L4.78125,4.75 L5.1875,4.75 L5.1875,6.14063 L6.875,6.14063 L6.875,6.65625 L5.1875,6.65625 L5.1875,10.3438 C5.1875,11.1667 5.49479,11.5781 6.10938,11.5781 M12.4375,6.14063 L12.4375,12 L11.9375,12 L11.8438,11 L11.8125,11 C11.6563,11.3229 11.4219,11.5885 11.1094,11.7969 C10.7969,12.0052 10.4063,12.1094 9.9375,12.1094 C8.65625,12.1094 8.01563,11.3958 8.01563,9.96875 L8.01563,6.14063 L8.64063,6.14063 L8.64063,9.92188 C8.64063,10.4844 8.75781,10.901 8.99219,11.1719 C9.22656,11.4427 9.57292,11.5781 10.0313,11.5781 C11.2188,11.5781 11.8125,10.8333 11.8125,9.34375 L11.8125,6.14063 L12.4375,6.14063 M16.5469,6.04688 C16.8177,6.04688 17.0625,6.07813 17.2813,6.14063 L17.1875,6.71875 C16.9688,6.65625 16.7448,6.625 16.5156,6.625 C16.0156,6.625 15.6172,6.82292 15.3203,7.21875 C15.0234,7.61458 14.875,8.13542 14.875,8.78125 L14.875,12 L14.25,12 L14.25,6.14063 L14.7813,6.14063 L14.8438,7.23438 L14.875,7.23438 C15.0104,6.90104 15.2188,6.61979 15.5,6.39063 C15.7813,6.16146 16.1302,6.04688 16.5469,6.04688 M19.9375,11.5781 C20.0938,11.5781 20.2396,11.5651 20.375,11.5391 C20.5104,11.513 20.6302,11.4792 20.7344,11.4375 L20.7344,11.9375 C20.6302,11.9896 20.5,12.0313 20.3438,12.0625 C20.1875,12.0938 20.0208,12.1094 19.8438,12.1094 C19.3854,12.1094 19.0286,11.974 18.7734,11.7031 C18.5182,11.4323 18.3906,10.9896 18.3906,10.375 L18.3906,6.65625 L17.5781,6.65625 L17.5781,6.29688 L18.3906,6.09375 L18.6094,4.75 L19.0156,4.75 L19.0156,6.14063 L20.7031,6.14063 L20.7031,6.65625 L19.0156,6.65625 L19.0156,10.3438 C19.0156,11.1667 19.3229,11.5781 19.9375,11.5781 M22.5313,12 L21.9063,12 L21.9063,3.64063 L22.5313,3.64063 L22.5313,12 M26.4219,6.03125 C26.8906,6.03125 27.2865,6.14844 27.6094,6.38281 C27.9323,6.61719 28.1745,6.9349 28.3359,7.33594 C28.4974,7.73698 28.5781,8.19792 28.5781,8.71875 L28.5781,9.15625 L24.6563,9.15625 C24.6667,9.92708 24.8385,10.5208 25.1719,10.9375 C25.5052,11.3542 25.9792,11.5625 26.5938,11.5625 C26.9479,11.5625 27.25,11.5313 27.5,11.4688 C27.75,11.4063 28.0313,11.3021 28.3438,11.1563 L28.3438,11.7344 C28.0729,11.8698 27.8021,11.9661 27.5313,12.0234 C27.2604,12.0807 26.9427,12.1094 26.5781,12.1094 C25.7552,12.1094 25.1198,11.8411 24.6719,11.3047 C24.224,10.7682 24,10.0417 24,9.125 C24,8.52083 24.0964,7.98958 24.2891,7.53125 C24.4818,7.07292 24.7578,6.70833 25.1172,6.4375 C25.4766,6.16667 25.9115,6.03125 26.4219,6.03125 M26.4219,6.5625 C25.9219,6.5625 25.5182,6.74219 25.2109,7.10156 C24.9036,7.46094 24.724,7.97396 24.6719,8.64063 L27.9219,8.64063 C27.9219,8.01563 27.7995,7.51302 27.5547,7.13281 C27.3099,6.7526 26.9323,6.5625 26.4219,6.5625 M32.6563,12 L32.0469,12 L32.0469,6.15625 C32.0469,5.84375 32.0495,5.58594 32.0547,5.38281 C32.0599,5.17969 32.0625,4.98958 32.0625,4.8125 C31.9688,4.90625 31.8776,4.98958 31.7891,5.0625 C31.7005,5.13542 31.5938,5.22917 31.4688,5.34375 L30.4531,6.1875 L30.1094,5.75 L32.1406,4.14063 L32.6563,4.14063 L32.6563,12 M38.5469,4.14063 L35.7813,12 L35.1719,12 L37.9219,4.14063 L38.5469,4.14063 M41.7656,12.1094 C40.9635,12.1094 40.3411,11.8464 39.8984,11.3203 C39.4557,10.7943 39.2344,10.0573 39.2344,9.10938 C39.2344,8.44271 39.3464,7.88281 39.5703,7.42969 C39.7943,6.97656 40.1042,6.63021 40.5,6.39063 C40.8958,6.15104 41.3594,6.03125 41.8906,6.03125 C42.151,6.03125 42.401,6.05729 42.6406,6.10938 C42.8802,6.16146 43.0885,6.23438 43.2656,6.32813 L43.0938,6.85938 C42.9063,6.77604 42.7057,6.71094 42.4922,6.66406 C42.2786,6.61719 42.0729,6.59375 41.875,6.59375 C41.2396,6.59375 40.75,6.81771 40.4063,7.26563 C40.0625,7.71354 39.8906,8.32292 39.8906,9.09375 C39.8906,9.83333 40.0417,10.4271 40.3438,10.875 C40.6458,11.3229 41.1198,11.5469 41.7656,11.5469 C42.0365,11.5469 42.2943,11.5182 42.5391,11.4609 C42.7839,11.4036 43.0052,11.3281 43.2031,11.2344 L43.2031,11.7969 C43.0156,11.8906 42.8047,11.9661 42.5703,12.0234 C42.3359,12.0807 42.0677,12.1094 41.7656,12.1094 M50.2813,6.03125 C50.8333,6.03125 51.263,6.19792 51.5703,6.53125 C51.8776,6.86458 52.0313,7.38542 52.0313,8.09375 L52.0313,12 L51.4063,12 L51.4063,8.10938 C51.4063,7.58854 51.2969,7.20313 51.0781,6.95313 C50.8594,6.70313 50.5625,6.57813 50.1875,6.57813 C49.6667,6.57813 49.2682,6.74219 48.9922,7.07031 C48.7161,7.39844 48.5781,7.90104 48.5781,8.57813 L48.5781,12 L47.9531,12 L47.9531,8.10938 C47.9531,7.58854 47.8438,7.20313 47.625,6.95313 C47.4063,6.70313 47.1094,6.57813 46.7344,6.57813 C46.2135,6.57813 45.8151,6.75 45.5391,7.09375 C45.263,7.4375 45.125,7.96354 45.125,8.67188 L45.125,12 L44.5,12 L44.5,6.14063 L45,6.14063 L45.0938,7.07813 L45.1406,7.07813 C45.276,6.78646 45.4818,6.53906 45.7578,6.33594 C46.0339,6.13281 46.3854,6.03125 46.8125,6.03125 C47.2188,6.03125 47.5625,6.125 47.8438,6.3125 C48.125,6.5 48.3177,6.77083 48.4219,7.125 L48.4688,7.125 C48.625,6.78125 48.8594,6.51302 49.1719,6.32031 C49.4844,6.1276 49.8542,6.03125 50.2813,6.03125 M55.7344,12.1094 C54.9948,12.1094 54.4271,11.8594 54.0313,11.3594 C53.6354,10.8594 53.4375,10.1146 53.4375,9.125 C53.4375,8.125 53.6458,7.35938 54.0625,6.82813 C54.4792,6.29688 55.0521,6.03125 55.7813,6.03125 C56.2396,6.03125 56.612,6.14063 56.8984,6.35938 C57.1849,6.57813 57.401,6.83854 57.5469,7.14063 L57.5938,7.14063 C57.5833,6.97396 57.5729,6.78646 57.5625,6.57813 C57.5521,6.36979 57.5469,6.17708 57.5469,6 L57.5469,3.64063 L58.1719,3.64063 L58.1719,12 L57.6719,12 L57.5781,10.9844 L57.5469,10.9844 C57.401,11.2969 57.1823,11.5625 56.8906,11.7813 C56.599,12 56.2135,12.1094 55.7344,12.1094 M55.8281,11.5781 C56.4531,11.5781 56.8984,11.3724 57.1641,10.9609 C57.4297,10.5495 57.5625,9.95313 57.5625,9.17188 L57.5625,9.07813 C57.5625,8.26563 57.4297,7.64583 57.1641,7.21875 C56.8984,6.79167 56.4635,6.57813 55.8594,6.57813 C55.2865,6.57813 54.849,6.79948 54.5469,7.24219 C54.2448,7.6849 54.0938,8.31771 54.0938,9.14063 C54.0938,9.93229 54.237,10.5365 54.5234,10.9531 C54.8099,11.3698 55.2448,11.5781 55.8281,11.5781 M63.4063,13.4844 L59.0469,13.4844 L59.0469,12.9844 L63.4063,12.9844 L63.4063,13.4844 M65.4844,12 L63.375,6.14063 L64.0469,6.14063 L65.4063,10.0313 C65.4792,10.2708 65.5521,10.5078 65.625,10.7422 C65.6979,10.9766 65.7604,11.1875 65.8125,11.375 L65.8438,11.375 C65.8854,11.1875 65.9453,10.974 66.0234,10.7344 C66.1016,10.4948 66.1771,10.2604 66.25,10.0313 L67.6094,6.14063 L68.2656,6.14063 L66.1563,12 L65.4844,12 M71.2656,6.03125 C71.7344,6.03125 72.1302,6.14844 72.4531,6.38281 C72.776,6.61719 73.0182,6.9349 73.1797,7.33594 C73.3411,7.73698 73.4219,8.19792 73.4219,8.71875 L73.4219,9.15625 L69.5,9.15625 C69.5104,9.92708 69.6823,10.5208 70.0156,10.9375 C70.349,11.3542 70.8229,11.5625 71.4375,11.5625 C71.7917,11.5625 72.0938,11.5313 72.3438,11.4688 C72.5938,11.4063 72.875,11.3021 73.1875,11.1563 L73.1875,11.7344 C72.9167,11.8698 72.6458,11.9661 72.375,12.0234 C72.1042,12.0807 71.7865,12.1094 71.4219,12.1094 C70.599,12.1094 69.9635,11.8411 69.5156,11.3047 C69.0677,10.7682 68.8438,10.0417 68.8438,9.125 C68.8438,8.52083 68.9401,7.98958 69.1328,7.53125 C69.3255,7.07292 69.6016,6.70833 69.9609,6.4375 C70.3203,6.16667 70.7552,6.03125 71.2656,6.03125 M71.2656,6.5625 C70.7656,6.5625 70.362,6.74219 70.0547,7.10156 C69.7474,7.46094 69.5677,7.97396 69.5156,8.64063 L72.7656,8.64063 C72.7656,8.01563 72.6432,7.51302 72.3984,7.13281 C72.1536,6.7526 71.776,6.5625 71.2656,6.5625 M75.5156,12 L74.8906,12 L74.8906,3.64063 L75.5156,3.64063 L75.5156,12"/>
</g>

<g fill="none" stroke="#000000" stroke-opacity="1" stroke-width="1" stroke-linecap="square" stroke-linejoin="bevel" transform="matrix(1.99941,0,0,1.99941,291.288,19.9941)"
font-family="sans" font-size="11" font-weight="100" font-style="normal" 
>
</g>

<g fill="none" stroke="#000000" stroke-opacity="1" stroke-width="1" stroke-linecap="square" stroke-linejoin="bevel" transform="matrix(1.99941,0,0,1.99941,291.288,19.9941)"
font-family="Ubuntu" font-size="13" font-weight="400" font-style="normal" 
>
</g>

<g fill="none" stroke="#000000" stroke-opacity="1" stroke-width="1" stroke-linecap="square" stroke-linejoin="bevel" transform="matrix(1.99941,0,0,1.99941,14.3957,71.9787)"
font-family="Ubuntu" font-size="13" font-weight="400" font-style="normal" 
>
</g>

<g fill="none" stroke="#000000" stroke-opacity="1" stroke-width="1" stroke-linecap="square" stroke-linejoin="bevel" transform="matrix(1.99941,0,0,1.99941,14.3957,71.9787)"
font-family="Ubuntu" font-size="13" font-weight="400" font-style="normal" 
>
</g>

<g fill="none" stroke="#000000" stroke-opacity="1" stroke-width="1" stroke-linecap="square" stroke-linejoin="bevel" transform="matrix(1.99941,0,0,1.99941,14.3957,71.9787)"
font-family="Ubuntu" font-size="13" font-weight="400" font-style="normal" 
>
</g>

<g fill="none" stroke="#000000" stroke-opacity="1" stroke-width="1" stroke-linecap="square" stroke-linejoin="round" transform="matrix(1.99941,0,0,1.99941,14.3957,71.9787)"
font-family="Ubuntu" font-size="13" font-weight="400" font-style="normal" 
>
<ellipse cx="289.04" cy="-18" rx="44.3452" ry="17.5"/>
</g>

<g fill="none" stroke="#000000" stroke-opacity="1" stroke-width="1" stroke-linecap="square" stroke-linejoin="bevel" transform="matrix(1.99941,0,0,1.99941,14.3957,71.9787)"
font-family="Ubuntu" font-size="13" font-weight="400" font-style="normal" 
>
</g>

<g fill="none" stroke="#000000" stroke-opacity="1" stroke-width="1" stroke-linecap="square" stroke-linejoin="bevel" transform="matrix(1.99941,0,0,1.99941,546.631,19.9941)"
font-family="Ubuntu" font-size="13" font-weight="400" font-style="normal" 
>
</g>

<g fill="none" stroke="#000000" stroke-opacity="1" stroke-width="1" stroke-linecap="square" stroke-linejoin="bevel" transform="matrix(1.99941,0,0,1.99941,546.631,19.9941)"
font-family="sans" font-size="11" font-weight="100" font-style="normal" 
>
</g>

<g fill="#000000" fill-opacity="1" stroke="#000000" stroke-opacity="1" stroke-width="1" stroke-linecap="square" stroke-linejoin="round" transform="matrix(1.99941,0,0,1.99941,546.631,19.9941)"
font-family="sans" font-size="11" font-weight="100" font-style="normal" 
>
<path vector-effect="none" fill-rule="nonzero" d="M3.5,4.14063 L0.734375,12 L0.125,12 L2.875,4.14063 L3.5,4.14063 M6.10938,11.5781 C6.26563,11.5781 6.41146,11.5651 6.54688,11.5391 C6.68229,11.513 6.80208,11.4792 6.90625,11.4375 L6.90625,11.9375 C6.80208,11.9896 6.67188,12.0313 6.51563,12.0625 C6.35938,12.0938 6.19271,12.1094 6.01563,12.1094 C5.55729,12.1094 5.20052,11.974 4.94531,11.7031 C4.6901,11.4323 4.5625,10.9896 4.5625,10.375 L4.5625,6.65625 L3.75,6.65625 L3.75,6.29688 L4.5625,6.09375 L4.78125,4.75 L5.1875,4.75 L5.1875,6.14063 L6.875,6.14063 L6.875,6.65625 L5.1875,6.65625 L5.1875,10.3438 C5.1875,11.1667 5.49479,11.5781 6.10938,11.5781 M12.4375,6.14063 L12.4375,12 L11.9375,12 L11.8438,11 L11.8125,11 C11.6563,11.3229 11.4219,11.5885 11.1094,11.7969 C10.7969,12.0052 10.4063,12.1094 9.9375,12.1094 C8.65625,12.1094 8.01563,11.3958 8.01563,9.96875 L8.01563,6.14063 L8.64063,6.14063 L8.64063,9.92188 C8.64063,10.4844 8.75781,10.901 8.99219,11.1719 C9.22656,11.4427 9.57292,11.5781 10.0313,11.5781 C11.2188,11.5781 11.8125,10.8333 11.8125,9.34375 L11.8125,6.14063 L12.4375,6.14063 M16.5469,6.04688 C16.8177,6.04688 17.0625,6.07813 17.2813,6.14063 L17.1875,6.71875 C16.9688,6.65625 16.7448,6.625 16.5156,6.625 C16.0156,6.625 15.6172,6.82292 15.3203,7.21875 C15.0234,7.61458 14.875,8.13542 14.875,8.78125 L14.875,12 L14.25,12 L14.25,6.14063 L14.7813,6.14063 L14.8438,7.23438 L14.875,7.23438 C15.0104,6.90104 15.2188,6.61979 15.5,6.39063 C15.7813,6.16146 16.1302,6.04688 16.5469,6.04688 M19.9375,11.5781 C20.0938,11.5781 20.2396,11.5651 20.375,11.5391 C20.5104,11.513 20.6302,11.4792 20.7344,11.4375 L20.7344,11.9375 C20.6302,11.9896 20.5,12.0313 20.3438,12.0625 C20.1875,12.0938 20.0208,12.1094 19.8438,12.1094 C19.3854,12.1094 19.0286,11.974 18.7734,11.7031 C18.5182,11.4323 18.3906,10.9896 18.3906,10.375 L18.3906,6.65625 L17.5781,6.65625 L17.5781,6.29688 L18.3906,6.09375 L18.6094,4.75 L19.0156,4.75 L19.0156,6.14063 L20.7031,6.14063 L20.7031,6.65625 L19.0156,6.65625 L19.0156,10.3438 C19.0156,11.1667 19.3229,11.5781 19.9375,11.5781 M22.5313,12 L21.9063,12 L21.9063,3.64063 L22.5313,3.64063 L22.5313,12 M26.4219,6.03125 C26.8906,6.03125 27.2865,6.14844 27.6094,6.38281 C27.9323,6.61719 28.1745,6.9349 28.3359,7.33594 C28.4974,7.73698 28.5781,8.19792 28.5781,8.71875 L28.5781,9.15625 L24.6563,9.15625 C24.6667,9.92708 24.8385,10.5208 25.1719,10.9375 C25.5052,11.3542 25.9792,11.5625 26.5938,11.5625 C26.9479,11.5625 27.25,11.5313 27.5,11.4688 C27.75,11.4063 28.0313,11.3021 28.3438,11.1563 L28.3438,11.7344 C28.0729,11.8698 27.8021,11.9661 27.5313,12.0234 C27.2604,12.0807 26.9427,12.1094 26.5781,12.1094 C25.7552,12.1094 25.1198,11.8411 24.6719,11.3047 C24.224,10.7682 24,10.0417 24,9.125 C24,8.52083 24.0964,7.98958 24.2891,7.53125 C24.4818,7.07292 24.7578,6.70833 25.1172,6.4375 C25.4766,6.16667 25.9115,6.03125 26.4219,6.03125 M26.4219,6.5625 C25.9219,6.5625 25.5182,6.74219 25.2109,7.10156 C24.9036,7.46094 24.724,7.97396 24.6719,8.64063 L27.9219,8.64063 C27.9219,8.01563 27.7995,7.51302 27.5547,7.13281 C27.3099,6.7526 26.9323,6.5625 26.4219,6.5625 M33.5313,10.4531 C33.5313,10.974 33.3438,11.3802 32.9688,11.6719 C32.5938,11.9635 32.0677,12.1094 31.3906,12.1094 C31.0052,12.1094 30.6641,12.0755 30.3672,12.0078 C30.0703,11.9401 29.8177,11.849 29.6094,11.7344 L29.6094,11.125 C29.8594,11.2604 30.138,11.3698 30.4453,11.4531 C30.7526,11.5365 31.0677,11.5781 31.3906,11.5781 C31.9323,11.5781 32.3229,11.4818 32.5625,11.2891 C32.8021,11.0964 32.9219,10.8333 32.9219,10.5 C32.9219,10.1771 32.7943,9.92708 32.5391,9.75 C32.2839,9.57292 31.9063,9.39583 31.4063,9.21875 C31.0729,9.09375 30.776,8.96615 30.5156,8.83594 C30.2552,8.70573 30.0521,8.54167 29.9063,8.34375 C29.7604,8.14583 29.6875,7.875 29.6875,7.53125 C29.6875,7.0625 29.8698,6.69531 30.2344,6.42969 C30.599,6.16406 31.0833,6.03125 31.6875,6.03125 C32.0104,6.03125 32.3177,6.0651 32.6094,6.13281 C32.901,6.20052 33.1667,6.29167 33.4063,6.40625 L33.1875,6.92188 C32.9688,6.82813 32.7266,6.74479 32.4609,6.67188 C32.1953,6.59896 31.9271,6.5625 31.6563,6.5625 C31.2292,6.5625 30.8984,6.64323 30.6641,6.80469 C30.4297,6.96615 30.3125,7.20313 30.3125,7.51563 C30.3125,7.74479 30.3672,7.92708 30.4766,8.0625 C30.5859,8.19792 30.7526,8.3151 30.9766,8.41406 C31.2005,8.51302 31.4688,8.61979 31.7813,8.73438 C32.1146,8.85938 32.4115,8.98698 32.6719,9.11719 C32.9323,9.2474 33.1406,9.41667 33.2969,9.625 C33.4531,9.83333 33.5313,10.1094 33.5313,10.4531 M35.2188,3.98438 C35.5,3.98438 35.6406,4.14063 35.6406,4.45313 C35.6406,4.77604 35.5,4.9375 35.2188,4.9375 C34.9375,4.9375 34.7969,4.77604 34.7969,4.45313 C34.7969,4.14063 34.9375,3.98438 35.2188,3.98438 M35.5313,6.14063 L35.5313,12 L34.9063,12 L34.9063,6.14063 L35.5313,6.14063 M43.1094,6.03125 C43.6615,6.03125 44.0911,6.19792 44.3984,6.53125 C44.7057,6.86458 44.8594,7.38542 44.8594,8.09375 L44.8594,12 L44.2344,12 L44.2344,8.10938 C44.2344,7.58854 44.125,7.20313 43.9063,6.95313 C43.6875,6.70313 43.3906,6.57813 43.0156,6.57813 C42.4948,6.57813 42.0964,6.74219 41.8203,7.07031 C41.5443,7.39844 41.4063,7.90104 41.4063,8.57813 L41.4063,12 L40.7813,12 L40.7813,8.10938 C40.7813,7.58854 40.6719,7.20313 40.4531,6.95313 C40.2344,6.70313 39.9375,6.57813 39.5625,6.57813 C39.0417,6.57813 38.6432,6.75 38.3672,7.09375 C38.0911,7.4375 37.9531,7.96354 37.9531,8.67188 L37.9531,12 L37.3281,12 L37.3281,6.14063 L37.8281,6.14063 L37.9219,7.07813 L37.9688,7.07813 C38.1042,6.78646 38.3099,6.53906 38.5859,6.33594 C38.862,6.13281 39.2135,6.03125 39.6406,6.03125 C40.0469,6.03125 40.3906,6.125 40.6719,6.3125 C40.9531,6.5 41.1458,6.77083 41.25,7.125 L41.2969,7.125 C41.4531,6.78125 41.6875,6.51302 42,6.32031 C42.3125,6.1276 42.6823,6.03125 43.1094,6.03125 "/>
</g>

<g fill="none" stroke="#000000" stroke-opacity="1" stroke-width="1" stroke-linecap="square" stroke-linejoin="bevel" transform="matrix(1.99941,0,0,1.99941,546.631,19.9941)"
font-family="sans" font-size="11" font-weight="100" font-style="normal" 
>
</g>

<g fill="none" stroke="#000000" stroke-opacity="1" stroke-width="1" stroke-linecap="square" stroke-linejoin="bevel" transform="matrix(1.99941,0,0,1.99941,546.631,19.9941)"
font-family="Ubuntu" font-size="13" font-weight="400" font-style="normal" 
>
</g>

<g fill="none" stroke="#000000" stroke-opacity="1" stroke-width="1" stroke-linecap="square" stroke-linejoin="bevel" transform="matrix(1.99941,0,0,1.99941,14.3957,71.9787)"
font-family="Ubuntu" font-size="13" font-weight="400" font-style="normal" 
>
</g>

<g fill="none" stroke="#000000" stroke-opacity="1" stroke-width="1" stroke-linecap="square" stroke-linejoin="bevel" transform="matrix(1.99941,0,0,1.99941,14.3957,71.9787)"
font-family="Ubuntu" font-size="13" font-weight="400" font-style="normal" 
>
</g>

<g fill="none" stroke="#000000" stroke-opacity="1" stroke-width="1" stroke-linecap="square" stroke-linejoin="bevel" transform="matrix(1.99941,0,0,1.99941,14.3957,71.9787)"
font-family="Ubuntu" font-size="13" font-weight="400" font-style="normal" 
>
</g>

<g fill="none" stroke="#000000" stroke-opacity="1" stroke-width="1" stroke-linecap="square" stroke-linejoin="round" transform="matrix(1.99941,0,0,1.99941,14.3957,71.9787)"
font-family="Ubuntu" font-size="13" font-weight="400" font-style="normal" 
>
<ellipse cx="54.595" cy="-18" rx="54.094" ry="17.5"/>
</g>

<g fill="none" stroke="#000000" stroke-opacity="1" stroke-width="1" stroke-linecap="square" stroke-linejoin="bevel" transform="matrix(1.99941,0,0,1.99941,14.3957,71.9787)"
font-family="Ubuntu" font-size="13" font-weight="400" font-style="normal" 
>
</g>

<g fill="none" stroke="#000000" stroke-opacity="1" stroke-width="1" stroke-linecap="square" stroke-linejoin="bevel" transform="matrix(1.99941,0,0,1.99941,68.023,19.9941)"
font-family="Ubuntu" font-size="13" font-weight="400" font-style="normal" 
>
</g>

<g fill="none" stroke="#000000" stroke-opacity="1" stroke-width="1" stroke-linecap="square" stroke-linejoin="bevel" transform="matrix(1.99941,0,0,1.99941,68.023,19.9941)"
font-family="sans" font-size="11" font-weight="100" font-style="normal" 
>
</g>

<g fill="#000000" fill-opacity="1" stroke="#000000" stroke-opacity="1" stroke-width="1" stroke-linecap="square" stroke-linejoin="round" transform="matrix(1.99941,0,0,1.99941,68.023,19.9941)"
font-family="sans" font-size="11" font-weight="100" font-style="normal" 
>
<path vector-effect="none" fill-rule="nonzero" d="M3.5,4.14063 L0.734375,12 L0.125,12 L2.875,4.14063 L3.5,4.14063 M6.48438,12.1094 C5.74479,12.1094 5.17708,11.8594 4.78125,11.3594 C4.38542,10.8594 4.1875,10.1146 4.1875,9.125 C4.1875,8.125 4.39583,7.35938 4.8125,6.82813 C5.22917,6.29688 5.80208,6.03125 6.53125,6.03125 C6.98958,6.03125 7.36198,6.14063 7.64844,6.35938 C7.9349,6.57813 8.15104,6.83854 8.29688,7.14063 L8.34375,7.14063 C8.33333,6.97396 8.32292,6.78646 8.3125,6.57813 C8.30208,6.36979 8.29688,6.17708 8.29688,6 L8.29688,3.64063 L8.92188,3.64063 L8.92188,12 L8.42188,12 L8.32813,10.9844 L8.29688,10.9844 C8.15104,11.2969 7.93229,11.5625 7.64063,11.7813 C7.34896,12 6.96354,12.1094 6.48438,12.1094 M6.57813,11.5781 C7.20313,11.5781 7.64844,11.3724 7.91406,10.9609 C8.17969,10.5495 8.3125,9.95313 8.3125,9.17188 L8.3125,9.07813 C8.3125,8.26563 8.17969,7.64583 7.91406,7.21875 C7.64844,6.79167 7.21354,6.57813 6.60938,6.57813 C6.03646,6.57813 5.59896,6.79948 5.29688,7.24219 C4.99479,7.6849 4.84375,8.31771 4.84375,9.14063 C4.84375,9.93229 4.98698,10.5365 5.27344,10.9531 C5.5599,11.3698 5.99479,11.5781 6.57813,11.5781 M13.0156,6.04688 C13.2865,6.04688 13.5313,6.07813 13.75,6.14063 L13.6563,6.71875 C13.4375,6.65625 13.2135,6.625 12.9844,6.625 C12.4844,6.625 12.0859,6.82292 11.7891,7.21875 C11.4922,7.61458 11.3438,8.13542 11.3438,8.78125 L11.3438,12 L10.7188,12 L10.7188,6.14063 L11.25,6.14063 L11.3125,7.23438 L11.3438,7.23438 C11.4792,6.90104 11.6875,6.61979 11.9688,6.39063 C12.25,6.16146 12.599,6.04688 13.0156,6.04688 M16.5781,6.04688 C17.2031,6.04688 17.6693,6.20833 17.9766,6.53125 C18.2839,6.85417 18.4375,7.36458 18.4375,8.0625 L18.4375,12 L17.9531,12 L17.8438,11.0156 L17.8125,11.0156 C17.6146,11.3385 17.3724,11.6016 17.0859,11.8047 C16.7995,12.0078 16.401,12.1094 15.8906,12.1094 C15.3698,12.1094 14.9557,11.9688 14.6484,11.6875 C14.3411,11.4063 14.1875,11 14.1875,10.4688 C14.1875,9.88542 14.4115,9.44271 14.8594,9.14063 C15.3073,8.83854 15.9583,8.66667 16.8125,8.625 L17.8125,8.5625 L17.8125,8.15625 C17.8125,7.58333 17.7057,7.17708 17.4922,6.9375 C17.2786,6.69792 16.9635,6.57813 16.5469,6.57813 C16.2656,6.57813 15.9948,6.61719 15.7344,6.69531 C15.474,6.77344 15.2135,6.88021 14.9531,7.01563 L14.75,6.51563 C15.0104,6.38021 15.2943,6.26823 15.6016,6.17969 C15.9089,6.09115 16.2344,6.04688 16.5781,6.04688 M16.8906,9.07813 C16.2031,9.11979 15.6901,9.2526 15.3516,9.47656 C15.013,9.70052 14.8438,10.0313 14.8438,10.4688 C14.8438,10.8333 14.9479,11.1094 15.1563,11.2969 C15.3646,11.4844 15.651,11.5781 16.0156,11.5781 C16.5781,11.5781 17.0182,11.4036 17.3359,11.0547 C17.6536,10.7057 17.8125,10.224 17.8125,9.60938 L17.8125,9.04688 L16.8906,9.07813 M23.4844,8.1875 C23.4219,7.94792 23.3594,7.71875 23.2969,7.5 C23.2344,7.28125 23.1875,7.07813 23.1563,6.89063 L23.1094,6.89063 C23.0677,7.07813 23.0182,7.28385 22.9609,7.50781 C22.9036,7.73177 22.8438,7.96354 22.7813,8.20313 L21.625,12 L20.9531,12 L19.4063,6.14063 L20.0625,6.14063 L20.9844,9.75 C21.0677,10.0833 21.1354,10.3724 21.1875,10.6172 C21.2396,10.862 21.2813,11.0833 21.3125,11.2813 L21.3438,11.2813 C21.3854,11.1042 21.4349,10.8932 21.4922,10.6484 C21.5495,10.4036 21.6198,10.1354 21.7031,9.84375 L22.8125,6.14063 L23.4844,6.14063 L24.5469,9.84375 C24.6198,10.1042 24.6901,10.3594 24.7578,10.6094 C24.8255,10.8594 24.875,11.0781 24.9063,11.2656 L24.9375,11.2656 C24.9583,11.0885 24.9974,10.875 25.0547,10.625 C25.112,10.375 25.1823,10.0833 25.2656,9.75 L26.1563,6.14063 L26.7969,6.14063 L25.2813,12 L24.5938,12 L23.4844,8.1875 M31.25,13.4844 L26.8906,13.4844 L26.8906,12.9844 L31.25,12.9844 L31.25,13.4844 M34.3281,12.1094 C33.526,12.1094 32.9036,11.8464 32.4609,11.3203 C32.0182,10.7943 31.7969,10.0573 31.7969,9.10938 C31.7969,8.44271 31.9089,7.88281 32.1328,7.42969 C32.3568,6.97656 32.6667,6.63021 33.0625,6.39063 C33.4583,6.15104 33.9219,6.03125 34.4531,6.03125 C34.7135,6.03125 34.9635,6.05729 35.2031,6.10938 C35.4427,6.16146 35.651,6.23438 35.8281,6.32813 L35.6563,6.85938 C35.4688,6.77604 35.2682,6.71094 35.0547,6.66406 C34.8411,6.61719 34.6354,6.59375 34.4375,6.59375 C33.8021,6.59375 33.3125,6.81771 32.9688,7.26563 C32.625,7.71354 32.4531,8.32292 32.4531,9.09375 C32.4531,9.83333 32.6042,10.4271 32.9063,10.875 C33.2083,11.3229 33.6823,11.5469 34.3281,11.5469 C34.599,11.5469 34.8568,11.5182 35.1016,11.4609 C35.3464,11.4036 35.5677,11.3281 35.7656,11.2344 L35.7656,11.7969 C35.5781,11.8906 35.3672,11.9661 35.1328,12.0234 C34.8984,12.0807 34.6302,12.1094 34.3281,12.1094 M37.375,3.98438 C37.6563,3.98438 37.7969,4.14063 37.7969,4.45313 C37.7969,4.77604 37.6563,4.9375 37.375,4.9375 C37.0938,4.9375 36.9531,4.77604 36.9531,4.45313 C36.9531,4.14063 37.0938,3.98438 37.375,3.98438 M37.6875,6.14063 L37.6875,12 L37.0625,12 L37.0625,6.14063 L37.6875,6.14063 M41.7813,6.04688 C42.0521,6.04688 42.2969,6.07813 42.5156,6.14063 L42.4219,6.71875 C42.2031,6.65625 41.9792,6.625 41.75,6.625 C41.25,6.625 40.8516,6.82292 40.5547,7.21875 C40.2578,7.61458 40.1094,8.13542 40.1094,8.78125 L40.1094,12 L39.4844,12 L39.4844,6.14063 L40.0156,6.14063 L40.0781,7.23438 L40.1094,7.23438 C40.2448,6.90104 40.4531,6.61979 40.7344,6.39063 C41.0156,6.16146 41.3646,6.04688 41.7813,6.04688 M45.5781,12.1094 C44.776,12.1094 44.1536,11.8464 43.7109,11.3203 C43.2682,10.7943 43.0469,10.0573 43.0469,9.10938 C43.0469,8.44271 43.1589,7.88281 43.3828,7.42969 C43.6068,6.97656 43.9167,6.63021 44.3125,6.39063 C44.7083,6.15104 45.1719,6.03125 45.7031,6.03125 C45.9635,6.03125 46.2135,6.05729 46.4531,6.10938 C46.6927,6.16146 46.901,6.23438 47.0781,6.32813 L46.9063,6.85938 C46.7188,6.77604 46.5182,6.71094 46.3047,6.66406 C46.0911,6.61719 45.8854,6.59375 45.6875,6.59375 C45.0521,6.59375 44.5625,6.81771 44.2188,7.26563 C43.875,7.71354 43.7031,8.32292 43.7031,9.09375 C43.7031,9.83333 43.8542,10.4271 44.1563,10.875 C44.4583,11.3229 44.9323,11.5469 45.5781,11.5469 C45.849,11.5469 46.1068,11.5182 46.3516,11.4609 C46.5964,11.4036 46.8177,11.3281 47.0156,11.2344 L47.0156,11.7969 C46.8281,11.8906 46.6172,11.9661 46.3828,12.0234 C46.1484,12.0807 45.8802,12.1094 45.5781,12.1094 M48.9375,12 L48.3125,12 L48.3125,3.64063 L48.9375,3.64063 L48.9375,12 M52.8281,6.03125 C53.2969,6.03125 53.6927,6.14844 54.0156,6.38281 C54.3385,6.61719 54.5807,6.9349 54.7422,7.33594 C54.9036,7.73698 54.9844,8.19792 54.9844,8.71875 L54.9844,9.15625 L51.0625,9.15625 C51.0729,9.92708 51.2448,10.5208 51.5781,10.9375 C51.9115,11.3542 52.3854,11.5625 53,11.5625 C53.3542,11.5625 53.6563,11.5313 53.9063,11.4688 C54.1563,11.4063 54.4375,11.3021 54.75,11.1563 L54.75,11.7344 C54.4792,11.8698 54.2083,11.9661 53.9375,12.0234 C53.6667,12.0807 53.349,12.1094 52.9844,12.1094 C52.1615,12.1094 51.526,11.8411 51.0781,11.3047 C50.6302,10.7682 50.4063,10.0417 50.4063,9.125 C50.4063,8.52083 50.5026,7.98958 50.6953,7.53125 C50.888,7.07292 51.1641,6.70833 51.5234,6.4375 C51.8828,6.16667 52.3177,6.03125 52.8281,6.03125 M52.8281,6.5625 C52.3281,6.5625 51.9245,6.74219 51.6172,7.10156 C51.3099,7.46094 51.1302,7.97396 51.0781,8.64063 L54.3281,8.64063 C54.3281,8.01563 54.2057,7.51302 53.9609,7.13281 C53.7161,6.7526 53.3385,6.5625 52.8281,6.5625 "/>
</g>

<g fill="none" stroke="#000000" stroke-opacity="1" stroke-width="1" stroke-linecap="square" stroke-linejoin="bevel" transform="matrix(1.99941,0,0,1.99941,68.023,19.9941)"
font-family="sans" font-size="11" font-weight="100" font-style="normal" 
>
</g>

<g fill="none" stroke="#000000" stroke-opacity="1" stroke-width="1" stroke-linecap="square" stroke-linejoin="bevel" transform="matrix(1.99941,0,0,1.99941,68.023,19.9941)"
font-family="Ubuntu" font-size="13" font-weight="400" font-style="normal" 
>
</g>

<g fill="none" stroke="#000000" stroke-opacity="1" stroke-width="1" stroke-linecap="square" stroke-linejoin="bevel" transform="matrix(1.99941,0,0,1.99941,14.3957,71.9787)"
font-family="Ubuntu" font-size="13" font-weight="400" font-style="normal" 
>
</g>

<g fill="none" stroke="#000000" stroke-opacity="1" stroke-width="1" stroke-linecap="square" stroke-linejoin="bevel" transform="matrix(1.99941,0,0,1.99941,14.3957,71.9787)"
font-family="Ubuntu" font-size="13" font-weight="400" font-style="normal" 
>
</g>

<g fill="none" stroke="#000000" stroke-opacity="1" stroke-width="1" stroke-linecap="square" stroke-linejoin="bevel" transform="matrix(1.99941,0,0,1.99941,14.3957,71.9787)"
font-family="Ubuntu" font-size="13" font-weight="400" font-style="normal" 
>
</g>

<g fill="none" stroke="#000000" stroke-opacity="1" stroke-width="1" stroke-linecap="square" stroke-linejoin="round" transform="matrix(1.99941,0,0,1.99941,14.3957,71.9787)"
font-family="Ubuntu" font-size="13" font-weight="400" font-style="normal" 
>
<ellipse cx="0" cy="0" rx="6.7" ry="35.5"/>
</g>

<g fill="none" stroke="#000000" stroke-opacity="1" stroke-width="1" stroke-linecap="square" stroke-linejoin="bevel" transform="matrix(1.99941,0,0,1.99941,14.3957,71.9787)"
font-family="Ubuntu" font-size="13" font-weight="400" font-style="normal" 
>
</g>

<g fill="none" stroke="#000000" stroke-opacity="1" stroke-width="1" stroke-linecap="square" stroke-linejoin="bevel" transform="matrix(1.99941,0,0,1.99941,14.3957,39.9882)"
font-family="Ubuntu" font-size="13" font-weight="400" font-style="normal" 
>
</g>

<g fill="none" stroke="#000000" stroke-opacity="1" stroke-width="1" stroke-linecap="square" stroke-linejoin="bevel" transform="matrix(1.99941,0,0,1.99941,14.3957,39.9882)"
font-family="Ubuntu" font-size="13" font-weight="400" font-style="normal" 
>
</g>

<g fill="none" stroke="#000000" stroke-opacity="1" stroke-width="1" stroke-linecap="square" stroke-linejoin="bevel" transform="matrix(1.99941,0,0,1.99941,14.3957,71.9787)"
font-family="Ubuntu" font-size="13" font-weight="400" font-style="normal" 
>
</g>

<g fill="none" stroke="#000000" stroke-opacity="1" stroke-width="1" stroke-linecap="square" stroke-linejoin="bevel" transform="matrix(1.99941,0,0,1.99941,14.3957,71.9787)"
font-family="Ubuntu" font-size="13" font-weight="400" font-style="normal" 
>
</g>

<g fill="none" stroke="#000000" stroke-opacity="1" stroke-width="1" stroke-linecap="square" stroke-linejoin="bevel" transform="matrix(1.99941,0,0,1.99941,14.3957,71.9787)"
font-family="Ubuntu" font-size="13" font-weight="400" font-style="normal" 
>
</g>

<g fill="none" stroke="#000000" stroke-opacity="1" stroke-width="1" stroke-linecap="square" stroke-linejoin="round" transform="matrix(1.99941,0,0,1.99941,14.3957,71.9787)"
font-family="Ubuntu" font-size="13" font-weight="400" font-style="normal" 
>
<path vector-effect="none" fill-rule="evenodd" d="M432.02,-18 C433.28,-18 434.56,-18 435.85,-18 "/>
</g>

<g fill="none" stroke="#000000" stroke-opacity="1" stroke-width="1" stroke-linecap="square" stroke-linejoin="bevel" transform="matrix(1.99941,0,0,1.99941,14.3957,71.9787)"
font-family="Ubuntu" font-size="13" font-weight="400" font-style="normal" 
>
</g>

<g fill="none" stroke="#000000" stroke-opacity="1" stroke-width="1" stroke-linecap="square" stroke-linejoin="bevel" transform="matrix(1.99941,0,0,1.99941,14.3957,71.9787)"
font-family="Ubuntu" font-size="13" font-weight="400" font-style="normal" 
>
</g>

<g fill="#000000" fill-opacity="1" stroke="#000000" stroke-opacity="1" stroke-width="1" stroke-linecap="square" stroke-linejoin="round" transform="matrix(1.99941,0,0,1.99941,14.3957,71.9787)"
font-family="Ubuntu" font-size="13" font-weight="400" font-style="normal" 
>
<path vector-effect="none" fill-rule="evenodd" d="M435.85,-18 L435.85,-14.4895 L445.88,-18 L435.85,-21.5105 L435.85,-18"/>
</g>

<g fill="none" stroke="#000000" stroke-opacity="1" stroke-width="1" stroke-linecap="square" stroke-linejoin="bevel" transform="matrix(1.99941,0,0,1.99941,14.3957,71.9787)"
font-family="Ubuntu" font-size="13" font-weight="400" font-style="normal" 
>
</g>

<g fill="none" stroke="#000000" stroke-opacity="1" stroke-width="1" stroke-linecap="square" stroke-linejoin="bevel" transform="matrix(1.99941,0,0,1.99941,14.3957,71.9787)"
font-family="Ubuntu" font-size="13" font-weight="400" font-style="normal" 
>
</g>

<g fill="none" stroke="#000000" stroke-opacity="1" stroke-width="1" stroke-linecap="square" stroke-linejoin="bevel" transform="matrix(1.99941,0,0,1.99941,14.3957,71.9787)"
font-family="Ubuntu" font-size="13" font-weight="400" font-style="normal" 
>
</g>

<g fill="none" stroke="#000000" stroke-opacity="1" stroke-width="1" stroke-linecap="square" stroke-linejoin="bevel" transform="matrix(1.99941,0,0,1.99941,14.3957,71.9787)"
font-family="Ubuntu" font-size="13" font-weight="400" font-style="normal" 
>
</g>

<g fill="none" stroke="#000000" stroke-opacity="1" stroke-width="1" stroke-linecap="square" stroke-linejoin="round" transform="matrix(1.99941,0,0,1.99941,14.3957,71.9787)"
font-family="Ubuntu" font-size="13" font-weight="400" font-style="normal" 
>
<path vector-effect="none" fill-rule="evenodd" d="M230.28,-18 C231.42,-18 232.56,-18 233.69,-18 "/>
</g>

<g fill="none" stroke="#000000" stroke-opacity="1" stroke-width="1" stroke-linecap="square" stroke-linejoin="bevel" transform="matrix(1.99941,0,0,1.99941,14.3957,71.9787)"
font-family="Ubuntu" font-size="13" font-weight="400" font-style="normal" 
>
</g>

<g fill="none" stroke="#000000" stroke-opacity="1" stroke-width="1" stroke-linecap="square" stroke-linejoin="bevel" transform="matrix(1.99941,0,0,1.99941,14.3957,71.9787)"
font-family="Ubuntu" font-size="13" font-weight="400" font-style="normal" 
>
</g>

<g fill="#000000" fill-opacity="1" stroke="#000000" stroke-opacity="1" stroke-width="1" stroke-linecap="square" stroke-linejoin="round" transform="matrix(1.99941,0,0,1.99941,14.3957,71.9787)"
font-family="Ubuntu" font-size="13" font-weight="400" font-style="normal" 
>
<path vector-effect="none" fill-rule="evenodd" d="M233.69,-18 L233.69,-14.4335 L243.88,-18 L233.69,-21.5665 L233.69,-18"/>
</g>

<g fill="none" stroke="#000000" stroke-opacity="1" stroke-width="1" stroke-linecap="square" stroke-linejoin="bevel" transform="matrix(1.99941,0,0,1.99941,14.3957,71.9787)"
font-family="Ubuntu" font-size="13" font-weight="400" font-style="normal" 
>
</g>

<g fill="none" stroke="#000000" stroke-opacity="1" stroke-width="1" stroke-linecap="square" stroke-linejoin="bevel" transform="matrix(1.99941,0,0,1.99941,14.3957,71.9787)"
font-family="Ubuntu" font-size="13" font-weight="400" font-style="normal" 
>
</g>

<g fill="none" stroke="#000000" stroke-opacity="1" stroke-width="1" stroke-linecap="square" stroke-linejoin="bevel" transform="matrix(1.99941,0,0,1.99941,14.3957,71.9787)"
font-family="Ubuntu" font-size="13" font-weight="400" font-style="normal" 
>
</g>

<g fill="none" stroke="#000000" stroke-opacity="1" stroke-width="1" stroke-linecap="square" stroke-linejoin="bevel" transform="matrix(1.99941,0,0,1.99941,14.3957,71.9787)"
font-family="Ubuntu" font-size="13" font-weight="400" font-style="normal" 
>
</g>

<g fill="none" stroke="#000000" stroke-opacity="1" stroke-width="1" stroke-linecap="square" stroke-linejoin="round" transform="matrix(1.99941,0,0,1.99941,14.3957,71.9787)"
font-family="Ubuntu" font-size="13" font-weight="400" font-style="normal" 
>
<path vector-effect="none" fill-rule="evenodd" d="M109.32,-18 C110.44,-18 111.57,-18 112.7,-18 "/>
</g>

<g fill="none" stroke="#000000" stroke-opacity="1" stroke-width="1" stroke-linecap="square" stroke-linejoin="bevel" transform="matrix(1.99941,0,0,1.99941,14.3957,71.9787)"
font-family="Ubuntu" font-size="13" font-weight="400" font-style="normal" 
>
</g>

<g fill="none" stroke="#000000" stroke-opacity="1" stroke-width="1" stroke-linecap="square" stroke-linejoin="bevel" transform="matrix(1.99941,0,0,1.99941,14.3957,71.9787)"
font-family="Ubuntu" font-size="13" font-weight="400" font-style="normal" 
>
</g>

<g fill="#000000" fill-opacity="1" stroke="#000000" stroke-opacity="1" stroke-width="1" stroke-linecap="square" stroke-linejoin="round" transform="matrix(1.99941,0,0,1.99941,14.3957,71.9787)"
font-family="Ubuntu" font-size="13" font-weight="400" font-style="normal" 
>
<path vector-effect="none" fill-rule="evenodd" d="M112.7,-18 L112.7,-14.4475 L122.85,-18 L112.7,-21.5525 L112.7,-18"/>
</g>

<g fill="none" stroke="#000000" stroke-opacity="1" stroke-width="1" stroke-linecap="square" stroke-linejoin="bevel" transform="matrix(1.99941,0,0,1.99941,14.3957,71.9787)"
font-family="Ubuntu" font-size="13" font-weight="400" font-style="normal" 
>
</g>

<g fill="none" stroke="#000000" stroke-opacity="1" stroke-width="1" stroke-linecap="square" stroke-linejoin="bevel" transform="matrix(1.99941,0,0,1.99941,14.3957,71.9787)"
font-family="Ubuntu" font-size="13" font-weight="400" font-style="normal" 
>
</g>

<g fill="none" stroke="#000000" stroke-opacity="1" stroke-width="1" stroke-linecap="square" stroke-linejoin="bevel" transform="matrix(1.99941,0,0,1.99941,14.3957,71.9787)"
font-family="Ubuntu" font-size="13" font-weight="400" font-style="normal" 
>
</g>

<g fill="none" stroke="#000000" stroke-opacity="1" stroke-width="1" stroke-linecap="square" stroke-linejoin="bevel" transform="matrix(1.99941,0,0,1.99941,14.3957,71.9787)"
font-family="Ubuntu" font-size="13" font-weight="400" font-style="normal" 
>
</g>

<g fill="none" stroke="#000000" stroke-opacity="1" stroke-width="1" stroke-linecap="square" stroke-linejoin="round" transform="matrix(1.99941,0,0,1.99941,14.3957,71.9787)"
font-family="Ubuntu" font-size="13" font-weight="400" font-style="normal" 
>
<path vector-effect="none" fill-rule="evenodd" d="M333.97,-18 C335.1,-18 336.24,-18 337.38,-18 "/>
</g>

<g fill="none" stroke="#000000" stroke-opacity="1" stroke-width="1" stroke-linecap="square" stroke-linejoin="bevel" transform="matrix(1.99941,0,0,1.99941,14.3957,71.9787)"
font-family="Ubuntu" font-size="13" font-weight="400" font-style="normal" 
>
</g>

<g fill="none" stroke="#000000" stroke-opacity="1" stroke-width="1" stroke-linecap="square" stroke-linejoin="bevel" transform="matrix(1.99941,0,0,1.99941,14.3957,71.9787)"
font-family="Ubuntu" font-size="13" font-weight="400" font-style="normal" 
>
</g>

<g fill="#000000" fill-opacity="1" stroke="#000000" stroke-opacity="1" stroke-width="1" stroke-linecap="square" stroke-linejoin="round" transform="matrix(1.99941,0,0,1.99941,14.3957,71.9787)"
font-family="Ubuntu" font-size="13" font-weight="400" font-style="normal" 
>
<path vector-effect="none" fill-rule="evenodd" d="M337.38,-18 L337.38,-14.4195 L347.61,-18 L337.38,-21.5805 L337.38,-18"/>
</g>

<g fill="none" stroke="#000000" stroke-opacity="1" stroke-width="1" stroke-linecap="square" stroke-linejoin="bevel" transform="matrix(1.99941,0,0,1.99941,14.3957,71.9787)"
font-family="Ubuntu" font-size="13" font-weight="400" font-style="normal" 
>
</g>

<g fill="none" stroke="#000000" stroke-opacity="1" stroke-width="1" stroke-linecap="square" stroke-linejoin="bevel" transform="matrix(1,0,0,1,0,0)"
font-family="Ubuntu" font-size="13" font-weight="400" font-style="normal" 
>
</g>
</g>
</svg>
