<?xml version="1.0" encoding="UTF-8" standalone="no"?>
<svg width="147.108mm" height="50.8mm"
 xmlns="http://www.w3.org/2000/svg" xmlns:xlink="http://www.w3.org/1999/xlink"  version="1.2" baseProfile="tiny">
<title>Qt SVG Document</title>
<desc>Generated with Qt</desc>
<defs>
</defs>
<g fill="none" stroke="black" stroke-width="1" fill-rule="evenodd" stroke-linecap="square" stroke-linejoin="bevel" >

<g fill="none" stroke="#000000" stroke-opacity="1" stroke-width="1" stroke-linecap="square" stroke-linejoin="bevel" transform="matrix(1,0,0,1,0,0)"
font-family="Ubuntu" font-size="13" font-weight="400" font-style="normal" 
>
</g>

<g fill="none" stroke="#000000" stroke-opacity="1" stroke-width="1" stroke-linecap="square" stroke-linejoin="bevel" transform="matrix(1,0,0,1,0,0)"
font-family="Ubuntu" font-size="13" font-weight="400" font-style="normal" 
>
</g>

<g fill="none" stroke="#000000" stroke-opacity="1" stroke-width="1" stroke-linecap="square" stroke-linejoin="bevel" transform="matrix(2,0,0,2,14.4,72)"
font-family="Ubuntu" font-size="13" font-weight="400" font-style="normal" 
>
</g>

<g fill="#ffffff" fill-opacity="1" stroke="none" transform="matrix(2,0,0,2,14.4,72)"
font-family="Ubuntu" font-size="13" font-weight="400" font-style="normal" 
>
<rect x="-7.2" y="-36" width="208.485" height="72"/>
</g>

<g fill="none" stroke="#000000" stroke-opacity="1" stroke-width="1" stroke-linecap="square" stroke-linejoin="bevel" transform="matrix(2,0,0,2,14.4,72)"
font-family="Ubuntu" font-size="13" font-weight="400" font-style="normal" 
>
</g>

<g fill="none" stroke="#000000" stroke-opacity="1" stroke-width="1" stroke-linecap="square" stroke-linejoin="bevel" transform="matrix(2,0,0,2,14.4,72)"
font-family="Ubuntu" font-size="13" font-weight="400" font-style="normal" 
>
</g>

<g fill="none" stroke="#000000" stroke-opacity="1" stroke-width="1" stroke-linecap="square" stroke-linejoin="bevel" transform="matrix(2,0,0,2,14.4,72)"
font-family="Ubuntu" font-size="13" font-weight="400" font-style="normal" 
>
</g>

<g fill="none" stroke="#000000" stroke-opacity="1" stroke-width="1" stroke-linecap="square" stroke-linejoin="bevel" transform="matrix(2,0,0,2,14.4,72)"
font-family="Ubuntu" font-size="13" font-weight="400" font-style="normal" 
>
</g>

<g fill="none" stroke="#000000" stroke-opacity="1" stroke-width="1" stroke-linecap="square" stroke-linejoin="round" transform="matrix(2,0,0,2,14.4,72)"
font-family="Ubuntu" font-size="13" font-weight="400" font-style="normal" 
>
<ellipse cx="162.29" cy="-18" rx="38.4952" ry="17.5"/>
</g>

<g fill="none" stroke="#000000" stroke-opacity="1" stroke-width="1" stroke-linecap="square" stroke-linejoin="bevel" transform="matrix(2,0,0,2,14.4,72)"
font-family="Ubuntu" font-size="13" font-weight="400" font-style="normal" 
>
</g>

<g fill="none" stroke="#000000" stroke-opacity="1" stroke-width="1" stroke-linecap="square" stroke-linejoin="bevel" transform="matrix(2,0,0,2,300.402,20)"
font-family="Ubuntu" font-size="13" font-weight="400" font-style="normal" 
>
</g>

<g fill="none" stroke="#000000" stroke-opacity="1" stroke-width="1" stroke-linecap="square" stroke-linejoin="bevel" transform="matrix(2,0,0,2,300.402,20)"
font-family="sans" font-size="11" font-weight="100" font-style="normal" 
>
</g>

<g fill="#000000" fill-opacity="1" stroke="#000000" stroke-opacity="1" stroke-width="1" stroke-linecap="square" stroke-linejoin="round" transform="matrix(2,0,0,2,300.402,20)"
font-family="sans" font-size="11" font-weight="100" font-style="normal" 
>
<path vector-effect="none" fill-rule="nonzero" d="M3.5,4.14063 L0.734375,12 L0.125,12 L2.875,4.14063 L3.5,4.14063 M5.14063,12 L4.51563,12 L4.51563,3.64063 L5.14063,3.64063 L5.14063,12 M7.25,3.98438 C7.53125,3.98438 7.67188,4.14063 7.67188,4.45313 C7.67188,4.77604 7.53125,4.9375 7.25,4.9375 C6.96875,4.9375 6.82813,4.77604 6.82813,4.45313 C6.82813,4.14063 6.96875,3.98438 7.25,3.98438 M7.5625,6.14063 L7.5625,12 L6.9375,12 L6.9375,6.14063 L7.5625,6.14063 M12.8438,10.4531 C12.8438,10.974 12.6563,11.3802 12.2813,11.6719 C11.9063,11.9635 11.3802,12.1094 10.7031,12.1094 C10.3177,12.1094 9.97656,12.0755 9.67969,12.0078 C9.38281,11.9401 9.13021,11.849 8.92188,11.7344 L8.92188,11.125 C9.17188,11.2604 9.45052,11.3698 9.75781,11.4531 C10.0651,11.5365 10.3802,11.5781 10.7031,11.5781 C11.2448,11.5781 11.6354,11.4818 11.875,11.2891 C12.1146,11.0964 12.2344,10.8333 12.2344,10.5 C12.2344,10.1771 12.1068,9.92708 11.8516,9.75 C11.5964,9.57292 11.2188,9.39583 10.7188,9.21875 C10.3854,9.09375 10.0885,8.96615 9.82813,8.83594 C9.56771,8.70573 9.36458,8.54167 9.21875,8.34375 C9.07292,8.14583 9,7.875 9,7.53125 C9,7.0625 9.18229,6.69531 9.54688,6.42969 C9.91146,6.16406 10.3958,6.03125 11,6.03125 C11.3229,6.03125 11.6302,6.0651 11.9219,6.13281 C12.2135,6.20052 12.4792,6.29167 12.7188,6.40625 L12.5,6.92188 C12.2813,6.82813 12.0391,6.74479 11.7734,6.67188 C11.5078,6.59896 11.2396,6.5625 10.9688,6.5625 C10.5417,6.5625 10.2109,6.64323 9.97656,6.80469 C9.74219,6.96615 9.625,7.20313 9.625,7.51563 C9.625,7.74479 9.67969,7.92708 9.78906,8.0625 C9.89844,8.19792 10.0651,8.3151 10.2891,8.41406 C10.513,8.51302 10.7813,8.61979 11.0938,8.73438 C11.4271,8.85938 11.724,8.98698 11.9844,9.11719 C12.2448,9.2474 12.4531,9.41667 12.6094,9.625 C12.7656,9.83333 12.8438,10.1094 12.8438,10.4531 M15.8125,11.5781 C15.9688,11.5781 16.1146,11.5651 16.25,11.5391 C16.3854,11.513 16.5052,11.4792 16.6094,11.4375 L16.6094,11.9375 C16.5052,11.9896 16.375,12.0313 16.2188,12.0625 C16.0625,12.0938 15.8958,12.1094 15.7188,12.1094 C15.2604,12.1094 14.9036,11.974 14.6484,11.7031 C14.3932,11.4323 14.2656,10.9896 14.2656,10.375 L14.2656,6.65625 L13.4531,6.65625 L13.4531,6.29688 L14.2656,6.09375 L14.4844,4.75 L14.8906,4.75 L14.8906,6.14063 L16.5781,6.14063 L16.5781,6.65625 L14.8906,6.65625 L14.8906,10.3438 C14.8906,11.1667 15.1979,11.5781 15.8125,11.5781 M19.875,6.03125 C20.3438,6.03125 20.7396,6.14844 21.0625,6.38281 C21.3854,6.61719 21.6276,6.9349 21.7891,7.33594 C21.9505,7.73698 22.0313,8.19792 22.0313,8.71875 L22.0313,9.15625 L18.1094,9.15625 C18.1198,9.92708 18.2917,10.5208 18.625,10.9375 C18.9583,11.3542 19.4323,11.5625 20.0469,11.5625 C20.401,11.5625 20.7031,11.5313 20.9531,11.4688 C21.2031,11.4063 21.4844,11.3021 21.7969,11.1563 L21.7969,11.7344 C21.526,11.8698 21.2552,11.9661 20.9844,12.0234 C20.7135,12.0807 20.3958,12.1094 20.0313,12.1094 C19.2083,12.1094 18.5729,11.8411 18.125,11.3047 C17.6771,10.7682 17.4531,10.0417 17.4531,9.125 C17.4531,8.52083 17.5495,7.98958 17.7422,7.53125 C17.9349,7.07292 18.2109,6.70833 18.5703,6.4375 C18.9297,6.16667 19.3646,6.03125 19.875,6.03125 M19.875,6.5625 C19.375,6.5625 18.9714,6.74219 18.6641,7.10156 C18.3568,7.46094 18.1771,7.97396 18.125,8.64063 L21.375,8.64063 C21.375,8.01563 21.2526,7.51302 21.0078,7.13281 C20.763,6.7526 20.3854,6.5625 19.875,6.5625 M26,6.03125 C26.6146,6.03125 27.0885,6.20573 27.4219,6.55469 C27.7552,6.90365 27.9219,7.44271 27.9219,8.17188 L27.9219,12 L27.2969,12 L27.2969,8.21875 C27.2969,7.65625 27.1797,7.24219 26.9453,6.97656 C26.7109,6.71094 26.3646,6.57813 25.9063,6.57813 C24.7188,6.57813 24.125,7.32292 24.125,8.8125 L24.125,12 L23.5,12 L23.5,6.14063 L24,6.14063 L24.0938,7.15625 L24.1406,7.15625 C24.2865,6.83333 24.5156,6.5651 24.8281,6.35156 C25.1406,6.13802 25.5313,6.03125 26,6.03125 M31.7656,6.03125 C32.2344,6.03125 32.6302,6.14844 32.9531,6.38281 C33.276,6.61719 33.5182,6.9349 33.6797,7.33594 C33.8411,7.73698 33.9219,8.19792 33.9219,8.71875 L33.9219,9.15625 L30,9.15625 C30.0104,9.92708 30.1823,10.5208 30.5156,10.9375 C30.849,11.3542 31.3229,11.5625 31.9375,11.5625 C32.2917,11.5625 32.5938,11.5313 32.8438,11.4688 C33.0938,11.4063 33.375,11.3021 33.6875,11.1563 L33.6875,11.7344 C33.4167,11.8698 33.1458,11.9661 32.875,12.0234 C32.6042,12.0807 32.2865,12.1094 31.9219,12.1094 C31.099,12.1094 30.4635,11.8411 30.0156,11.3047 C29.5677,10.7682 29.3438,10.0417 29.3438,9.125 C29.3438,8.52083 29.4401,7.98958 29.6328,7.53125 C29.8255,7.07292 30.1016,6.70833 30.4609,6.4375 C30.8203,6.16667 31.2552,6.03125 31.7656,6.03125 M31.7656,6.5625 C31.2656,6.5625 30.862,6.74219 30.5547,7.10156 C30.2474,7.46094 30.0677,7.97396 30.0156,8.64063 L33.2656,8.64063 C33.2656,8.01563 33.1432,7.51302 32.8984,7.13281 C32.6536,6.7526 32.276,6.5625 31.7656,6.5625 M37.6875,6.04688 C37.9583,6.04688 38.2031,6.07813 38.4219,6.14063 L38.3281,6.71875 C38.1094,6.65625 37.8854,6.625 37.6563,6.625 C37.1563,6.625 36.7578,6.82292 36.4609,7.21875 C36.1641,7.61458 36.0156,8.13542 36.0156,8.78125 L36.0156,12 L35.3906,12 L35.3906,6.14063 L35.9219,6.14063 L35.9844,7.23438 L36.0156,7.23438 C36.151,6.90104 36.3594,6.61979 36.6406,6.39063 C36.9219,6.16146 37.2708,6.04688 37.6875,6.04688 "/>
</g>

<g fill="none" stroke="#000000" stroke-opacity="1" stroke-width="1" stroke-linecap="square" stroke-linejoin="bevel" transform="matrix(2,0,0,2,300.402,20)"
font-family="sans" font-size="11" font-weight="100" font-style="normal" 
>
</g>

<g fill="none" stroke="#000000" stroke-opacity="1" stroke-width="1" stroke-linecap="square" stroke-linejoin="bevel" transform="matrix(2,0,0,2,300.402,20)"
font-family="Ubuntu" font-size="13" font-weight="400" font-style="normal" 
>
</g>

<g fill="none" stroke="#000000" stroke-opacity="1" stroke-width="1" stroke-linecap="square" stroke-linejoin="bevel" transform="matrix(2,0,0,2,14.4,72)"
font-family="Ubuntu" font-size="13" font-weight="400" font-style="normal" 
>
</g>

<g fill="none" stroke="#000000" stroke-opacity="1" stroke-width="1" stroke-linecap="square" stroke-linejoin="bevel" transform="matrix(2,0,0,2,14.4,72)"
font-family="Ubuntu" font-size="13" font-weight="400" font-style="normal" 
>
</g>

<g fill="none" stroke="#000000" stroke-opacity="1" stroke-width="1" stroke-linecap="square" stroke-linejoin="bevel" transform="matrix(2,0,0,2,14.4,72)"
font-family="Ubuntu" font-size="13" font-weight="400" font-style="normal" 
>
</g>

<g fill="none" stroke="#000000" stroke-opacity="1" stroke-width="1" stroke-linecap="square" stroke-linejoin="round" transform="matrix(2,0,0,2,14.4,72)"
font-family="Ubuntu" font-size="13" font-weight="400" font-style="normal" 
>
<ellipse cx="33.147" cy="-18" rx="32.647" ry="17.5"/>
</g>

<g fill="none" stroke="#000000" stroke-opacity="1" stroke-width="1" stroke-linecap="square" stroke-linejoin="bevel" transform="matrix(2,0,0,2,14.4,72)"
font-family="Ubuntu" font-size="13" font-weight="400" font-style="normal" 
>
</g>

<g fill="none" stroke="#000000" stroke-opacity="1" stroke-width="1" stroke-linecap="square" stroke-linejoin="bevel" transform="matrix(2,0,0,2,50.569,20)"
font-family="Ubuntu" font-size="13" font-weight="400" font-style="normal" 
>
</g>

<g fill="none" stroke="#000000" stroke-opacity="1" stroke-width="1" stroke-linecap="square" stroke-linejoin="bevel" transform="matrix(2,0,0,2,50.569,20)"
font-family="sans" font-size="11" font-weight="100" font-style="normal" 
>
</g>

<g fill="#000000" fill-opacity="1" stroke="#000000" stroke-opacity="1" stroke-width="1" stroke-linecap="square" stroke-linejoin="round" transform="matrix(2,0,0,2,50.569,20)"
font-family="sans" font-size="11" font-weight="100" font-style="normal" 
>
<path vector-effect="none" fill-rule="nonzero" d="M3.5,4.14063 L0.734375,12 L0.125,12 L2.875,4.14063 L3.5,4.14063 M6.10938,11.5781 C6.26563,11.5781 6.41146,11.5651 6.54688,11.5391 C6.68229,11.513 6.80208,11.4792 6.90625,11.4375 L6.90625,11.9375 C6.80208,11.9896 6.67188,12.0313 6.51563,12.0625 C6.35938,12.0938 6.19271,12.1094 6.01563,12.1094 C5.55729,12.1094 5.20052,11.974 4.94531,11.7031 C4.6901,11.4323 4.5625,10.9896 4.5625,10.375 L4.5625,6.65625 L3.75,6.65625 L3.75,6.29688 L4.5625,6.09375 L4.78125,4.75 L5.1875,4.75 L5.1875,6.14063 L6.875,6.14063 L6.875,6.65625 L5.1875,6.65625 L5.1875,10.3438 C5.1875,11.1667 5.49479,11.5781 6.10938,11.5781 M10.0469,6.04688 C10.6719,6.04688 11.138,6.20833 11.4453,6.53125 C11.7526,6.85417 11.9063,7.36458 11.9063,8.0625 L11.9063,12 L11.4219,12 L11.3125,11.0156 L11.2813,11.0156 C11.0833,11.3385 10.8411,11.6016 10.5547,11.8047 C10.2682,12.0078 9.86979,12.1094 9.35938,12.1094 C8.83854,12.1094 8.42448,11.9688 8.11719,11.6875 C7.8099,11.4063 7.65625,11 7.65625,10.4688 C7.65625,9.88542 7.88021,9.44271 8.32813,9.14063 C8.77604,8.83854 9.42708,8.66667 10.2813,8.625 L11.2813,8.5625 L11.2813,8.15625 C11.2813,7.58333 11.1745,7.17708 10.9609,6.9375 C10.7474,6.69792 10.4323,6.57813 10.0156,6.57813 C9.73438,6.57813 9.46354,6.61719 9.20313,6.69531 C8.94271,6.77344 8.68229,6.88021 8.42188,7.01563 L8.21875,6.51563 C8.47917,6.38021 8.76302,6.26823 9.07031,6.17969 C9.3776,6.09115 9.70313,6.04688 10.0469,6.04688 M10.3594,9.07813 C9.67188,9.11979 9.15885,9.2526 8.82031,9.47656 C8.48177,9.70052 8.3125,10.0313 8.3125,10.4688 C8.3125,10.8333 8.41667,11.1094 8.625,11.2969 C8.83333,11.4844 9.11979,11.5781 9.48438,11.5781 C10.0469,11.5781 10.487,11.4036 10.8047,11.0547 C11.1224,10.7057 11.2813,10.224 11.2813,9.60938 L11.2813,9.04688 L10.3594,9.07813 M14.2656,12 L13.6406,12 L13.6406,3.64063 L14.2656,3.64063 L14.2656,12 M16.6719,7.89063 C16.6719,8.11979 16.6693,8.36198 16.6641,8.61719 C16.6589,8.8724 16.6563,9.11979 16.6563,9.35938 C16.75,9.24479 16.8542,9.11458 16.9688,8.96875 C17.0833,8.82292 17.1927,8.6875 17.2969,8.5625 L19.375,6.14063 L20.125,6.14063 L17.9219,8.65625 L20.2969,12 L19.5469,12 L17.5,9.0625 L16.6719,9.96875 L16.6719,12 L16.0625,12 L16.0625,3.64063 L16.6719,3.64063 L16.6719,7.89063 M23.3125,6.03125 C23.7813,6.03125 24.1771,6.14844 24.5,6.38281 C24.8229,6.61719 25.0651,6.9349 25.2266,7.33594 C25.388,7.73698 25.4688,8.19792 25.4688,8.71875 L25.4688,9.15625 L21.5469,9.15625 C21.5573,9.92708 21.7292,10.5208 22.0625,10.9375 C22.3958,11.3542 22.8698,11.5625 23.4844,11.5625 C23.8385,11.5625 24.1406,11.5313 24.3906,11.4688 C24.6406,11.4063 24.9219,11.3021 25.2344,11.1563 L25.2344,11.7344 C24.9635,11.8698 24.6927,11.9661 24.4219,12.0234 C24.151,12.0807 23.8333,12.1094 23.4688,12.1094 C22.6458,12.1094 22.0104,11.8411 21.5625,11.3047 C21.1146,10.7682 20.8906,10.0417 20.8906,9.125 C20.8906,8.52083 20.987,7.98958 21.1797,7.53125 C21.3724,7.07292 21.6484,6.70833 22.0078,6.4375 C22.3672,6.16667 22.8021,6.03125 23.3125,6.03125 M23.3125,6.5625 C22.8125,6.5625 22.4089,6.74219 22.1016,7.10156 C21.7943,7.46094 21.6146,7.97396 21.5625,8.64063 L24.8125,8.64063 C24.8125,8.01563 24.6901,7.51302 24.4453,7.13281 C24.2005,6.7526 23.8229,6.5625 23.3125,6.5625 M29.2344,6.04688 C29.5052,6.04688 29.75,6.07813 29.9688,6.14063 L29.875,6.71875 C29.6563,6.65625 29.4323,6.625 29.2031,6.625 C28.7031,6.625 28.3047,6.82292 28.0078,7.21875 C27.7109,7.61458 27.5625,8.13542 27.5625,8.78125 L27.5625,12 L26.9375,12 L26.9375,6.14063 L27.4688,6.14063 L27.5313,7.23438 L27.5625,7.23438 C27.6979,6.90104 27.9063,6.61979 28.1875,6.39063 C28.4688,6.16146 28.8177,6.04688 29.2344,6.04688 "/>
</g>

<g fill="none" stroke="#000000" stroke-opacity="1" stroke-width="1" stroke-linecap="square" stroke-linejoin="bevel" transform="matrix(2,0,0,2,50.569,20)"
font-family="sans" font-size="11" font-weight="100" font-style="normal" 
>
</g>

<g fill="none" stroke="#000000" stroke-opacity="1" stroke-width="1" stroke-linecap="square" stroke-linejoin="bevel" transform="matrix(2,0,0,2,50.569,20)"
font-family="Ubuntu" font-size="13" font-weight="400" font-style="normal" 
>
</g>

<g fill="none" stroke="#000000" stroke-opacity="1" stroke-width="1" stroke-linecap="square" stroke-linejoin="bevel" transform="matrix(2,0,0,2,14.4,72)"
font-family="Ubuntu" font-size="13" font-weight="400" font-style="normal" 
>
</g>

<g fill="none" stroke="#000000" stroke-opacity="1" stroke-width="1" stroke-linecap="square" stroke-linejoin="bevel" transform="matrix(2,0,0,2,14.4,72)"
font-family="Ubuntu" font-size="13" font-weight="400" font-style="normal" 
>
</g>

<g fill="none" stroke="#000000" stroke-opacity="1" stroke-width="1" stroke-linecap="square" stroke-linejoin="bevel" transform="matrix(2,0,0,2,14.4,72)"
font-family="Ubuntu" font-size="13" font-weight="400" font-style="normal" 
>
</g>

<g fill="none" stroke="#000000" stroke-opacity="1" stroke-width="1" stroke-linecap="square" stroke-linejoin="round" transform="matrix(2,0,0,2,14.4,72)"
font-family="Ubuntu" font-size="13" font-weight="400" font-style="normal" 
>
<ellipse cx="0" cy="0" rx="6.7" ry="35.5"/>
</g>

<g fill="none" stroke="#000000" stroke-opacity="1" stroke-width="1" stroke-linecap="square" stroke-linejoin="bevel" transform="matrix(2,0,0,2,14.4,72)"
font-family="Ubuntu" font-size="13" font-weight="400" font-style="normal" 
>
</g>

<g fill="none" stroke="#000000" stroke-opacity="1" stroke-width="1" stroke-linecap="square" stroke-linejoin="bevel" transform="matrix(2,0,0,2,14.4,40)"
font-family="Ubuntu" font-size="13" font-weight="400" font-style="normal" 
>
</g>

<g fill="none" stroke="#000000" stroke-opacity="1" stroke-width="1" stroke-linecap="square" stroke-linejoin="bevel" transform="matrix(2,0,0,2,14.4,40)"
font-family="Ubuntu" font-size="13" font-weight="400" font-style="normal" 
>
</g>

<g fill="none" stroke="#000000" stroke-opacity="1" stroke-width="1" stroke-linecap="square" stroke-linejoin="bevel" transform="matrix(2,0,0,2,14.4,72)"
font-family="Ubuntu" font-size="13" font-weight="400" font-style="normal" 
>
</g>

<g fill="none" stroke="#000000" stroke-opacity="1" stroke-width="1" stroke-linecap="square" stroke-linejoin="bevel" transform="matrix(2,0,0,2,14.4,72)"
font-family="Ubuntu" font-size="13" font-weight="400" font-style="normal" 
>
</g>

<g fill="none" stroke="#000000" stroke-opacity="1" stroke-width="1" stroke-linecap="square" stroke-linejoin="bevel" transform="matrix(2,0,0,2,14.4,72)"
font-family="Ubuntu" font-size="13" font-weight="400" font-style="normal" 
>
</g>

<g fill="none" stroke="#000000" stroke-opacity="1" stroke-width="1" stroke-linecap="square" stroke-linejoin="round" transform="matrix(2,0,0,2,14.4,72)"
font-family="Ubuntu" font-size="13" font-weight="400" font-style="normal" 
>
<path vector-effect="none" fill-rule="evenodd" d="M66.56,-18 C80.548,-18 97.21,-18 112.63,-18 "/>
</g>

<g fill="none" stroke="#000000" stroke-opacity="1" stroke-width="1" stroke-linecap="square" stroke-linejoin="bevel" transform="matrix(2,0,0,2,14.4,72)"
font-family="Ubuntu" font-size="13" font-weight="400" font-style="normal" 
>
</g>

<g fill="none" stroke="#000000" stroke-opacity="1" stroke-width="1" stroke-linecap="square" stroke-linejoin="bevel" transform="matrix(2,0,0,2,166.769,5)"
font-family="Ubuntu" font-size="13" font-weight="400" font-style="normal" 
>
</g>

<g fill="none" stroke="#000000" stroke-opacity="1" stroke-width="1" stroke-linecap="square" stroke-linejoin="bevel" transform="matrix(2,0,0,2,166.769,5)"
font-family="sans" font-size="11" font-weight="100" font-style="normal" 
>
</g>

<g fill="#000000" fill-opacity="1" stroke="#000000" stroke-opacity="1" stroke-width="1" stroke-linecap="square" stroke-linejoin="round" transform="matrix(2,0,0,2,166.769,5)"
font-family="sans" font-size="11" font-weight="100" font-style="normal" 
>
<path vector-effect="none" fill-rule="nonzero" d="M3.5,4.14063 L0.734375,12 L0.125,12 L2.875,4.14063 L3.5,4.14063 M6.71875,12.1094 C5.91667,12.1094 5.29427,11.8464 4.85156,11.3203 C4.40885,10.7943 4.1875,10.0573 4.1875,9.10938 C4.1875,8.44271 4.29948,7.88281 4.52344,7.42969 C4.7474,6.97656 5.05729,6.63021 5.45313,6.39063 C5.84896,6.15104 6.3125,6.03125 6.84375,6.03125 C7.10417,6.03125 7.35417,6.05729 7.59375,6.10938 C7.83333,6.16146 8.04167,6.23438 8.21875,6.32813 L8.04688,6.85938 C7.85938,6.77604 7.65885,6.71094 7.44531,6.66406 C7.23177,6.61719 7.02604,6.59375 6.82813,6.59375 C6.19271,6.59375 5.70313,6.81771 5.35938,7.26563 C5.01563,7.71354 4.84375,8.32292 4.84375,9.09375 C4.84375,9.83333 4.99479,10.4271 5.29688,10.875 C5.59896,11.3229 6.07292,11.5469 6.71875,11.5469 C6.98958,11.5469 7.2474,11.5182 7.49219,11.4609 C7.73698,11.4036 7.95833,11.3281 8.15625,11.2344 L8.15625,11.7969 C7.96875,11.8906 7.75781,11.9661 7.52344,12.0234 C7.28906,12.0807 7.02083,12.1094 6.71875,12.1094 M10.0781,6.3125 C10.0781,6.46875 10.0729,6.61719 10.0625,6.75781 C10.0521,6.89844 10.0417,7.03125 10.0313,7.15625 L10.0781,7.15625 C10.224,6.83333 10.4531,6.5651 10.7656,6.35156 C11.0781,6.13802 11.4635,6.03125 11.9219,6.03125 C12.5573,6.03125 13.0417,6.20573 13.375,6.55469 C13.7083,6.90365 13.875,7.44271 13.875,8.17188 L13.875,12 L13.25,12 L13.25,8.21875 C13.25,7.65625 13.1328,7.24219 12.8984,6.97656 C12.6641,6.71094 12.3177,6.57813 11.8594,6.57813 C10.6719,6.57813 10.0781,7.32292 10.0781,8.8125 L10.0781,12 L9.45313,12 L9.45313,3.64063 L10.0781,3.64063 L10.0781,6.3125 M17.5938,6.04688 C18.2188,6.04688 18.6849,6.20833 18.9922,6.53125 C19.2995,6.85417 19.4531,7.36458 19.4531,8.0625 L19.4531,12 L18.9688,12 L18.8594,11.0156 L18.8281,11.0156 C18.6302,11.3385 18.388,11.6016 18.1016,11.8047 C17.8151,12.0078 17.4167,12.1094 16.9063,12.1094 C16.3854,12.1094 15.9714,11.9688 15.6641,11.6875 C15.3568,11.4063 15.2031,11 15.2031,10.4688 C15.2031,9.88542 15.4271,9.44271 15.875,9.14063 C16.3229,8.83854 16.974,8.66667 17.8281,8.625 L18.8281,8.5625 L18.8281,8.15625 C18.8281,7.58333 18.7214,7.17708 18.5078,6.9375 C18.2943,6.69792 17.9792,6.57813 17.5625,6.57813 C17.2813,6.57813 17.0104,6.61719 16.75,6.69531 C16.4896,6.77344 16.2292,6.88021 15.9688,7.01563 L15.7656,6.51563 C16.026,6.38021 16.3099,6.26823 16.6172,6.17969 C16.9245,6.09115 17.25,6.04688 17.5938,6.04688 M17.9063,9.07813 C17.2188,9.11979 16.7057,9.2526 16.3672,9.47656 C16.0286,9.70052 15.8594,10.0313 15.8594,10.4688 C15.8594,10.8333 15.9635,11.1094 16.1719,11.2969 C16.3802,11.4844 16.6667,11.5781 17.0313,11.5781 C17.5938,11.5781 18.0339,11.4036 18.3516,11.0547 C18.6693,10.7057 18.8281,10.224 18.8281,9.60938 L18.8281,9.04688 L17.9063,9.07813 M22.7813,11.5781 C22.9375,11.5781 23.0833,11.5651 23.2188,11.5391 C23.3542,11.513 23.474,11.4792 23.5781,11.4375 L23.5781,11.9375 C23.474,11.9896 23.3438,12.0313 23.1875,12.0625 C23.0313,12.0938 22.8646,12.1094 22.6875,12.1094 C22.2292,12.1094 21.8724,11.974 21.6172,11.7031 C21.362,11.4323 21.2344,10.9896 21.2344,10.375 L21.2344,6.65625 L20.4219,6.65625 L20.4219,6.29688 L21.2344,6.09375 L21.4531,4.75 L21.8594,4.75 L21.8594,6.14063 L23.5469,6.14063 L23.5469,6.65625 L21.8594,6.65625 L21.8594,10.3438 C21.8594,11.1667 22.1667,11.5781 22.7813,11.5781 M26.3438,11.5781 C26.5,11.5781 26.6458,11.5651 26.7813,11.5391 C26.9167,11.513 27.0365,11.4792 27.1406,11.4375 L27.1406,11.9375 C27.0365,11.9896 26.9063,12.0313 26.75,12.0625 C26.5938,12.0938 26.4271,12.1094 26.25,12.1094 C25.7917,12.1094 25.4349,11.974 25.1797,11.7031 C24.9245,11.4323 24.7969,10.9896 24.7969,10.375 L24.7969,6.65625 L23.9844,6.65625 L23.9844,6.29688 L24.7969,6.09375 L25.0156,4.75 L25.4219,4.75 L25.4219,6.14063 L27.1094,6.14063 L27.1094,6.65625 L25.4219,6.65625 L25.4219,10.3438 C25.4219,11.1667 25.7292,11.5781 26.3438,11.5781 M30.4063,6.03125 C30.875,6.03125 31.2708,6.14844 31.5938,6.38281 C31.9167,6.61719 32.1589,6.9349 32.3203,7.33594 C32.4818,7.73698 32.5625,8.19792 32.5625,8.71875 L32.5625,9.15625 L28.6406,9.15625 C28.651,9.92708 28.8229,10.5208 29.1563,10.9375 C29.4896,11.3542 29.9635,11.5625 30.5781,11.5625 C30.9323,11.5625 31.2344,11.5313 31.4844,11.4688 C31.7344,11.4063 32.0156,11.3021 32.3281,11.1563 L32.3281,11.7344 C32.0573,11.8698 31.7865,11.9661 31.5156,12.0234 C31.2448,12.0807 30.9271,12.1094 30.5625,12.1094 C29.7396,12.1094 29.1042,11.8411 28.6563,11.3047 C28.2083,10.7682 27.9844,10.0417 27.9844,9.125 C27.9844,8.52083 28.0807,7.98958 28.2734,7.53125 C28.4661,7.07292 28.7422,6.70833 29.1016,6.4375 C29.4609,6.16667 29.8958,6.03125 30.4063,6.03125 M30.4063,6.5625 C29.9063,6.5625 29.5026,6.74219 29.1953,7.10156 C28.888,7.46094 28.7083,7.97396 28.6563,8.64063 L31.9063,8.64063 C31.9063,8.01563 31.7839,7.51302 31.5391,7.13281 C31.2943,6.7526 30.9167,6.5625 30.4063,6.5625 M36.3281,6.04688 C36.599,6.04688 36.8438,6.07813 37.0625,6.14063 L36.9688,6.71875 C36.75,6.65625 36.526,6.625 36.2969,6.625 C35.7969,6.625 35.3984,6.82292 35.1016,7.21875 C34.8047,7.61458 34.6563,8.13542 34.6563,8.78125 L34.6563,12 L34.0313,12 L34.0313,6.14063 L34.5625,6.14063 L34.625,7.23438 L34.6563,7.23438 C34.7917,6.90104 35,6.61979 35.2813,6.39063 C35.5625,6.16146 35.9115,6.04688 36.3281,6.04688 "/>
</g>

<g fill="none" stroke="#000000" stroke-opacity="1" stroke-width="1" stroke-linecap="square" stroke-linejoin="bevel" transform="matrix(2,0,0,2,166.769,5)"
font-family="sans" font-size="11" font-weight="100" font-style="normal" 
>
</g>

<g fill="none" stroke="#000000" stroke-opacity="1" stroke-width="1" stroke-linecap="square" stroke-linejoin="bevel" transform="matrix(2,0,0,2,166.769,5)"
font-family="Ubuntu" font-size="13" font-weight="400" font-style="normal" 
>
</g>

<g fill="none" stroke="#000000" stroke-opacity="1" stroke-width="1" stroke-linecap="square" stroke-linejoin="bevel" transform="matrix(2,0,0,2,14.4,72)"
font-family="Ubuntu" font-size="13" font-weight="400" font-style="normal" 
>
</g>

<g fill="#000000" fill-opacity="1" stroke="#000000" stroke-opacity="1" stroke-width="1" stroke-linecap="square" stroke-linejoin="round" transform="matrix(2,0,0,2,14.4,72)"
font-family="Ubuntu" font-size="13" font-weight="400" font-style="normal" 
>
<path vector-effect="none" fill-rule="evenodd" d="M112.63,-18 L112.63,-14.3495 L123.06,-18 L112.63,-21.6505 L112.63,-18"/>
</g>

<g fill="none" stroke="#000000" stroke-opacity="1" stroke-width="1" stroke-linecap="square" stroke-linejoin="bevel" transform="matrix(2,0,0,2,14.4,72)"
font-family="Ubuntu" font-size="13" font-weight="400" font-style="normal" 
>
</g>

<g fill="none" stroke="#000000" stroke-opacity="1" stroke-width="1" stroke-linecap="square" stroke-linejoin="bevel" transform="matrix(1,0,0,1,0,0)"
font-family="Ubuntu" font-size="13" font-weight="400" font-style="normal" 
>
</g>
</g>
</svg>
